SplineFontDB: 3.2
FontName: ATM410-Regular
FullName: ATM410-Regular
FamilyName: ATM 410
Weight: Book
Copyright: Developed by AzhaguThamizh.
Version: 1.000
ItalicAngle: 0
UnderlinePosition: -143
UnderlineWidth: 20
Ascent: 800
Descent: 200
InvalidEm: 0
sfntRevision: 0x00010000
LayerCount: 2
Layer: 0 1 "Back" 1
Layer: 1 1 "Fore" 0
XUID: [1021 192 2086997156 30862]
StyleMap: 0x0040
FSType: 4
OS2Version: 3
OS2_WeightWidthSlopeOnly: 0
OS2_UseTypoMetrics: 0
CreationTime: 1537610806
ModificationTime: 1545656255
PfmFamily: 81
TTFWeight: 400
TTFWidth: 5
LineGap: 0
VLineGap: 0
Panose: 0 0 4 0 0 0 0 0 0 0
OS2TypoAscent: 825
OS2TypoAOffset: 0
OS2TypoDescent: -295
OS2TypoDOffset: 0
OS2TypoLinegap: 0
OS2WinAscent: 825
OS2WinAOffset: 0
OS2WinDescent: 295
OS2WinDOffset: 0
HheadAscent: 825
HheadAOffset: 0
HheadDescent: -295
HheadDOffset: 0
OS2SubXSize: 700
OS2SubYSize: 650
OS2SubXOff: 0
OS2SubYOff: 143
OS2SupXSize: 700
OS2SupYSize: 650
OS2SupXOff: 0
OS2SupYOff: 453
OS2StrikeYSize: 50
OS2StrikeYPos: 259
OS2CapHeight: 716
OS2XHeight: 520
OS2Vendor: 'MACR'
OS2CodePages: 00000001.00000000
OS2UnicodeRanges: 00100003.00000000.00000000.00000000
Lookup: 4 0 0 "'abvs' Above Base Substitutions in Tamil lookup 0" { "'abvs' Above Base Substitutions in Tamil lookup 0 subtable"  } ['abvs' ('taml' <'dflt' > ) ]
Lookup: 4 0 0 "'abvs' Above Base Substitutions in Tamil lookup 1" { "'abvs' Above Base Substitutions in Tamil lookup 1 subtable"  } ['abvs' ('taml' <'dflt' > ) ]
Lookup: 4 0 0 "'abvs' Above Base Substitutions in Tamil lookup 2" { "'abvs' Above Base Substitutions in Tamil lookup 2 subtable"  } ['abvs' ('taml' <'dflt' > ) ]
Lookup: 4 0 0 "'abvs' Above Base Substitutions in Tamil lookup 3" { "'abvs' Above Base Substitutions in Tamil lookup 3 subtable"  } ['abvs' ('taml' <'dflt' > ) ]
Lookup: 4 0 0 "'abvs' Above Base Substitutions in Tamil lookup 4" { "'abvs' Above Base Substitutions in Tamil lookup 4 subtable"  } ['abvs' ('taml' <'dflt' > ) ]

StartChar: .notdef
Encoding: 65536 -1 0
Width: 500
GlyphClass: 2
Flags: W
LayerCount: 2
Fore
SplineSet
63 0 m 1,0,-1
 63 800 l 1,1,-1
 438 800 l 1,2,-1
 438 0 l 1,3,-1
 63 0 l 1,0,-1
125 63 m 1,4,-1
 375 63 l 1,5,-1
 375 738 l 1,6,-1
 125 738 l 1,7,-1
 125 63 l 1,4,-1
EndSplineSet
EndChar

StartChar: exclam
Encoding: 33 33 4
Width: 394
GlyphClass: 2
Flags: W
LayerCount: 2
Fore
SplineSet
378 597 m 0,0,1
 378 569 378 569 372 519 c 2,2,-1
 362 436 l 1,3,-1
 344 299 l 1,4,-1
 333 231 l 1,5,-1
 296 231 l 1,6,-1
 254 538 l 1,7,-1
 250 593 l 1,8,-1
 251 621 l 2,9,10
 251 631 251 631 258 644 c 0,11,12
 272 684 272 684 314 684 c 0,13,14
 345 684 345 684 363 655 c 0,15,16
 378 630 378 630 378 597 c 0,0,1
386 61 m 0,17,18
 386 31 386 31 365.5 10 c 128,-1,19
 345 -11 345 -11 315 -11 c 256,20,21
 285 -11 285 -11 264 10 c 128,-1,22
 243 31 243 31 243 61 c 0,23,24
 243 92 243 92 263.5 112 c 128,-1,25
 284 132 284 132 315 132 c 0,26,27
 342 132 342 132 364 110 c 128,-1,28
 386 88 386 88 386 61 c 0,17,18
EndSplineSet
EndChar

StartChar: quotedbl
Encoding: 34 34 5
Width: 355
GlyphClass: 2
Flags: W
LayerCount: 2
Fore
SplineSet
308 599 m 1,0,-1
 285 462 l 1,1,-1
 232 462 l 1,2,-1
 208 599 l 1,3,-1
 208 716 l 1,4,-1
 308 716 l 1,5,-1
 308 599 l 1,0,-1
146 599 m 1,6,-1
 124 462 l 1,7,-1
 70 462 l 1,8,-1
 46 599 l 1,9,-1
 46 716 l 1,10,-1
 146 716 l 1,11,-1
 146 599 l 1,6,-1
EndSplineSet
EndChar

StartChar: numbersign
Encoding: 35 35 6
Width: 500
GlyphClass: 2
Flags: W
LayerCount: 2
Fore
SplineSet
501 473 m 1,0,-1
 492 421 l 1,1,-1
 396 421 l 1,2,-1
 352 253 l 1,3,-1
 446 253 l 1,4,-1
 437 201 l 1,5,-1
 336 201 l 1,6,-1
 285 0 l 1,7,-1
 204 0 l 1,8,-1
 258 201 l 1,9,-1
 167 201 l 1,10,-1
 112 0 l 1,11,-1
 33 0 l 1,12,-1
 88 201 l 1,13,-1
 -4 201 l 1,14,-1
 5 253 l 1,15,-1
 100 253 l 1,16,-1
 144 421 l 1,17,-1
 51 421 l 1,18,-1
 60 473 l 1,19,-1
 156 473 l 1,20,-1
 213 674 l 1,21,-1
 293 674 l 1,22,-1
 237 473 l 1,23,-1
 327 473 l 1,24,-1
 384 674 l 1,25,-1
 463 674 l 1,26,-1
 406 473 l 1,27,-1
 501 473 l 1,0,-1
314 421 m 1,28,-1
 226 421 l 1,29,-1
 182 253 l 1,30,-1
 272 253 l 1,31,-1
 314 421 l 1,28,-1
EndSplineSet
EndChar

StartChar: dollar
Encoding: 36 36 7
Width: 500
GlyphClass: 2
Flags: W
LayerCount: 2
Fore
SplineSet
473 196 m 0,0,1
 473 28 473 28 268 0 c 1,2,-1
 268 -100 l 1,3,-1
 214 -100 l 1,4,-1
 214 0 l 1,5,-1
 179 1 l 1,6,-1
 148 7 l 2,7,8
 108 15 108 15 46 42 c 1,9,-1
 46 199 l 1,10,-1
 67 196 l 1,11,12
 113 42 113 42 213 30 c 1,13,-1
 213 299 l 1,14,15
 88 359 88 359 45 429 c 0,16,17
 29 455 29 455 29 492 c 0,18,19
 29 610 29 610 143 658 c 0,20,21
 177 672 177 672 214 672 c 1,22,-1
 214 750 l 1,23,-1
 268 750 l 1,24,-1
 268 673 l 1,25,26
 373 659 373 659 428 621 c 1,27,-1
 428 481 l 1,28,-1
 407 481 l 1,29,-1
 388 534 l 2,30,31
 381 553 381 553 367 574 c 0,32,33
 331 627 331 627 268 641 c 1,34,-1
 268 416 l 1,35,36
 418 344 418 344 456 269 c 0,37,38
 473 236 473 236 473 196 c 0,0,1
213 444 m 1,39,-1
 213 643 l 1,40,41
 124 632 124 632 124 552 c 0,42,43
 124 528 124 528 134 505 c 0,44,45
 147 471 147 471 182 457 c 2,46,-1
 213 444 l 1,39,-1
365 140 m 0,47,48
 365 167 365 167 358 186 c 128,-1,49
 351 205 351 205 336 220 c 0,50,51
 309 247 309 247 268 267 c 1,52,-1
 268 30 l 1,53,54
 305 30 305 30 330.5 55.5 c 128,-1,55
 356 81 356 81 363 118 c 0,56,57
 365 128 365 128 365 140 c 0,47,48
EndSplineSet
EndChar

StartChar: percent
Encoding: 37 37 8
Width: 1000
GlyphClass: 2
Flags: W
LayerCount: 2
Fore
SplineSet
877 268 m 0,0,1
 877 175 877 175 819 94 c 0,2,3
 756 4 756 4 667 4 c 0,4,5
 610 4 610 4 572 46 c 128,-1,6
 534 88 534 88 534 145 c 0,7,8
 534 234 534 234 604 312.5 c 128,-1,9
 674 391 674 391 761 391 c 0,10,11
 816 391 816 391 846.5 357.5 c 128,-1,12
 877 324 877 324 877 268 c 0,0,1
720 692 m 1,13,-1
 327 -9 l 1,14,-1
 279 -9 l 1,15,-1
 625 610 l 1,16,-1
 601 601 l 1,17,-1
 563 591 l 2,18,19
 540 585 540 585 508 585 c 2,20,-1
 495 585 l 1,21,-1
 465 590 l 1,22,-1
 467 565 l 2,23,24
 473 494 473 494 416 398 c 0,25,26
 355 295 355 295 261 295 c 0,27,28
 199 295 199 295 161 336 c 128,-1,29
 123 377 123 377 123 440 c 0,30,31
 123 525 123 525 192 601.5 c 128,-1,32
 261 678 261 678 346 678 c 0,33,34
 377 678 377 678 426 650.5 c 128,-1,35
 475 623 475 623 519 623 c 0,36,37
 613 623 613 623 690 692 c 1,38,-1
 720 692 l 1,13,-1
844 265 m 0,39,40
 844 342 844 342 787 342 c 0,41,42
 756 342 756 342 721 308 c 0,43,44
 692 280 692 280 677 246 c 0,45,46
 642 169 642 169 642 113 c 0,47,48
 642 99 642 99 650 85 c 2,49,-1
 666 65 l 2,50,51
 680 51 680 51 701 51 c 0,52,53
 756 51 756 51 803 133 c 0,54,55
 844 205 844 205 844 265 c 0,39,40
431 569 m 0,56,57
 431 593 431 593 425.5 598.5 c 128,-1,58
 420 604 420 604 414 606 c 2,59,-1
 389 621 l 1,60,-1
 371 631 l 1,61,62
 318 631 318 631 274 541 c 0,63,64
 250 492 250 492 241.5 461 c 128,-1,65
 233 430 233 430 233 397 c 0,66,67
 233 386 233 386 237 375 c 2,68,-1
 249 355 l 2,69,70
 261 340 261 340 287 340 c 0,71,72
 346 340 346 340 392 428 c 0,73,74
 431 503 431 503 431 569 c 0,56,57
EndSplineSet
EndChar

StartChar: ampersand
Encoding: 38 38 9
Width: 828
GlyphClass: 2
Flags: W
LayerCount: 2
Fore
SplineSet
776 113 m 1,0,1
 756 67 756 67 729 38 c 0,2,3
 680 -15 680 -15 616 -15 c 0,4,5
 565 -15 565 -15 527 16 c 2,6,-1
 499 39 l 1,7,-1
 465 74 l 1,8,9
 409 34 409 34 371 16 c 0,10,11
 307 -14 307 -14 239 -14 c 0,12,13
 163 -14 163 -14 109 33 c 0,14,15
 52 82 52 82 52 157 c 0,16,17
 52 247 52 247 124 313 c 0,18,19
 158 344 158 344 248 390 c 1,20,21
 195 478 195 478 195 534 c 0,22,23
 195 615 195 615 256 657 c 0,24,25
 309 693 309 693 393 693 c 0,26,27
 456 693 456 693 503 664 c 0,28,29
 558 630 558 630 558 571 c 0,30,31
 558 511 558 511 492 466 c 0,32,33
 463 446 463 446 422 425 c 0,34,35
 413 420 413 420 387 409 c 1,36,-1
 537 196 l 1,37,-1
 581 249 l 2,38,39
 595 265 595 265 612 287 c 0,40,41
 633 323 633 323 633 353 c 0,42,43
 633 379 633 379 612 388 c 0,44,45
 606 390 606 390 567 397 c 1,46,-1
 567 421 l 1,47,-1
 773 421 l 1,48,-1
 773 397 l 1,49,50
 738 397 738 397 719 380 c 0,51,52
 708 370 708 370 665 298 c 0,53,54
 658 285 658 285 632 250 c 2,55,-1
 592 204 l 1,56,-1
 560 164 l 1,57,58
 594 119 594 119 623 93 c 0,59,60
 635 84 635 84 659 84 c 2,61,-1
 676 84 l 1,62,-1
 698 86 l 2,63,64
 721 86 721 86 738 100 c 0,65,66
 747 106 747 106 757 125 c 1,67,-1
 776 113 l 1,0,1
466 540 m 0,68,69
 466 576 466 576 440 620 c 0,70,71
 424 647 424 647 388 657 c 0,72,73
 377 660 377 660 365 660 c 0,74,75
 334 660 334 660 307 622 c 0,76,77
 295 606 295 606 293 587 c 0,78,79
 293 546 293 546 333 488 c 0,80,81
 347 466 347 466 367 439 c 1,82,83
 381 443 381 443 401 456 c 2,84,-1
 432 477 l 1,85,-1
 449 495 l 2,86,87
 466 517 466 517 466 540 c 0,68,69
442 101 m 1,88,-1
 377 192 l 1,89,-1
 267 356 l 1,90,-1
 244 343 l 1,91,-1
 212 321 l 2,92,93
 163 287 163 287 163 228 c 0,94,95
 163 188 163 188 190 138 c 0,96,97
 233 59 233 59 317 59 c 0,98,99
 353 59 353 59 398 74 c 1,100,-1
 417 84 l 1,101,-1
 442 101 l 1,88,-1
EndSplineSet
EndChar

StartChar: quotesingle
Encoding: 39 39 10
Width: 191
GlyphClass: 2
Flags: W
LayerCount: 2
Fore
SplineSet
144 596 m 1,0,-1
 121 462 l 1,1,-1
 66 462 l 1,2,-1
 44 596 l 1,3,-1
 44 716 l 1,4,-1
 144 716 l 1,5,-1
 144 596 l 1,0,-1
EndSplineSet
EndChar

StartChar: parenleft
Encoding: 40 40 11
Width: 333
GlyphClass: 2
Flags: W
LayerCount: 2
Fore
SplineSet
305 -169 m 1,0,1
 135 -83 135 -83 69 105 c 0,2,3
 46 171 46 171 46 253 c 0,4,5
 46 357 46 357 76 438 c 0,6,7
 84 459 84 459 103 496 c 0,8,9
 167 620 167 620 305 695 c 1,10,-1
 305 667 l 1,11,12
 226 613 226 613 199 554 c 0,13,14
 160 471 160 471 160 263 c 0,15,16
 160 61 160 61 200 -30 c 0,17,18
 225 -87 225 -87 305 -141 c 1,19,-1
 305 -169 l 1,0,1
EndSplineSet
EndChar

StartChar: parenright
Encoding: 41 41 12
Width: 333
GlyphClass: 2
Flags: W
LayerCount: 2
Fore
SplineSet
282 253 m 0,0,1
 282 69 282 69 146 -79 c 0,2,3
 128 -99 128 -99 87 -129 c 0,4,5
 43 -163 43 -163 23 -169 c 1,6,-1
 23 -141 l 1,7,8
 102 -89 102 -89 130 -28 c 0,9,10
 169 58 169 58 169 263 c 256,11,12
 169 468 169 468 129 554 c 0,13,14
 105 606 105 606 23 667 c 1,15,-1
 23 695 l 1,16,17
 217 586 217 586 267 384 c 0,18,19
 282 321 282 321 282 253 c 0,0,1
EndSplineSet
EndChar

StartChar: asterisk
Encoding: 42 42 13
Width: 500
GlyphClass: 2
Flags: W
LayerCount: 2
Fore
SplineSet
446 392 m 256,0,1
 446 349 446 349 398 343 c 0,2,3
 369 343 369 343 335 390 c 0,4,5
 296 444 296 444 265 454 c 1,6,-1
 259 450 l 1,7,8
 259 422 259 422 279 378 c 0,9,10
 300 330 300 330 302 309 c 0,11,12
 302 295 302 295 296 280 c 0,13,14
 286 262 286 262 250 257 c 0,15,16
 232 257 232 257 215 272 c 0,17,18
 202 288 202 288 202 309 c 0,19,20
 202 334 202 334 222.5 371 c 128,-1,21
 243 408 243 408 243 432 c 2,22,-1
 241 451 l 1,23,-1
 233 456 l 1,24,25
 194 429 194 429 163 384 c 0,26,27
 136 344 136 344 107 341 c 0,28,29
 88 341 88 341 72.5 355 c 128,-1,30
 57 369 57 369 57 388 c 0,31,32
 57 427 57 427 98 442 c 0,33,34
 109 445 109 445 130 446 c 2,35,-1
 165 447 l 2,36,37
 180 449 180 449 187 452 c 0,38,39
 201 455 201 455 226 473 c 1,40,-1
 226 481 l 1,41,42
 199 492 199 492 107 509 c 0,43,44
 54 519 54 519 54 560 c 0,45,46
 54 578 54 578 69 592.5 c 128,-1,47
 84 607 84 607 102 607 c 0,48,49
 139 607 139 607 160 573 c 0,50,51
 200 510 200 510 236 498 c 1,52,-1
 243 501 l 1,53,54
 243 533 243 533 221.5 579 c 128,-1,55
 200 625 200 625 200 642 c 0,56,57
 200 694 200 694 251 694 c 0,58,59
 270 694 270 694 286 678 c 0,60,61
 295 665 295 665 300 639 c 0,62,63
 300 627 300 627 294 614 c 2,64,-1
 280 583 l 1,65,-1
 266 538 l 2,66,67
 260 519 260 519 260 500 c 1,68,-1
 269 495 l 1,69,70
 290 510 290 510 335 566 c 0,71,72
 371 610 371 610 398 610 c 0,73,74
 418 610 418 610 432 595.5 c 128,-1,75
 446 581 446 581 446 561 c 0,76,77
 446 532 446 532 411 518 c 0,78,79
 397 512 397 512 339 500 c 0,80,81
 293 491 293 491 277 477 c 1,82,-1
 277 470 l 1,83,84
 298 458 298 458 389 444 c 0,85,86
 446 435 446 435 446 392 c 256,0,1
EndSplineSet
EndChar

StartChar: plus
Encoding: 43 43 14
Width: 570
GlyphClass: 2
Flags: W
LayerCount: 2
Fore
SplineSet
545 214 m 1,0,-1
 331 214 l 1,1,-1
 331 0 l 1,2,-1
 238 0 l 1,3,-1
 238 214 l 1,4,-1
 24 214 l 1,5,-1
 24 307 l 1,6,-1
 238 307 l 1,7,-1
 238 521 l 1,8,-1
 331 521 l 1,9,-1
 331 307 l 1,10,-1
 545 307 l 1,11,-1
 545 214 l 1,0,-1
EndSplineSet
EndChar

StartChar: comma
Encoding: 44 44 15
Width: 295
GlyphClass: 2
Flags: W
LayerCount: 2
Fore
SplineSet
248 33 m 0,0,1
 248 -75 248 -75 107 -154 c 1,2,-1
 97 -135 l 1,3,4
 189 -78 189 -78 189 -24 c 0,5,6
 189 -5 189 -5 172 -5 c 2,7,-1
 163 -5 l 1,8,-1
 157 -7 l 1,9,-1
 153 -7 l 2,10,11
 125 -7 125 -7 108.5 11.5 c 128,-1,12
 92 30 92 30 92 59 c 0,13,14
 92 91 92 91 110.5 111 c 128,-1,15
 129 131 129 131 161 131 c 0,16,17
 201 131 201 131 224.5 102.5 c 128,-1,18
 248 74 248 74 248 33 c 0,0,1
EndSplineSet
EndChar

StartChar: hyphen
Encoding: 45 45 16
Width: 333
GlyphClass: 2
Flags: W
LayerCount: 2
Fore
SplineSet
287 177 m 1,0,-1
 44 177 l 1,1,-1
 44 281 l 1,2,-1
 287 281 l 1,3,-1
 287 177 l 1,0,-1
EndSplineSet
EndChar

StartChar: period
Encoding: 46 46 17
Width: 265
GlyphClass: 2
Flags: W
LayerCount: 2
Fore
SplineSet
212 61 m 256,0,1
 212 31 212 31 191 10 c 128,-1,2
 170 -11 170 -11 140 -11 c 0,3,4
 108 -11 108 -11 88 9 c 128,-1,5
 68 29 68 29 68 61 c 0,6,7
 68 89 68 89 90 110.5 c 128,-1,8
 112 132 112 132 140 132 c 0,9,10
 170 132 170 132 191 111.5 c 128,-1,11
 212 91 212 91 212 61 c 256,0,1
EndSplineSet
EndChar

StartChar: slash
Encoding: 47 47 18
Width: 278
GlyphClass: 2
Flags: W
LayerCount: 2
Fore
SplineSet
292 692 m 1,0,-1
 58 -17 l 1,1,-1
 -14 -17 l 1,2,-1
 220 692 l 1,3,-1
 292 692 l 1,0,-1
EndSplineSet
EndChar

StartChar: zero
Encoding: 48 48 19
Width: 375
GlyphClass: 2
Flags: W
LayerCount: 2
Fore
SplineSet
349 254 m 0,0,1
 349 156 349 156 315 85 c 0,2,3
 270 -10 270 -10 183 -10 c 0,4,5
 105 -10 105 -10 51 85 c 0,6,7
 36 114 36 114 26 162 c 0,8,9
 17 207 17 207 17 244 c 0,10,11
 17 377 17 377 76 448 c 0,12,13
 122 506 122 506 183 506 c 0,14,15
 265 506 265 506 313 417 c 0,16,17
 349 346 349 346 349 254 c 0,0,1
261 255 m 0,18,19
 261 340 261 340 245 399 c 0,20,21
 225 475 225 475 180 475 c 0,22,23
 142 475 142 475 120 399 c 0,24,25
 102 338 102 338 102 255 c 0,26,27
 102 152 102 152 114 97 c 0,28,29
 132 10 132 10 184 10 c 0,30,31
 261 10 261 10 261 255 c 0,18,19
EndSplineSet
EndChar

StartChar: one
Encoding: 49 49 20
Width: 338
GlyphClass: 2
Flags: W
LayerCount: 2
Fore
SplineSet
295 0 m 1,0,-1
 63 0 l 1,1,-1
 63 18 l 1,2,3
 107 18 107 18 122 32.5 c 128,-1,4
 137 47 137 47 137 91 c 2,5,-1
 137 374 l 2,6,7
 137 399 137 399 135 406 c 0,8,9
 129 424 129 424 111 424 c 0,10,11
 103 424 103 424 89 419 c 2,12,-1
 62 406 l 1,13,-1
 62 425 l 1,14,-1
 218 505 l 1,15,-1
 227 505 l 1,16,-1
 227 86 l 2,17,18
 227 45 227 45 240 31.5 c 128,-1,19
 253 18 253 18 295 18 c 1,20,-1
 295 0 l 1,0,-1
EndSplineSet
EndChar

StartChar: two
Encoding: 50 50 21
Width: 370
GlyphClass: 2
Flags: W
LayerCount: 2
Fore
SplineSet
351 143 m 1,0,-1
 316 -1 l 1,1,-1
 10 -1 l 1,2,-1
 10 16 l 1,3,4
 69 79 69 79 164 193 c 0,5,6
 236 280 236 280 236 339 c 0,7,8
 236 378 236 378 210 405 c 0,9,10
 192 425 192 425 169 429 c 2,11,-1
 145 431 l 2,12,13
 109 431 109 431 82.5 410 c 128,-1,14
 56 389 56 389 49 353 c 1,15,-1
 23 353 l 1,16,17
 68 505 68 505 187 505 c 0,18,19
 244 505 244 505 281.5 464.5 c 128,-1,20
 319 424 319 424 319 366 c 0,21,22
 319 330 319 330 300 289 c 0,23,24
 291 270 291 270 236 210 c 2,25,-1
 124 92 l 1,26,-1
 124 85 l 1,27,-1
 229 85 l 2,28,29
 279 85 279 85 295 93 c 0,30,31
 316 103 316 103 333 143 c 1,32,-1
 351 143 l 1,0,-1
EndSplineSet
EndChar

StartChar: three
Encoding: 51 51 22
Width: 360
GlyphClass: 2
Flags: W
LayerCount: 2
Fore
SplineSet
344 182 m 0,0,1
 344 95 344 95 275 41 c 0,2,3
 211 -10 211 -10 122 -10 c 0,4,5
 81 -10 81 -10 51 3 c 0,6,7
 9 21 9 21 9 54 c 0,8,9
 9 73 9 73 25 85 c 0,10,11
 37 95 37 95 60 99 c 1,12,13
 93 99 93 99 113 62 c 0,14,15
 123 43 123 43 139 34.5 c 128,-1,16
 155 26 155 26 182 26 c 0,17,18
 193 26 193 26 214 32 c 0,19,20
 233 40 233 40 243 53 c 0,21,22
 270 88 270 88 270 126 c 0,23,24
 270 173 270 173 240 207 c 0,25,26
 214 236 214 236 178 244 c 2,27,-1
 111 262 l 1,28,-1
 111 273 l 1,29,30
 166 273 166 273 199 309 c 0,31,32
 225 333 225 333 225 371 c 0,33,34
 225 408 225 408 200.5 431 c 128,-1,35
 176 454 176 454 139 454 c 0,36,37
 78 454 78 454 43 385 c 1,38,-1
 26 392 l 1,39,40
 51 443 51 443 95.5 473.5 c 128,-1,41
 140 504 140 504 196 504 c 0,42,43
 241 504 241 504 276 478.5 c 128,-1,44
 311 453 311 453 316 408 c 1,45,46
 316 345 316 345 258 315 c 1,47,-1
 258 310 l 1,48,49
 299 294 299 294 321.5 259.5 c 128,-1,50
 344 225 344 225 344 182 c 0,0,1
EndSplineSet
EndChar

StartChar: four
Encoding: 52 52 23
Width: 367
GlyphClass: 2
Flags: W
LayerCount: 2
Fore
SplineSet
349 105 m 1,0,-1
 301 105 l 1,1,-1
 301 0 l 1,2,-1
 216 0 l 1,3,-1
 216 105 l 1,4,-1
 12 105 l 1,5,-1
 12 189 l 1,6,-1
 21 199 l 2,7,8
 22 201 22 201 39 227 c 2,9,-1
 116 335 l 1,10,-1
 243 505 l 1,11,-1
 301 505 l 1,12,-1
 301 181 l 1,13,-1
 349 181 l 1,14,-1
 349 105 l 1,0,-1
215 181 m 1,15,-1
 215 415 l 1,16,-1
 210 415 l 1,17,-1
 48 188 l 1,18,-1
 48 181 l 1,19,-1
 215 181 l 1,15,-1
EndSplineSet
EndChar

StartChar: five
Encoding: 53 53 24
Width: 364
GlyphClass: 2
Flags: W
LayerCount: 2
Fore
SplineSet
346 496 m 1,0,-1
 316 407 l 1,1,-1
 111 407 l 1,2,-1
 93 334 l 1,3,4
 171 334 171 334 231 312 c 0,5,6
 333 269 333 269 333 170 c 0,7,8
 333 86 333 86 267 38 c 0,9,10
 207 -10 207 -10 123 -10 c 0,11,12
 85 -10 85 -10 55 8 c 1,13,14
 17 24 17 24 17 57 c 0,15,16
 17 101 17 101 62 101 c 0,17,18
 90 101 90 101 124 59 c 0,19,20
 133 47 133 47 161 39 c 2,21,-1
 180 34 l 1,22,-1
 201 33 l 1,23,24
 230 38 230 38 251 57 c 0,25,26
 274 81 274 81 276 116 c 2,27,-1
 277 128 l 2,28,29
 279 163 279 163 255 190 c 0,30,31
 206 242 206 242 127 250 c 2,32,-1
 42 257 l 1,33,-1
 109 496 l 1,34,-1
 346 496 l 1,0,-1
EndSplineSet
EndChar

StartChar: six
Encoding: 54 54 25
Width: 368
GlyphClass: 2
Flags: W
LayerCount: 2
Fore
SplineSet
349 161 m 0,0,1
 349 85 349 85 305 39 c 0,2,3
 262 -10 262 -10 188 -10 c 0,4,5
 109 -10 109 -10 61 54 c 0,6,7
 21 111 21 111 21 197 c 0,8,9
 21 329 21 329 119.5 416.5 c 128,-1,10
 218 504 218 504 346 504 c 1,11,-1
 346 485 l 1,12,13
 267 471 267 471 217 424 c 0,14,15
 148 358 148 358 130 287 c 1,16,17
 147 300 147 300 185 306 c 0,18,19
 197 308 197 308 214 308 c 0,20,21
 278 308 278 308 315 266 c 0,22,23
 349 226 349 226 349 161 c 0,0,1
255 151 m 0,24,25
 255 194 255 194 239 229 c 0,26,27
 218 275 218 275 180 275 c 1,28,-1
 171 274 l 2,29,30
 142 271 142 271 129 238.5 c 128,-1,31
 116 206 116 206 116 142 c 0,32,33
 116 10 116 10 191 10 c 0,34,35
 255 10 255 10 255 151 c 0,24,25
EndSplineSet
EndChar

StartChar: seven
Encoding: 55 55 26
Width: 369
GlyphClass: 2
Flags: W
LayerCount: 2
Fore
SplineSet
351 496 m 1,0,-1
 178 -1 l 1,1,-1
 131 -1 l 1,2,-1
 271 406 l 1,3,-1
 113 406 l 2,4,5
 74 406 74 406 57 388 c 0,6,7
 45 375 45 375 29 333 c 1,8,-1
 11 333 l 1,9,-1
 45 496 l 1,10,-1
 351 496 l 1,0,-1
EndSplineSet
EndChar

StartChar: eight
Encoding: 56 56 27
Width: 368
GlyphClass: 2
Flags: W
LayerCount: 2
Fore
SplineSet
345 141 m 0,0,1
 345 73 345 73 298.5 31.5 c 128,-1,2
 252 -10 252 -10 171 -10 c 0,3,4
 106 -10 106 -10 65 21 c 0,5,6
 19 55 19 55 19 117 c 0,7,8
 19 200 19 200 123 237 c 1,9,10
 20 310 20 310 25 374 c 1,11,-1
 25 384 l 2,12,13
 28 441 28 441 78 473 c 0,14,15
 124 505 124 505 190 505 c 0,16,17
 249 505 249 505 289 480 c 0,18,19
 333 454 333 454 333 405 c 0,20,21
 333 365 333 365 305 334 c 0,22,23
 287 316 287 316 239 297 c 1,24,25
 285 260 285 260 309 235 c 0,26,27
 345 193 345 193 345 141 c 0,0,1
257 394 m 2,28,-1
 256 403 l 2,29,30
 251 484 251 484 180 484 c 0,31,32
 112 484 112 484 112 416 c 0,33,34
 112 351 112 351 215 313 c 1,35,36
 236 323 236 323 250 352 c 1,37,38
 259 380 259 380 257 394 c 2,28,-1
260 105 m 0,39,40
 256 150 256 150 214 182 c 1,41,-1
 144 221 l 1,42,43
 95 170 95 170 95 111 c 0,44,45
 95 14 95 14 180 14 c 0,46,47
 219 14 219 14 240 41 c 0,48,49
 260 66 260 66 260 105 c 0,39,40
EndSplineSet
EndChar

StartChar: nine
Encoding: 57 57 28
Width: 369
GlyphClass: 2
Flags: W
LayerCount: 2
Fore
SplineSet
347 297 m 0,0,1
 347 161 347 161 249 78 c 0,2,3
 161 3 161 3 23 -10 c 1,4,-1
 23 9 l 1,5,6
 99 23 99 23 148 69 c 0,7,8
 216 136 216 136 236 205 c 1,9,10
 212 185 212 185 153 185 c 0,11,12
 99 185 99 185 59 221 c 128,-1,13
 19 257 19 257 19 333 c 0,14,15
 19 406 19 406 62 455.5 c 128,-1,16
 105 505 105 505 178 505 c 0,17,18
 259 505 259 505 305 439 c 0,19,20
 347 381 347 381 347 297 c 0,0,1
252 351 m 0,21,22
 252 482 252 482 175 482 c 0,23,24
 111 482 111 482 111 344 c 0,25,26
 111 300 111 300 127 265 c 0,27,28
 147 219 147 219 186 219 c 2,29,-1
 194 219 l 1,30,31
 224 223 224 223 238 254 c 128,-1,32
 252 285 252 285 252 351 c 0,21,22
EndSplineSet
EndChar

StartChar: colon
Encoding: 58 58 29
Width: 327
GlyphClass: 2
Flags: W
LayerCount: 2
Fore
SplineSet
236 388 m 0,0,1
 236 358 236 358 215 337 c 128,-1,2
 194 316 194 316 164 316 c 0,3,4
 131 316 131 316 112 336 c 128,-1,5
 93 356 93 356 93 388 c 0,6,7
 93 419 93 419 113 439.5 c 128,-1,8
 133 460 133 460 164 460 c 0,9,10
 192 460 192 460 214 438 c 128,-1,11
 236 416 236 416 236 388 c 0,0,1
236 61 m 0,12,13
 236 31 236 31 215.5 10 c 128,-1,14
 195 -11 195 -11 165 -11 c 256,15,16
 135 -11 135 -11 114 10 c 128,-1,17
 93 31 93 31 93 61 c 0,18,19
 93 92 93 92 113.5 112 c 128,-1,20
 134 132 134 132 165 132 c 0,21,22
 192 132 192 132 214 110 c 128,-1,23
 236 88 236 88 236 61 c 0,12,13
EndSplineSet
EndChar

StartChar: semicolon
Encoding: 59 59 30
Width: 327
GlyphClass: 2
Flags: W
LayerCount: 2
Fore
SplineSet
236 388 m 0,0,1
 236 358 236 358 215 337 c 128,-1,2
 194 316 194 316 164 316 c 0,3,4
 131 316 131 316 112 336 c 128,-1,5
 93 356 93 356 93 388 c 0,6,7
 93 419 93 419 113 439.5 c 128,-1,8
 133 460 133 460 164 460 c 0,9,10
 192 460 192 460 214 438 c 128,-1,11
 236 416 236 416 236 388 c 0,0,1
248 33 m 0,12,13
 248 -75 248 -75 107 -154 c 1,14,-1
 97 -135 l 1,15,16
 189 -78 189 -78 189 -24 c 0,17,18
 189 -5 189 -5 172 -5 c 2,19,-1
 163 -5 l 1,20,-1
 157 -7 l 1,21,-1
 153 -7 l 2,22,23
 125 -7 125 -7 108.5 11.5 c 128,-1,24
 92 30 92 30 92 59 c 0,25,26
 92 91 92 91 110.5 111 c 128,-1,27
 129 131 129 131 161 131 c 0,28,29
 201 131 201 131 224.5 102.5 c 128,-1,30
 248 74 248 74 248 33 c 0,12,13
EndSplineSet
EndChar

StartChar: less
Encoding: 60 60 31
Width: 507
GlyphClass: 2
Flags: W
LayerCount: 2
Fore
SplineSet
390 55 m 1,0,-1
 346 11 l 1,1,-1
 129 228 l 1,2,-1
 346 443 l 1,3,-1
 390 400 l 1,4,-1
 217 228 l 1,5,-1
 390 55 l 1,0,-1
EndSplineSet
EndChar

StartChar: equal
Encoding: 61 61 32
Width: 570
GlyphClass: 2
Flags: W
LayerCount: 2
Fore
SplineSet
545 321 m 1,0,-1
 24 321 l 1,1,-1
 24 413 l 1,2,-1
 545 413 l 1,3,-1
 545 321 l 1,0,-1
545 107 m 1,4,-1
 24 107 l 1,5,-1
 24 200 l 1,6,-1
 545 200 l 1,7,-1
 545 107 l 1,4,-1
EndSplineSet
EndChar

StartChar: greater
Encoding: 62 62 33
Width: 507
GlyphClass: 2
Flags: W
LayerCount: 2
Fore
SplineSet
391 228 m 1,0,-1
 174 11 l 1,1,-1
 130 55 l 1,2,-1
 303 228 l 1,3,-1
 130 400 l 1,4,-1
 174 443 l 1,5,-1
 391 228 l 1,0,-1
EndSplineSet
EndChar

StartChar: question
Encoding: 63 63 34
Width: 502
GlyphClass: 2
Flags: W
LayerCount: 2
Fore
SplineSet
440 526 m 0,0,1
 440 433 440 433 356 381 c 2,2,-1
 304 349 l 2,3,4
 273 330 273 330 261 310 c 1,5,-1
 253 280 l 1,6,-1
 249 233 l 1,7,-1
 219 233 l 1,8,-1
 218 275 l 2,9,10
 217 311 217 311 254 385 c 1,11,-1
 300 454 l 2,12,13
 308 473 308 473 313 497 c 2,14,-1
 317 553 l 2,15,16
 320 597 320 597 289 627 c 0,17,18
 261 653 261 653 211 653 c 1,19,-1
 183 650 l 2,20,21
 167 648 167 648 150 629.5 c 128,-1,22
 133 611 133 611 133 595 c 0,23,24
 133 572 133 572 153.5 555.5 c 128,-1,25
 174 539 174 539 177 519 c 0,26,27
 177 470 177 470 121 470 c 0,28,29
 63 470 63 470 53 547 c 1,30,31
 53 614 53 614 115 655 c 0,32,33
 169 690 169 690 240 690 c 0,34,35
 323 690 323 690 378 650 c 0,36,37
 440 606 440 606 440 526 c 0,0,1
308 68 m 0,38,39
 308 38 308 38 287 17 c 128,-1,40
 266 -4 266 -4 236 -4 c 0,41,42
 204 -4 204 -4 185 16 c 0,43,44
 175 27 175 27 169 42 c 0,45,46
 165 52 165 52 165 68 c 0,47,48
 165 99 165 99 185 119 c 128,-1,49
 205 139 205 139 236 139 c 256,50,51
 267 139 267 139 287.5 119 c 128,-1,52
 308 99 308 99 308 68 c 0,38,39
EndSplineSet
EndChar

StartChar: at
Encoding: 64 64 35
Width: 1015
GlyphClass: 2
Flags: W
LayerCount: 2
Fore
SplineSet
979 9 m 1,0,1
 928 -110 928 -110 750 -179 c 1,2,-1
 658 -202 l 1,3,-1
 608 -208 l 1,4,-1
 548 -210 l 2,5,6
 450 -213 450 -213 350 -183 c 0,7,8
 261 -155 261 -155 198 -102 c 0,9,10
 130 -44 130 -44 95 30 c 0,11,12
 54 118 54 118 54 229 c 0,13,14
 54 357 54 357 110 470 c 0,15,16
 168 588 168 588 271 657 c 0,17,18
 379 729 379 729 538 729 c 0,19,20
 610 729 610 729 652 717 c 2,21,-1
 704 702 l 2,22,23
 730 695 730 695 755 679 c 0,24,25
 852 630 852 630 908 532 c 0,26,27
 955 449 955 449 955 348 c 0,28,29
 955 208 955 208 855 97 c 0,30,31
 765 -2 765 -2 661 -2 c 2,32,-1
 648 -2 l 1,33,-1
 629 0 l 2,34,35
 597 3 597 3 576 38 c 0,36,37
 570 48 570 48 567 80 c 1,38,39
 541 45 541 45 501 23 c 0,40,41
 458 -1 458 -1 417 -1 c 0,42,43
 319 -1 319 -1 268 103 c 0,44,45
 240 158 240 158 240 218 c 0,46,47
 240 293 240 293 279 370 c 128,-1,48
 318 447 318 447 379 488 c 128,-1,49
 440 529 440 529 494 529 c 0,50,51
 537 529 537 529 576 505.5 c 128,-1,52
 615 482 615 482 641 439 c 1,53,-1
 658 515 l 1,54,-1
 745 515 l 1,55,-1
 660 112 l 2,56,57
 660 100 660 100 670.5 90 c 128,-1,58
 681 80 681 80 694 80 c 0,59,60
 735 80 735 80 785 128 c 0,61,62
 827 169 827 169 849 213 c 0,63,64
 883 282 883 282 883 350 c 0,65,66
 883 435 883 435 838 505 c 128,-1,67
 793 575 793 575 716 615 c 0,68,69
 681 633 681 633 630 647 c 1,70,-1
 585 655 l 1,71,-1
 534 658 l 2,72,73
 430 664 430 664 326 606 c 0,74,75
 230 553 230 553 178 449.5 c 128,-1,76
 126 346 126 346 126 237 c 0,77,78
 126 122 126 122 174 38 c 0,79,80
 226 -53 226 -53 326 -95.5 c 128,-1,81
 426 -138 426 -138 547 -138 c 0,82,83
 782 -138 782 -138 891 9 c 1,84,-1
 979 9 l 1,0,1
613 317 m 0,85,86
 613 373 613 373 585 412 c 0,87,88
 553 457 553 457 500 457 c 0,89,90
 434 457 434 457 391 394 c 0,91,92
 364 354 364 354 346 303 c 0,93,94
 331 261 331 261 331 212 c 0,95,96
 331 158 331 158 355 118 c 0,97,98
 384 71 384 71 435 71 c 0,99,100
 508 71 508 71 564 155 c 0,101,102
 613 227 613 227 613 317 c 0,85,86
EndSplineSet
EndChar

StartChar: A
Encoding: 65 65 36
Width: 572
GlyphClass: 2
Flags: W
LayerCount: 2
Fore
SplineSet
146 180 m 1,0,1
 141 164 141 164 134.5 145 c 128,-1,2
 128 126 128 126 122 110 c 2,3,-1
 97 43 l 2,4,5
 93 31 93 31 89.5 19 c 128,-1,6
 86 7 86 7 84 -3 c 1,7,-1
 71 -1 l 1,8,-1
 66 -1 l 1,9,-1
 64 -1 l 2,10,11
 60 0 60 0 56 0 c 128,-1,12
 52 0 52 0 50 0 c 256,13,14
 48 0 48 0 43 0 c 128,-1,15
 38 0 38 0 34 -1 c 2,16,-1
 31 -1 l 1,17,-1
 28 -1 l 2,18,19
 26 -1 26 -1 25.5 -1.5 c 128,-1,20
 25 -2 25 -2 23 -2 c 2,21,-1
 131 260 l 1,22,-1
 265 586 l 1,23,24
 271 585 271 585 278.5 585 c 128,-1,25
 286 585 286 585 293 585 c 256,26,27
 300 585 300 585 306 585 c 128,-1,28
 312 585 312 585 320 586 c 1,29,-1
 557 -3 l 1,30,31
 531 -1 531 -1 516 -0.5 c 128,-1,32
 501 0 501 0 495 0 c 256,33,34
 489 0 489 0 472.5 -1 c 128,-1,35
 456 -2 456 -2 427 -4 c 1,36,37
 407 59 407 59 391.5 105 c 128,-1,38
 376 151 376 151 365 180 c 1,39,-1
 146 180 l 1,0,1
351 214 m 1,40,-1
 259 454 l 1,41,-1
 161 214 l 1,42,-1
 351 214 l 1,40,-1
EndSplineSet
EndChar

StartChar: B
Encoding: 66 66 37
Width: 523
GlyphClass: 2
Flags: W
LayerCount: 2
Fore
SplineSet
75 579 m 1,0,-1
 293 579 l 2,1,2
 330 579 330 579 360.5 572 c 128,-1,3
 391 565 391 565 413 551 c 0,4,5
 458 522 458 522 458 456 c 0,6,7
 459 429 459 429 447 406 c 128,-1,8
 435 383 435 383 415 366 c 128,-1,9
 395 349 395 349 368.5 338.5 c 128,-1,10
 342 328 342 328 314 325 c 1,11,-1
 314 299 l 1,12,13
 382 293 382 293 428 261 c 0,14,15
 472 232 472 232 472 161 c 0,16,17
 473 121 473 121 455.5 90.5 c 128,-1,18
 438 60 438 60 409.5 39.5 c 128,-1,19
 381 19 381 19 344.5 9 c 128,-1,20
 308 -1 308 -1 270 0 c 2,21,-1
 75 0 l 1,22,-1
 75 579 l 1,0,-1
188 321 m 1,23,-1
 221 321 l 2,24,25
 276 321 276 321 305 345 c 0,26,27
 346 381 346 381 346 444 c 0,28,29
 346 495 346 495 319 523 c 128,-1,30
 292 551 292 551 242 551 c 0,31,32
 230 551 230 551 216.5 550 c 128,-1,33
 203 549 203 549 188 547 c 1,34,-1
 188 321 l 1,23,-1
188 31 m 1,35,-1
 241 31 l 2,36,37
 261 31 261 31 281.5 39.5 c 128,-1,38
 302 48 302 48 318.5 64.5 c 128,-1,39
 335 81 335 81 345.5 104 c 128,-1,40
 356 127 356 127 355 156 c 0,41,42
 355 291 355 291 220 291 c 0,43,44
 215 291 215 291 209.5 290.5 c 128,-1,45
 204 290 204 290 199 290 c 0,46,47
 197 290 197 290 193.5 289.5 c 128,-1,48
 190 289 190 289 188 289 c 2,49,-1
 188 31 l 1,35,-1
EndSplineSet
EndChar

StartChar: C
Encoding: 67 67 38
Width: 572
GlyphClass: 2
Flags: W
LayerCount: 2
Fore
SplineSet
531 82 m 1,0,-1
 530 78 l 1,1,-1
 533 81 l 1,2,-1
 531 82 l 1,0,-1
462 37 m 0,3,4
 501 52 501 52 530 78 c 1,5,-1
 515 18 l 1,6,7
 444 -15 444 -15 351 -15 c 0,8,9
 283 -16 283 -16 223.5 4.5 c 128,-1,10
 164 25 164 25 120.5 63 c 128,-1,11
 77 101 77 101 52.5 154 c 128,-1,12
 28 207 28 207 28 271 c 0,13,14
 28 353 28 353 54.5 414 c 128,-1,15
 81 475 81 475 127.5 515.5 c 128,-1,16
 174 556 174 556 236.5 576 c 128,-1,17
 299 596 299 596 370 596 c 0,18,19
 413 596 413 596 461 584 c 0,20,21
 481 579 481 579 501 572 c 128,-1,22
 521 565 521 565 537 557 c 1,23,24
 534 547 534 547 532.5 540 c 128,-1,25
 531 533 531 533 528 522 c 0,26,27
 528 521 528 521 527.5 519.5 c 128,-1,28
 527 518 527 518 527 517 c 2,29,-1
 524 502 l 2,30,31
 523 497 523 497 522.5 491.5 c 128,-1,32
 522 486 522 486 520 481 c 1,33,-1
 521 480 l 1,34,35
 495 515 495 515 454 538 c 128,-1,36
 413 561 413 561 370 561 c 0,37,38
 314 561 314 561 273 537 c 128,-1,39
 232 513 232 513 206 474 c 128,-1,40
 180 435 180 435 167.5 385 c 128,-1,41
 155 335 155 335 156 283 c 0,42,43
 155 224 155 224 169.5 175 c 128,-1,44
 184 126 184 126 212.5 90.5 c 128,-1,45
 241 55 241 55 281.5 35.5 c 128,-1,46
 322 16 322 16 374 17 c 0,47,48
 414 17 414 17 462 37 c 0,3,4
EndSplineSet
EndChar

StartChar: D
Encoding: 68 68 39
Width: 667
GlyphClass: 2
Flags: W
LayerCount: 2
Fore
SplineSet
370 579 m 1,0,1
 434 574 434 574 482 550.5 c 128,-1,2
 530 527 530 527 562.5 490.5 c 128,-1,3
 595 454 595 454 611 406.5 c 128,-1,4
 627 359 627 359 627 307 c 0,5,6
 628 236 628 236 604 179 c 128,-1,7
 580 122 580 122 537.5 82 c 128,-1,8
 495 42 495 42 438 20.5 c 128,-1,9
 381 -1 381 -1 316 0 c 2,10,-1
 79 0 l 1,11,-1
 79 579 l 1,12,-1
 370 579 l 1,0,1
192 31 m 1,13,-1
 277 31 l 2,14,15
 328 31 328 31 369.5 48 c 128,-1,16
 411 65 411 65 440 95 c 0,17,18
 469 127 469 127 484.5 181.5 c 128,-1,19
 500 236 500 236 500 308 c 0,20,21
 500 435 500 435 444 491.5 c 128,-1,22
 388 548 388 548 288 548 c 2,23,-1
 192 548 l 1,24,-1
 192 31 l 1,13,-1
EndSplineSet
EndChar

StartChar: E
Encoding: 69 69 40
Width: 428
GlyphClass: 2
Flags: W
LayerCount: 2
Fore
SplineSet
389 579 m 1,0,1
 387 568 387 568 387 561.5 c 128,-1,2
 387 555 387 555 387 551 c 0,3,4
 387 548 387 548 387 541.5 c 128,-1,5
 387 535 387 535 389 524 c 1,6,7
 344 530 344 530 294.5 532.5 c 128,-1,8
 245 535 245 535 187 535 c 1,9,-1
 187 328 l 1,10,-1
 289 328 l 2,11,12
 311 328 311 328 335.5 329.5 c 128,-1,13
 360 331 360 331 385 333 c 1,14,15
 384 324 384 324 383.5 317.5 c 128,-1,16
 383 311 383 311 383 307 c 0,17,18
 383 302 383 302 383.5 296.5 c 128,-1,19
 384 291 384 291 385 280 c 1,20,21
 361 283 361 283 335.5 285 c 128,-1,22
 310 287 310 287 289 287 c 2,23,-1
 187 287 l 1,24,-1
 187 44 l 1,25,26
 248 44 248 44 298 46.5 c 128,-1,27
 348 49 348 49 389 54 c 1,28,29
 387 43 387 43 387 37 c 128,-1,30
 387 31 387 31 387 28 c 256,31,32
 387 25 387 25 387 17.5 c 128,-1,33
 387 10 387 10 389 0 c 1,34,-1
 75 0 l 1,35,-1
 75 579 l 1,36,-1
 389 579 l 1,0,1
EndSplineSet
EndChar

StartChar: F
Encoding: 70 70 41
Width: 428
GlyphClass: 2
Flags: W
LayerCount: 2
Fore
SplineSet
187 -4 m 1,0,1
 162 -2 162 -2 149.5 -1 c 128,-1,2
 137 0 137 0 131 0 c 0,3,4
 126 0 126 0 112 -1 c 128,-1,5
 98 -2 98 -2 75 -4 c 1,6,-1
 75 579 l 1,7,-1
 389 579 l 1,8,9
 387 568 387 568 387 561.5 c 128,-1,10
 387 555 387 555 387 551 c 0,11,12
 387 548 387 548 387 541.5 c 128,-1,13
 387 535 387 535 389 524 c 1,14,15
 366 528 366 528 347.5 529 c 128,-1,16
 329 530 329 530 307 532 c 0,17,18
 284 534 284 534 253 534.5 c 128,-1,19
 222 535 222 535 187 535 c 1,20,-1
 187 328 l 1,21,-1
 291 328 l 2,22,23
 309 328 309 328 333.5 329.5 c 128,-1,24
 358 331 358 331 385 333 c 1,25,26
 384 324 384 324 383.5 317.5 c 128,-1,27
 383 311 383 311 383 307 c 256,28,29
 383 303 383 303 383.5 296 c 128,-1,30
 384 289 384 289 385 279 c 1,31,32
 350 283 350 283 326.5 285 c 128,-1,33
 303 287 303 287 290 287 c 2,34,-1
 187 287 l 1,35,-1
 187 -4 l 1,0,1
EndSplineSet
EndChar

StartChar: G
Encoding: 71 71 42
Width: 667
GlyphClass: 2
Flags: W
LayerCount: 2
Fore
SplineSet
576 471 m 2,0,1
 575 471 575 471 575 472 c 2,2,-1
 576 471 l 2,0,1
609 22 m 1,3,4
 542 4 542 4 487.5 -5.5 c 128,-1,5
 433 -15 433 -15 384 -15 c 0,6,7
 315 -15 315 -15 253 2.5 c 128,-1,8
 191 20 191 20 144 56 c 128,-1,9
 97 92 97 92 69.5 146.5 c 128,-1,10
 42 201 42 201 43 274 c 0,11,12
 42 352 42 352 69 412.5 c 128,-1,13
 96 473 96 473 143.5 514 c 128,-1,14
 191 555 191 555 256 576 c 128,-1,15
 321 597 321 597 395 596 c 0,16,17
 450 596 450 596 499 583.5 c 128,-1,18
 548 571 548 571 596 547 c 1,19,20
 588 529 588 529 583 509.5 c 128,-1,21
 578 490 578 490 575 472 c 1,22,23
 543 517 543 517 497 539 c 128,-1,24
 451 561 451 561 397 561 c 0,25,26
 340 561 340 561 297.5 537.5 c 128,-1,27
 255 514 255 514 226 474.5 c 128,-1,28
 197 435 197 435 182.5 382.5 c 128,-1,29
 168 330 168 330 168 272 c 0,30,31
 168 152 168 152 226.5 84.5 c 128,-1,32
 285 17 285 17 389 17 c 0,33,34
 447 17 447 17 496 46 c 1,35,-1
 496 247 l 1,36,37
 524 245 524 245 535.5 244 c 128,-1,38
 547 243 547 243 552 243 c 256,39,40
 557 243 557 243 572.5 244 c 128,-1,41
 588 245 588 245 609 247 c 1,42,-1
 609 22 l 1,3,4
EndSplineSet
EndChar

StartChar: H
Encoding: 72 72 43
Width: 667
GlyphClass: 2
Flags: W
LayerCount: 2
Fore
SplineSet
81 578 m 1,0,1
 109 576 109 576 120.5 575.5 c 128,-1,2
 132 575 132 575 137 575 c 256,3,4
 142 575 142 575 157.5 575.5 c 128,-1,5
 173 576 173 576 194 578 c 1,6,-1
 194 341 l 1,7,8
 251 339 251 339 288.5 337.5 c 128,-1,9
 326 336 326 336 337 336 c 256,10,11
 348 336 348 336 386.5 337.5 c 128,-1,12
 425 339 425 339 482 341 c 1,13,-1
 482 578 l 1,14,15
 509 576 509 576 521 575.5 c 128,-1,16
 533 575 533 575 538 575 c 256,17,18
 543 575 543 575 558.5 575.5 c 128,-1,19
 574 576 574 576 594 578 c 1,20,-1
 594 -4 l 1,21,22
 572 -2 572 -2 557.5 -1 c 128,-1,23
 543 0 543 0 538 0 c 256,24,25
 533 0 533 0 518.5 -1 c 128,-1,26
 504 -2 504 -2 482 -4 c 1,27,-1
 482 291 l 1,28,29
 425 293 425 293 386.5 293.5 c 128,-1,30
 348 294 348 294 337 294 c 256,31,32
 326 294 326 294 288.5 293.5 c 128,-1,33
 251 293 251 293 194 291 c 1,34,-1
 194 -4 l 1,35,36
 171 -2 171 -2 156.5 -1 c 128,-1,37
 142 0 142 0 137 0 c 256,38,39
 132 0 132 0 117.5 -1 c 128,-1,40
 103 -2 103 -2 81 -4 c 1,41,-1
 81 578 l 1,0,1
EndSplineSet
EndChar

StartChar: I
Encoding: 73 73 44
Width: 285
GlyphClass: 2
Flags: W
LayerCount: 2
Fore
SplineSet
87 578 m 1,0,1
 114 576 114 576 126 575.5 c 128,-1,2
 138 575 138 575 143 575 c 256,3,4
 148 575 148 575 164 575.5 c 128,-1,5
 180 576 180 576 200 578 c 1,6,-1
 200 -4 l 1,7,8
 178 -2 178 -2 163.5 -1 c 128,-1,9
 149 0 149 0 143 0 c 0,10,11
 138 0 138 0 124 -1 c 128,-1,12
 110 -2 110 -2 87 -4 c 1,13,-1
 87 578 l 1,0,1
EndSplineSet
EndChar

StartChar: J
Encoding: 74 74 45
Width: 285
GlyphClass: 2
Flags: W
LayerCount: 2
Fore
SplineSet
209 108 m 2,0,1
 209 56 209 56 204 18.5 c 128,-1,2
 199 -19 199 -19 182 -45 c 0,3,4
 159 -85 159 -85 122 -108 c 128,-1,5
 85 -131 85 -131 31 -140 c 1,6,7
 29 -134 29 -134 28.5 -131.5 c 128,-1,8
 28 -129 28 -129 26 -124 c 0,9,10
 25 -123 25 -123 24.5 -120.5 c 128,-1,11
 24 -118 24 -118 23 -116 c 1,12,13
 67 -100 67 -100 82 -56 c 0,14,15
 89 -35 89 -35 93 -3 c 128,-1,16
 97 29 97 29 97 67 c 2,17,-1
 97 578 l 1,18,19
 124 576 124 576 135.5 575.5 c 128,-1,20
 147 575 147 575 153 575 c 0,21,22
 158 575 158 575 173 575.5 c 128,-1,23
 188 576 188 576 209 578 c 1,24,-1
 209 108 l 2,0,1
EndSplineSet
EndChar

StartChar: K
Encoding: 75 75 46
Width: 523
GlyphClass: 2
Flags: W
LayerCount: 2
Fore
SplineSet
514 -10 m 1,0,-1
 514 -5 l 1,1,-1
 513 -4 l 2,2,3
 515 -5 515 -5 520 -5 c 2,4,-1
 514 -10 l 1,0,-1
182 295 m 1,5,-1
 186 291 l 1,6,-1
 182 287 l 1,7,-1
 182 295 l 1,5,-1
507 587 m 1,8,-1
 510 579 l 2,9,10
 508 579 508 579 505.5 578.5 c 128,-1,11
 503 578 503 578 501 578 c 0,12,13
 500 578 500 578 499.5 577.5 c 128,-1,14
 499 577 499 577 498 577 c 2,15,-1
 507 587 l 1,8,-1
186 291 m 1,16,17
 247 362 247 362 310 438 c 128,-1,18
 373 514 373 514 425 578 c 1,19,20
 458 575 458 575 468 575 c 0,21,22
 471 575 471 575 479 575 c 128,-1,23
 487 575 487 575 498 577 c 1,24,-1
 364 437 l 1,25,-1
 355 427 l 2,26,27
 347 419 347 419 337.5 409.5 c 128,-1,28
 328 400 328 400 317 387 c 1,29,-1
 318 387 l 1,30,31
 313 381 313 381 308 375.5 c 128,-1,32
 303 370 303 370 299 366 c 1,33,-1
 299 367 l 1,34,35
 292 358 292 358 284.5 349.5 c 128,-1,36
 277 341 277 341 275 339 c 0,37,38
 333 253 333 253 393.5 167 c 128,-1,39
 454 81 454 81 513 -4 c 1,40,41
 490 -2 490 -2 476.5 -1 c 128,-1,42
 463 0 463 0 457 0 c 0,43,44
 452 0 452 0 435.5 -1 c 128,-1,45
 419 -2 419 -2 396 -4 c 1,46,-1
 186 291 l 1,16,17
70 578 m 1,47,48
 97 576 97 576 109 575.5 c 128,-1,49
 121 575 121 575 126 575 c 256,50,51
 131 575 131 575 146.5 575.5 c 128,-1,52
 162 576 162 576 182 578 c 1,53,-1
 182 -4 l 1,54,55
 160 -2 160 -2 146 -1 c 128,-1,56
 132 0 132 0 126 0 c 0,57,58
 121 0 121 0 107 -1 c 128,-1,59
 93 -2 93 -2 70 -4 c 1,60,-1
 70 578 l 1,47,48
EndSplineSet
EndChar

StartChar: L
Encoding: 76 76 47
Width: 428
GlyphClass: 2
Flags: W
LayerCount: 2
Fore
SplineSet
189 44 m 1,0,1
 215 44 215 44 245 44.5 c 128,-1,2
 275 45 275 45 298 47 c 2,3,-1
 345 50 l 1,4,-1
 389 54 l 1,5,6
 387 44 387 44 387 37.5 c 128,-1,7
 387 31 387 31 387 28 c 256,8,9
 387 25 387 25 387 17.5 c 128,-1,10
 387 10 387 10 389 0 c 1,11,-1
 77 0 l 1,12,-1
 77 578 l 1,13,14
 104 576 104 576 115.5 575.5 c 128,-1,15
 127 575 127 575 132 575 c 0,16,17
 138 575 138 575 153 575.5 c 128,-1,18
 168 576 168 576 189 578 c 1,19,-1
 189 44 l 1,0,1
EndSplineSet
EndChar

StartChar: M
Encoding: 77 77 48
Width: 762
GlyphClass: 2
Flags: W
LayerCount: 2
Fore
SplineSet
598 579 m 1,0,-1
 597 587 l 1,1,-1
 594 585 l 1,2,-1
 595 589 l 1,3,-1
 597 588 l 1,4,-1
 598 588 l 1,5,-1
 597 587 l 1,6,-1
 602 583 l 1,7,-1
 598 579 l 1,0,-1
545 484 m 0,8,9
 556 504 556 504 565 523.5 c 128,-1,10
 574 543 574 543 582 561 c 2,11,-1
 596 589 l 1,12,13
 611 586 611 586 619.5 585 c 128,-1,14
 628 584 628 584 632 584 c 256,15,16
 636 584 636 584 656 587 c 2,17,-1
 669 588 l 1,18,-1
 693 378 l 1,19,-1
 708 256 l 2,20,21
 716 188 716 188 726.5 116.5 c 128,-1,22
 737 45 737 45 747 -14 c 1,23,24
 711 -11 711 -11 695 -10.5 c 128,-1,25
 679 -10 679 -10 674 -10 c 256,26,27
 669 -10 669 -10 650.5 -11 c 128,-1,28
 632 -12 632 -12 603 -14 c 1,29,30
 600 34 600 34 596 88 c 128,-1,31
 592 142 592 142 587 185 c 2,32,-1
 577 276 l 1,33,-1
 564 395 l 1,34,-1
 517 298 l 1,35,-1
 465 192 l 2,36,37
 458 179 458 179 451 164.5 c 128,-1,38
 444 150 444 150 436 133 c 0,39,40
 433 127 433 127 430 120.5 c 128,-1,41
 427 114 427 114 425 109 c 0,42,43
 423 106 423 106 421.5 101.5 c 128,-1,44
 420 97 420 97 418 94 c 2,45,-1
 414 86 l 1,46,-1
 409 75 l 1,47,-1
 370 -10 l 1,48,-1
 336 -10 l 1,49,50
 331 4 331 4 318 30.5 c 128,-1,51
 305 57 305 57 292 84 c 2,52,-1
 244 181 l 1,53,-1
 224 221 l 2,54,55
 217 236 217 236 209 252.5 c 128,-1,56
 201 269 201 269 194 284 c 2,57,-1
 143 387 l 1,58,59
 126 257 126 257 117 157.5 c 128,-1,60
 108 58 108 58 106 -14 c 1,61,62
 90 -12 90 -12 79.5 -11 c 128,-1,63
 69 -10 69 -10 66 -10 c 0,64,65
 64 -10 64 -10 54 -10.5 c 128,-1,66
 44 -11 44 -11 26 -14 c 1,67,68
 43 83 43 83 65 233 c 128,-1,69
 87 383 87 383 114 589 c 1,70,-1
 133 586 l 2,71,72
 141 585 141 585 144.5 584.5 c 128,-1,73
 148 584 148 584 150 584 c 0,74,75
 153 584 153 584 162.5 585.5 c 128,-1,76
 172 587 172 587 187 589 c 1,77,78
 216 526 216 526 266.5 424 c 128,-1,79
 317 322 317 322 389 176 c 1,80,-1
 439 271 l 2,81,82
 451 294 451 294 461.5 315.5 c 128,-1,83
 472 337 472 337 483 355 c 1,84,-1
 483 354 l 1,85,-1
 496 383 l 2,86,87
 508 406 508 406 520.5 432 c 128,-1,88
 533 458 533 458 545 484 c 0,8,9
EndSplineSet
EndChar

StartChar: N
Encoding: 78 78 49
Width: 667
GlyphClass: 2
Flags: W
LayerCount: 2
Fore
SplineSet
80 579 m 1,0,-1
 153 579 l 1,1,2
 173 557 173 557 194.5 534 c 128,-1,3
 216 511 216 511 237 488 c 2,4,-1
 333 384 l 2,5,6
 356 361 356 361 379 336 c 128,-1,7
 402 311 402 311 425 288 c 2,8,-1
 437 274 l 2,9,10
 449 261 449 261 463 245 c 128,-1,11
 477 229 477 229 491.5 212.5 c 128,-1,12
 506 196 506 196 520 179.5 c 128,-1,13
 534 163 534 163 546 150 c 1,14,-1
 546 578 l 1,15,16
 554 577 554 577 558.5 577 c 128,-1,17
 563 577 563 577 572 577 c 0,18,19
 578 577 578 577 584 577 c 128,-1,20
 590 577 590 577 597 578 c 1,21,-1
 597 -5 l 1,22,-1
 568 -5 l 2,23,24
 560 -5 560 -5 552 -4.5 c 128,-1,25
 544 -4 544 -4 536 -4 c 1,26,27
 510 24 510 24 483 54.5 c 128,-1,28
 456 85 456 85 429.5 114.5 c 128,-1,29
 403 144 403 144 378.5 171 c 128,-1,30
 354 198 354 198 333 221 c 0,31,32
 311 246 311 246 288.5 270.5 c 128,-1,33
 266 295 266 295 242 319 c 2,34,-1
 130 437 l 1,35,-1
 130 -2 l 1,36,-1
 125 -2 l 2,37,38
 120 -1 120 -1 113.5 -0.5 c 128,-1,39
 107 0 107 0 104 0 c 0,40,41
 103 0 103 0 99 0 c 128,-1,42
 95 0 95 0 92 -1 c 2,43,-1
 90 -1 l 1,44,-1
 85 -1 l 1,45,-1
 80 -2 l 1,46,-1
 80 579 l 1,0,-1
EndSplineSet
EndChar

StartChar: O
Encoding: 79 79 50
Width: 714
GlyphClass: 2
Flags: W
LayerCount: 2
Fore
SplineSet
351 -15 m 0,0,1
 280 -15 280 -15 222 5.5 c 128,-1,2
 164 26 164 26 122.5 65 c 128,-1,3
 81 104 81 104 58 160.5 c 128,-1,4
 35 217 35 217 35 289 c 0,5,6
 34 352 34 352 57.5 408.5 c 128,-1,7
 81 465 81 465 125 507 c 128,-1,8
 169 549 169 549 232 573 c 128,-1,9
 295 597 295 597 372 596 c 0,10,11
 460 596 460 596 521 569 c 128,-1,12
 582 542 582 542 619 496 c 0,13,14
 655 451 655 451 671 398.5 c 128,-1,15
 687 346 687 346 688 292 c 0,16,17
 689 229 689 229 665.5 173 c 128,-1,18
 642 117 642 117 597.5 75 c 128,-1,19
 553 33 553 33 490.5 8.5 c 128,-1,20
 428 -16 428 -16 351 -15 c 0,0,1
162 263 m 0,21,22
 162 217 162 217 173.5 172.5 c 128,-1,23
 185 128 185 128 209 93 c 128,-1,24
 233 58 233 58 269.5 37 c 128,-1,25
 306 16 306 16 356 17 c 0,26,27
 407 16 407 16 445.5 40 c 128,-1,28
 484 64 484 64 510 104.5 c 128,-1,29
 536 145 536 145 548.5 198 c 128,-1,30
 561 251 561 251 561 309 c 0,31,32
 561 355 561 355 549.5 400.5 c 128,-1,33
 538 446 538 446 514 482 c 128,-1,34
 490 518 490 518 453.5 540 c 128,-1,35
 417 562 417 562 368 561 c 0,36,37
 271 561 271 561 216.5 488 c 128,-1,38
 162 415 162 415 162 263 c 0,21,22
EndSplineSet
EndChar

StartChar: P
Encoding: 80 80 51
Width: 476
GlyphClass: 2
Flags: W
LayerCount: 2
Fore
SplineSet
182 -4 m 1,0,1
 160 -2 160 -2 145.5 -1 c 128,-1,2
 131 0 131 0 125 0 c 0,3,4
 120 0 120 0 106 -1 c 128,-1,5
 92 -2 92 -2 69 -4 c 1,6,-1
 69 579 l 1,7,-1
 276 579 l 2,8,9
 364 579 364 579 409.5 544 c 128,-1,10
 455 509 455 509 455 441 c 0,11,12
 455 387 455 387 436.5 351.5 c 128,-1,13
 418 316 418 316 385 296 c 0,14,15
 348 276 348 276 299 268 c 128,-1,16
 250 260 250 260 182 260 c 1,17,-1
 182 -4 l 1,0,1
182 290 m 1,18,19
 209 291 209 291 226 292 c 128,-1,20
 243 293 243 293 252 295 c 0,21,22
 297 308 297 308 317 342.5 c 128,-1,23
 337 377 337 377 337 425 c 0,24,25
 337 477 337 477 313 515 c 1,26,27
 284 551 284 551 246 551 c 2,28,-1
 182 551 l 1,29,-1
 182 290 l 1,18,19
EndSplineSet
EndChar

StartChar: Q
Encoding: 81 81 52
Width: 714
GlyphClass: 2
Flags: W
LayerCount: 2
Fore
SplineSet
160 263 m 0,0,1
 160 217 160 217 171 172.5 c 128,-1,2
 182 128 182 128 206 93 c 128,-1,3
 230 58 230 58 266.5 37 c 128,-1,4
 303 16 303 16 353 17 c 0,5,6
 401 17 401 17 439 38.5 c 128,-1,7
 477 60 477 60 504 98.5 c 128,-1,8
 531 137 531 137 545 190.5 c 128,-1,9
 559 244 559 244 559 309 c 0,10,11
 559 355 559 355 547.5 400.5 c 128,-1,12
 536 446 536 446 511.5 482 c 128,-1,13
 487 518 487 518 450.5 540 c 128,-1,14
 414 562 414 562 365 561 c 0,15,16
 309 561 309 561 270 539 c 128,-1,17
 231 517 231 517 206.5 478 c 128,-1,18
 182 439 182 439 171 384 c 128,-1,19
 160 329 160 329 160 263 c 0,0,1
351 -15 m 1,20,21
 280 -16 280 -16 221 4.5 c 128,-1,22
 162 25 162 25 120 64.5 c 128,-1,23
 78 104 78 104 55 160.5 c 128,-1,24
 32 217 32 217 33 289 c 0,25,26
 33 384 33 384 77 451 c 0,27,28
 121 521 121 521 199 558 c 0,29,30
 238 576 238 576 280 586 c 128,-1,31
 322 596 322 596 370 596 c 0,32,33
 441 596 441 596 499 574 c 128,-1,34
 557 552 557 552 598.5 512 c 128,-1,35
 640 472 640 472 662.5 416 c 128,-1,36
 685 360 685 360 685 292 c 0,37,38
 685 239 685 239 668.5 192.5 c 128,-1,39
 652 146 652 146 621.5 107.5 c 128,-1,40
 591 69 591 69 547.5 40 c 128,-1,41
 504 11 504 11 449 -7 c 1,42,43
 497 -36 497 -36 556 -72.5 c 128,-1,44
 615 -109 615 -109 672 -141 c 1,45,46
 647 -146 647 -146 622.5 -156.5 c 128,-1,47
 598 -167 598 -167 577 -181 c 1,48,49
 533 -147 533 -147 503 -124 c 128,-1,50
 473 -101 473 -101 448 -84 c 2,51,-1
 351 -15 l 1,20,21
EndSplineSet
EndChar

StartChar: R
Encoding: 82 82 53
Width: 523
GlyphClass: 2
Flags: W
LayerCount: 2
Fore
SplineSet
71 579 m 1,0,-1
 250 579 l 2,1,2
 352 579 352 579 388 562 c 1,3,-1
 387 562 l 1,4,5
 458 525 458 525 458 446 c 0,6,7
 458 386 458 386 420 347 c 128,-1,8
 382 308 382 308 316 294 c 1,9,10
 327 276 327 276 341 251.5 c 128,-1,11
 355 227 355 227 367 208 c 0,12,13
 378 191 378 191 391.5 170 c 128,-1,14
 405 149 405 149 421 124 c 2,15,-1
 427 116 l 1,16,-1
 451 78 l 2,17,18
 458 68 458 68 465 56.5 c 128,-1,19
 472 45 472 45 479 35 c 2,20,-1
 503 -3 l 1,21,22
 469 -1 469 -1 458.5 -0.5 c 128,-1,23
 448 0 448 0 441 0 c 256,24,25
 434 0 434 0 416.5 -1 c 128,-1,26
 399 -2 399 -2 368 -4 c 1,27,28
 355 18 355 18 342.5 39 c 128,-1,29
 330 60 330 60 317 84 c 0,30,31
 303 107 303 107 290.5 130 c 128,-1,32
 278 153 278 153 266 176 c 0,33,34
 261 184 261 184 254 196.5 c 128,-1,35
 247 209 247 209 237 225 c 2,36,-1
 206 277 l 1,37,-1
 184 277 l 1,38,-1
 184 -4 l 1,39,40
 162 -2 162 -2 148 -1 c 128,-1,41
 134 0 134 0 128 0 c 0,42,43
 123 0 123 0 108.5 -1 c 128,-1,44
 94 -2 94 -2 71 -4 c 1,45,-1
 71 579 l 1,0,-1
184 297 m 1,46,47
 192 295 192 295 200.5 295 c 128,-1,48
 209 295 209 295 216 295 c 0,49,50
 342 295 342 295 342 431 c 0,51,52
 342 442 342 442 340.5 454 c 128,-1,53
 339 466 339 466 337 478 c 0,54,55
 332 498 332 498 321.5 514.5 c 128,-1,56
 311 531 311 531 296 538 c 0,57,58
 269 551 269 551 220 551 c 2,59,-1
 184 551 l 1,60,-1
 184 297 l 1,46,47
EndSplineSet
EndChar

StartChar: S
Encoding: 83 83 54
Width: 428
GlyphClass: 2
Flags: W
LayerCount: 2
Fore
SplineSet
346 485 m 2,0,1
 345 486 345 486 345 487 c 2,2,-1
 345 485 l 1,3,-1
 346 485 l 2,0,1
370 560 m 1,4,5
 365 545 365 545 358.5 528 c 128,-1,6
 352 511 352 511 345 487 c 1,7,8
 316 561 316 561 237 561 c 0,9,10
 132 561 132 561 132 465 c 0,11,12
 132 422 132 422 161 402 c 0,13,14
 175 391 175 391 200.5 376.5 c 128,-1,15
 226 362 226 362 260 344 c 0,16,17
 296 326 296 326 322.5 307 c 128,-1,18
 349 288 349 288 366 269 c 0,19,20
 399 231 399 231 399 168 c 0,21,22
 400 129 400 129 383 95 c 128,-1,23
 366 61 366 61 336 36.5 c 128,-1,24
 306 12 306 12 264.5 -2 c 128,-1,25
 223 -16 223 -16 176 -15 c 0,26,27
 139 -15 139 -15 106 -7 c 128,-1,28
 73 1 73 1 46 15 c 1,29,30
 53 42 53 42 59 68 c 128,-1,31
 65 94 65 94 68 114 c 1,32,33
 81 69 81 69 115.5 43 c 128,-1,34
 150 17 150 17 197 17 c 0,35,36
 220 17 220 17 240.5 24 c 128,-1,37
 261 31 261 31 275 43 c 0,38,39
 310 73 310 73 310 118 c 0,40,41
 310 169 310 169 276 194 c 0,42,43
 262 205 262 205 237 218.5 c 128,-1,44
 212 232 212 232 179 249 c 0,45,46
 146 264 146 264 121 281.5 c 128,-1,47
 96 299 96 299 79 316 c 0,48,49
 65 334 65 334 56 361 c 128,-1,50
 47 388 47 388 47 420 c 0,51,52
 47 456 47 456 59.5 488 c 128,-1,53
 72 520 72 520 97 544 c 128,-1,54
 122 568 122 568 158 582 c 128,-1,55
 194 596 194 596 241 596 c 0,56,57
 285 596 285 596 322 582 c 0,58,59
 336 577 336 577 349 571 c 128,-1,60
 362 565 362 565 370 560 c 1,4,5
EndSplineSet
EndChar

StartChar: T
Encoding: 84 84 55
Width: 476
GlyphClass: 2
Flags: W
LayerCount: 2
Fore
SplineSet
300 -4 m 1,0,1
 278 -2 278 -2 263.5 -1 c 128,-1,2
 249 0 249 0 243 0 c 0,3,4
 238 0 238 0 224 -1 c 128,-1,5
 210 -2 210 -2 187 -4 c 1,6,-1
 187 536 l 1,7,8
 148 536 148 536 108.5 533.5 c 128,-1,9
 69 531 69 531 26 525 c 1,10,-1
 26 527 l 2,11,12
 28 535 28 535 28 542 c 128,-1,13
 28 549 28 549 28 552 c 0,14,15
 28 556 28 556 28 562 c 128,-1,16
 28 568 28 568 26 579 c 1,17,-1
 455 579 l 1,18,19
 454 569 454 569 453.5 562.5 c 128,-1,20
 453 556 453 556 453 552 c 0,21,22
 453 549 453 549 453.5 542.5 c 128,-1,23
 454 536 454 536 455 525 c 1,24,25
 407 531 407 531 368.5 533.5 c 128,-1,26
 330 536 330 536 300 536 c 1,27,-1
 300 -4 l 1,0,1
EndSplineSet
EndChar

StartChar: U
Encoding: 85 85 56
Width: 667
GlyphClass: 2
Flags: W
LayerCount: 2
Fore
SplineSet
84 578 m 1,0,1
 112 576 112 576 123 575.5 c 128,-1,2
 134 575 134 575 140 575 c 0,3,4
 144 575 144 575 159.5 575.5 c 128,-1,5
 175 576 175 576 196 578 c 1,6,-1
 196 339 l 2,7,8
 196 216 196 216 202 171 c 0,9,10
 205 152 205 152 209 136.5 c 128,-1,11
 213 121 213 121 218 110 c 0,12,13
 224 99 224 99 232.5 88 c 128,-1,14
 241 77 241 77 252 66 c 0,15,16
 294 25 294 25 359 25 c 0,17,18
 423 25 423 25 461 51 c 128,-1,19
 499 77 499 77 523 137 c 0,20,21
 532 157 532 157 536.5 204 c 128,-1,22
 541 251 541 251 541 323 c 2,23,-1
 541 578 l 1,24,25
 548 577 548 577 553 577 c 128,-1,26
 558 577 558 577 566 577 c 0,27,28
 573 577 573 577 579 577 c 128,-1,29
 585 577 585 577 592 578 c 1,30,-1
 592 275 l 2,31,32
 590 241 590 241 588.5 214 c 128,-1,33
 587 187 587 187 585 167 c 0,34,35
 580 130 580 130 561 93 c 0,36,37
 543 56 543 56 503 28 c 0,38,39
 441 -15 441 -15 343 -15 c 0,40,41
 302 -15 302 -15 263.5 -7 c 128,-1,42
 225 1 225 1 192 18 c 128,-1,43
 159 35 159 35 134 61.5 c 128,-1,44
 109 88 109 88 97 124 c 0,45,46
 91 149 91 149 87.5 176.5 c 128,-1,47
 84 204 84 204 84 230 c 2,48,-1
 84 578 l 1,0,1
EndSplineSet
EndChar

StartChar: V
Encoding: 86 86 57
Width: 572
GlyphClass: 2
Flags: W
LayerCount: 2
Fore
SplineSet
286 0 m 0,0,1
 282 0 282 0 274 -1 c 128,-1,2
 266 -2 266 -2 254 -4 c 1,3,4
 205 129 205 129 149.5 271.5 c 128,-1,5
 94 414 94 414 27 578 c 1,6,7
 59 576 59 576 70.5 575.5 c 128,-1,8
 82 575 82 575 89 575 c 256,9,10
 96 575 96 575 113.5 575.5 c 128,-1,11
 131 576 131 576 160 578 c 1,12,13
 172 536 172 536 185 500.5 c 128,-1,14
 198 465 198 465 212 427 c 1,15,-1
 211 427 l 1,16,-1
 220 399 l 1,17,-1
 232 370 l 1,18,-1
 245 332 l 1,19,-1
 269 269 l 1,20,-1
 323 127 l 1,21,22
 375 254 375 254 419.5 371.5 c 128,-1,23
 464 489 464 489 493 578 c 1,24,25
 501 577 501 577 510 577 c 128,-1,26
 519 577 519 577 527 577 c 2,27,-1
 552 577 l 1,28,29
 529 522 529 522 509.5 476.5 c 128,-1,30
 490 431 490 431 474 392.5 c 128,-1,31
 458 354 458 354 444.5 322 c 128,-1,32
 431 290 431 290 419 263 c 2,33,-1
 408 236 l 2,34,35
 385 182 385 182 362.5 122 c 128,-1,36
 340 62 340 62 317 -4 c 1,37,38
 304 -2 304 -2 296 -1 c 128,-1,39
 288 0 288 0 286 0 c 0,0,1
EndSplineSet
EndChar

StartChar: W
Encoding: 87 87 58
Width: 857
GlyphClass: 2
Flags: W
LayerCount: 2
Fore
SplineSet
21 578 m 1,0,1
 52 576 52 576 63 575.5 c 128,-1,2
 74 575 74 575 81 575 c 0,3,4
 94 575 94 575 144 578 c 1,5,6
 152 548 152 548 159 518 c 128,-1,7
 166 488 166 488 177 449 c 0,8,9
 185 415 185 415 196 372.5 c 128,-1,10
 207 330 207 330 218 295 c 2,11,-1
 266 118 l 1,12,-1
 323 274 l 2,13,14
 327 284 327 284 330 293 c 0,15,16
 356 366 356 366 382.5 440.5 c 128,-1,17
 409 515 409 515 428 578 c 1,18,19
 439 577 439 577 446.5 577 c 128,-1,20
 454 577 454 577 465 577 c 0,21,22
 474 577 474 577 482.5 577 c 128,-1,23
 491 577 491 577 501 578 c 1,24,-1
 503 573 l 2,25,26
 508 551 508 551 514.5 530.5 c 128,-1,27
 521 510 521 510 527 489 c 0,28,29
 529 481 529 481 532.5 473 c 128,-1,30
 536 465 536 465 539 457 c 2,31,-1
 566 370 l 2,32,33
 590 299 590 299 607 247 c 0,34,35
 611 234 611 234 616.5 216.5 c 128,-1,36
 622 199 622 199 628 180.5 c 128,-1,37
 634 162 634 162 639.5 144.5 c 128,-1,38
 645 127 645 127 649 115 c 1,39,40
 653 127 653 127 659 148 c 128,-1,41
 665 169 665 169 670 183 c 2,42,-1
 712 313 l 2,43,44
 721 343 721 343 730.5 376.5 c 128,-1,45
 740 410 740 410 750 445 c 0,46,47
 761 478 761 478 770 512 c 128,-1,48
 779 546 779 546 787 578 c 1,49,50
 795 577 795 577 803 577 c 128,-1,51
 811 577 811 577 820 577 c 2,52,-1
 845 577 l 1,53,54
 786 415 786 415 737.5 273 c 128,-1,55
 689 131 689 131 649 -4 c 1,56,57
 634 -2 634 -2 624.5 -1 c 128,-1,58
 615 0 615 0 612 0 c 0,59,60
 608 0 608 0 598.5 -1 c 128,-1,61
 589 -2 589 -2 575 -4 c 1,62,63
 567 22 567 22 560 47 c 128,-1,64
 553 72 553 72 544 101 c 2,65,-1
 540 113 l 1,66,-1
 541 113 l 1,67,68
 533 137 533 137 525.5 159.5 c 128,-1,69
 518 182 518 182 512 199 c 2,70,-1
 502 229 l 1,71,-1
 476 303 l 1,72,-1
 459 349 l 1,73,-1
 427 442 l 1,74,-1
 365 270 l 2,75,76
 342 209 342 209 327.5 167.5 c 128,-1,77
 313 126 313 126 304 103 c 2,78,-1
 267 -4 l 1,79,80
 253 -2 253 -2 243.5 -1 c 128,-1,81
 234 0 234 0 230 0 c 256,82,83
 226 0 226 0 216.5 -1 c 128,-1,84
 207 -2 207 -2 192 -4 c 1,85,86
 175 62 175 62 155.5 131.5 c 128,-1,87
 136 201 136 201 116 269 c 0,88,89
 109 292 109 292 102.5 315 c 128,-1,90
 96 338 96 338 88 359 c 2,91,-1
 81 380 l 2,92,93
 79 385 79 385 78.5 390 c 128,-1,94
 78 395 78 395 76 400 c 2,95,-1
 74 406 l 2,96,97
 68 425 68 425 62 445.5 c 128,-1,98
 56 466 56 466 50 486 c 256,99,100
 44 506 44 506 37 526 c 128,-1,101
 30 546 30 546 25 566 c 2,102,-1
 21 578 l 1,0,1
EndSplineSet
EndChar

StartChar: X
Encoding: 88 88 59
Width: 523
GlyphClass: 2
Flags: W
LayerCount: 2
Fore
SplineSet
38 -2 m 1,0,-1
 33 -2 l 2,1,2
 31 -2 31 -2 31 -2.5 c 128,-1,3
 31 -3 31 -3 30 -3 c 2,4,-1
 28 -3 l 1,5,-1
 31 -10 l 1,6,-1
 38 -2 l 1,0,-1
420 475 m 1,7,-1
 370 406 l 1,8,-1
 314 326 l 1,9,-1
 327 301 l 2,10,11
 330 296 330 296 332.5 290.5 c 128,-1,12
 335 285 335 285 338 280 c 2,13,-1
 338 281 l 2,14,15
 340 277 340 277 342 274.5 c 128,-1,16
 344 272 344 272 346 267 c 2,17,-1
 370 224 l 2,18,19
 376 213 376 213 381.5 203 c 128,-1,20
 387 193 387 193 392 183 c 0,21,22
 405 160 405 160 418.5 136 c 128,-1,23
 432 112 432 112 446 86 c 0,24,25
 458 65 458 65 469.5 44 c 128,-1,26
 481 23 481 23 494 -3 c 1,27,28
 467 -1 467 -1 452.5 -0.5 c 128,-1,29
 438 0 438 0 432 0 c 0,30,31
 427 0 427 0 408.5 -1 c 128,-1,32
 390 -2 390 -2 363 -4 c 1,33,34
 352 20 352 20 320.5 80 c 128,-1,35
 289 140 289 140 242 229 c 1,36,-1
 152 87 l 2,37,38
 138 67 138 67 124 43 c 128,-1,39
 110 19 110 19 99 -3 c 0,40,41
 95 -3 95 -3 91 -2 c 0,42,43
 83 -1 83 -1 75 -0.5 c 128,-1,44
 67 0 67 0 62 0 c 256,45,46
 57 0 57 0 51 -0.5 c 128,-1,47
 45 -1 45 -1 38 -2 c 1,48,49
 61 33 61 33 83 64 c 128,-1,50
 105 95 105 95 125 124 c 0,51,52
 148 158 148 158 172 194 c 128,-1,53
 196 230 196 230 218 265 c 1,54,55
 175 344 175 344 132 422 c 128,-1,56
 89 500 89 500 45 578 c 1,57,58
 78 576 78 576 88.5 575.5 c 128,-1,59
 99 575 99 575 105 575 c 256,60,61
 111 575 111 575 130 575.5 c 128,-1,62
 149 576 149 576 178 578 c 1,63,-1
 196 541 l 1,64,-1
 224 486 l 1,65,-1
 224 487 l 1,66,-1
 229 477 l 2,67,68
 246 445 246 445 263 412 c 128,-1,69
 280 379 280 379 292 356 c 1,70,-1
 358 463 l 1,71,-1
 380 497 l 2,72,73
 394 521 394 521 406.5 541.5 c 128,-1,74
 419 562 419 562 429 578 c 1,75,76
 439 577 439 577 448 577 c 128,-1,77
 457 577 457 577 468 577 c 2,78,-1
 493 577 l 1,79,-1
 420 475 l 1,7,-1
EndSplineSet
EndChar

StartChar: Y
Encoding: 89 89 60
Width: 523
GlyphClass: 2
Flags: W
LayerCount: 2
Fore
SplineSet
211 242 m 1,0,-1
 162 331 l 1,1,-1
 120 409 l 1,2,-1
 109 427 l 2,3,4
 91 464 91 464 71 501.5 c 128,-1,5
 51 539 51 539 29 577 c 1,6,7
 63 575 63 575 74.5 575 c 128,-1,8
 86 575 86 575 91 575 c 0,9,10
 97 575 97 575 116 575.5 c 128,-1,11
 135 576 135 576 164 578 c 1,12,-1
 237 428 l 2,13,14
 260 381 260 381 275 352.5 c 128,-1,15
 290 324 290 324 300 312 c 1,16,17
 320 335 320 335 354.5 402 c 128,-1,18
 389 469 389 469 438 578 c 1,19,20
 448 577 448 577 456.5 577 c 128,-1,21
 465 577 465 577 475 577 c 2,22,-1
 500 577 l 1,23,-1
 493 565 l 1,24,-1
 466 521 l 2,25,26
 446 486 446 486 430 458 c 2,27,-1
 421 441 l 1,28,-1
 415 431 l 1,29,-1
 409 422 l 1,30,31
 388 383 388 383 366 342 c 128,-1,32
 344 301 344 301 324 259 c 1,33,-1
 324 -4 l 1,34,35
 299 -2 299 -2 286 -1 c 128,-1,36
 273 0 273 0 268 0 c 0,37,38
 261 0 261 0 247 -1 c 128,-1,39
 233 -2 233 -2 211 -4 c 1,40,-1
 211 242 l 1,0,-1
EndSplineSet
EndChar

StartChar: Z
Encoding: 90 90 61
Width: 523
GlyphClass: 2
Flags: W
LayerCount: 2
Fore
SplineSet
501 52 m 2,0,1
 503 52 503 52 503.5 52.5 c 128,-1,2
 504 53 504 53 506 53 c 2,3,-1
 501 58 l 1,4,-1
 501 53 l 1,5,-1
 501 52 l 2,0,1
28 0 m 1,6,-1
 28 3 l 1,7,8
 115 140 115 140 192.5 265.5 c 128,-1,9
 270 391 270 391 338 511 c 1,10,-1
 338 535 l 1,11,12
 281 535 281 535 210.5 533 c 128,-1,13
 140 531 140 531 65 526 c 1,14,15
 66 538 66 538 66.5 544.5 c 128,-1,16
 67 551 67 551 67 553 c 256,17,18
 67 555 67 555 66.5 561.5 c 128,-1,19
 66 568 66 568 65 579 c 1,20,-1
 503 579 l 1,21,-1
 503 576 l 1,22,23
 462 514 462 514 425 454.5 c 128,-1,24
 388 395 388 395 352 333 c 0,25,26
 340 312 340 312 327 290 c 128,-1,27
 314 268 314 268 302 247 c 0,28,29
 295 233 295 233 287 219.5 c 128,-1,30
 279 206 279 206 271 193 c 2,31,-1
 198 66 l 1,32,-1
 198 44 l 1,33,34
 250 44 250 44 327 46 c 128,-1,35
 404 48 404 48 501 52 c 1,36,37
 501 50 501 50 500.5 48 c 128,-1,38
 500 46 500 46 500 44 c 0,39,40
 499 38 499 38 498.5 34 c 128,-1,41
 498 30 498 30 498 28 c 0,42,43
 498 24 498 24 498.5 17 c 128,-1,44
 499 10 499 10 500 0 c 1,45,-1
 28 0 l 1,6,-1
EndSplineSet
EndChar

StartChar: bracketleft
Encoding: 91 91 62
Width: 278
GlyphClass: 2
Flags: W
LayerCount: 2
Fore
SplineSet
262 -199 m 1,0,-1
 68 -199 l 1,1,-1
 68 716 l 1,2,-1
 262 716 l 1,3,-1
 262 643 l 1,4,-1
 156 643 l 1,5,-1
 156 -126 l 1,6,-1
 262 -126 l 1,7,-1
 262 -199 l 1,0,-1
EndSplineSet
EndChar

StartChar: backslash
Encoding: 92 92 63
Width: 278
GlyphClass: 2
Flags: W
LayerCount: 2
Fore
SplineSet
278 -12 m 1,0,-1
 208 -12 l 1,1,-1
 0 728 l 1,2,-1
 71 728 l 1,3,-1
 278 -12 l 1,0,-1
EndSplineSet
EndChar

StartChar: bracketright
Encoding: 93 93 64
Width: 278
GlyphClass: 2
Flags: W
LayerCount: 2
Fore
SplineSet
213 -199 m 1,0,-1
 19 -199 l 1,1,-1
 19 -126 l 1,2,-1
 125 -126 l 1,3,-1
 125 643 l 1,4,-1
 19 643 l 1,5,-1
 19 716 l 1,6,-1
 213 716 l 1,7,-1
 213 -199 l 1,0,-1
EndSplineSet
EndChar

StartChar: asciicircum
Encoding: 94 94 65
Width: 469
GlyphClass: 2
Flags: W
LayerCount: 2
Fore
SplineSet
443 337 m 1,0,-1
 354 337 l 1,1,-1
 234 628 l 1,2,-1
 117 337 l 1,3,-1
 26 337 l 1,4,-1
 199 728 l 1,5,-1
 270 728 l 1,6,-1
 443 337 l 1,0,-1
EndSplineSet
EndChar

StartChar: underscore
Encoding: 95 95 66
Width: 556
GlyphClass: 2
Flags: W
LayerCount: 2
Fore
SplineSet
567 -199 m 1,0,-1
 -15 -199 l 1,1,-1
 -15 -135 l 1,2,-1
 567 -135 l 1,3,-1
 567 -199 l 1,0,-1
EndSplineSet
EndChar

StartChar: grave
Encoding: 96 96 67
Width: 336
GlyphClass: 2
Flags: W
LayerCount: 2
Fore
SplineSet
345 495 m 1,0,-1
 313 480 l 1,1,-1
 225 638 l 2,2,3
 222 646 222 646 222 654 c 256,4,5
 222 662 222 662 224 669 c 0,6,7
 230 684 230 684 246 694 c 0,8,9
 252 697 252 697 264 699 c 0,10,11
 293 699 293 699 305 668 c 1,12,-1
 345 495 l 1,0,-1
EndSplineSet
EndChar

StartChar: a
Encoding: 97 97 68
Width: 451
GlyphClass: 2
Flags: W
LayerCount: 2
Fore
SplineSet
282 247 m 1,0,1
 274 243 274 243 264 239 c 128,-1,2
 254 235 254 235 249 233 c 0,3,4
 227 225 227 225 207 217.5 c 128,-1,5
 187 210 187 210 172 199 c 0,6,7
 139 171 139 171 139 113 c 0,8,9
 139 77 139 77 153.5 52 c 128,-1,10
 168 27 168 27 200 27 c 0,11,12
 279 27 279 27 282 140 c 2,13,-1
 282 247 l 1,0,1
69 341 m 1,14,-1
 45 340 l 1,15,-1
 76 319 l 1,16,-1
 69 341 l 1,14,-1
392 68 m 2,17,18
 392 37 392 37 401.5 26 c 128,-1,19
 411 15 411 15 440 13 c 1,20,-1
 440 8 l 1,21,22
 390 -14 390 -14 366 -14 c 0,23,24
 336 -14 336 -14 312 8.5 c 128,-1,25
 288 31 288 31 273 68 c 1,26,27
 252 30 252 30 219 8 c 128,-1,28
 186 -14 186 -14 151 -14 c 0,29,30
 97 -14 97 -14 62.5 15 c 128,-1,31
 28 44 28 44 28 100 c 0,32,33
 28 141 28 141 44.5 165 c 128,-1,34
 61 189 61 189 94 203 c 0,35,36
 127 219 127 219 191 234 c 0,37,38
 217 240 217 240 234.5 246.5 c 128,-1,39
 252 253 252 253 263 259 c 0,40,41
 282 278 282 278 282 305 c 0,42,43
 282 342 282 342 251 371 c 0,44,45
 220 399 220 399 183 399 c 0,46,47
 166 399 166 399 148.5 394 c 128,-1,48
 131 389 131 389 116 381.5 c 128,-1,49
 101 374 101 374 88.5 364.5 c 128,-1,50
 76 355 76 355 68 347 c 1,51,52
 65 359 65 359 64 365.5 c 128,-1,53
 63 372 63 372 61 383 c 1,54,55
 75 396 75 396 94 406 c 128,-1,56
 113 416 113 416 133 423 c 0,57,58
 155 430 155 430 178.5 434.5 c 128,-1,59
 202 439 202 439 223 439 c 0,60,61
 253 439 253 439 283 432.5 c 128,-1,62
 313 426 313 426 337.5 412 c 128,-1,63
 362 398 362 398 377 376 c 128,-1,64
 392 354 392 354 392 323 c 2,65,-1
 392 68 l 2,17,18
EndSplineSet
EndChar

StartChar: b
Encoding: 98 98 69
Width: 501
GlyphClass: 2
Flags: W
LayerCount: 2
Fore
SplineSet
56 687 m 1,0,1
 82 685 82 685 93.5 684.5 c 128,-1,2
 105 684 105 684 110 684 c 0,3,4
 121 684 121 684 160 687 c 0,5,6
 162 687 162 687 162.5 687.5 c 128,-1,7
 163 688 163 688 165 688 c 2,8,-1
 165 368 l 1,9,-1
 182 364 l 1,10,11
 200 399 200 399 232.5 419 c 128,-1,12
 265 439 265 439 301 439 c 0,13,14
 356 439 356 439 395.5 409.5 c 128,-1,15
 435 380 435 380 455 332 c 0,16,17
 465 308 465 308 470.5 282.5 c 128,-1,18
 476 257 476 257 476 228 c 0,19,20
 476 115 476 115 424 56 c 0,21,22
 366 -14 366 -14 274 -14 c 0,23,24
 238 -14 238 -14 203.5 4 c 128,-1,25
 169 22 169 22 148 55 c 1,26,27
 137 49 137 49 121 39.5 c 128,-1,28
 105 30 105 30 90 20 c 2,29,-1
 61 0 l 1,30,-1
 56 0 l 1,31,-1
 56 687 l 1,0,1
257 8 m 0,32,33
 306 8 306 8 332 67 c 0,34,35
 357 122 357 122 357 212 c 0,36,37
 357 249 357 249 353 281 c 128,-1,38
 349 313 349 313 342 339 c 0,39,40
 334 368 334 368 313.5 383.5 c 128,-1,41
 293 399 293 399 263 399 c 0,42,43
 165 399 165 399 165 209 c 0,44,45
 165 132 165 132 179 73 c 0,46,47
 196 8 196 8 257 8 c 0,32,33
EndSplineSet
EndChar

StartChar: c
Encoding: 99 99 70
Width: 451
GlyphClass: 2
Flags: W
LayerCount: 2
Fore
SplineSet
403 320 m 1,0,-1
 397 320 l 1,1,2
 389 358 389 358 364 385 c 0,3,4
 335 417 335 417 292 417 c 0,5,6
 258 418 258 418 234 399 c 128,-1,7
 210 380 210 380 195 351 c 128,-1,8
 180 322 180 322 173 287 c 128,-1,9
 166 252 166 252 166 222 c 0,10,11
 166 27 166 27 319 27 c 0,12,13
 345 27 345 27 372 37.5 c 128,-1,14
 399 48 399 48 418 68 c 1,15,-1
 420 66 l 1,16,-1
 421 66 l 1,17,18
 416 54 416 54 412.5 45.5 c 128,-1,19
 409 37 409 37 404 26 c 2,20,-1
 401 18 l 1,21,22
 387 4 387 4 350 -4 c 0,23,24
 330 -9 330 -9 313.5 -11.5 c 128,-1,25
 297 -14 297 -14 283 -14 c 0,26,27
 173 -14 173 -14 112 44 c 1,28,29
 47 100 47 100 47 204 c 0,30,31
 47 258 47 258 64.5 301.5 c 128,-1,32
 82 345 82 345 113.5 375.5 c 128,-1,33
 145 406 145 406 188.5 422.5 c 128,-1,34
 232 439 232 439 285 439 c 0,35,36
 325 439 325 439 365 429.5 c 128,-1,37
 405 420 405 420 434 403 c 1,38,-1
 403 320 l 1,0,-1
EndSplineSet
EndChar

StartChar: d
Encoding: 100 100 71
Width: 501
GlyphClass: 2
Flags: W
LayerCount: 2
Fore
SplineSet
452 -4 m 1,0,1
 432 -2 432 -2 419 -1 c 128,-1,2
 406 0 406 0 401 0 c 256,3,4
 396 0 396 0 382.5 -1 c 128,-1,5
 369 -2 369 -2 348 -4 c 1,6,-1
 348 74 l 1,7,-1
 330 76 l 1,8,9
 316 34 316 34 284.5 10 c 128,-1,10
 253 -14 253 -14 209 -14 c 0,11,12
 118 -14 118 -14 76 49 c 256,13,14
 34 112 34 112 34 212 c 0,15,16
 34 256 34 256 44.5 297 c 128,-1,17
 55 338 55 338 76.5 369.5 c 128,-1,18
 98 401 98 401 130 420 c 128,-1,19
 162 439 162 439 205 439 c 0,20,21
 288 439 288 439 326 371 c 1,22,-1
 344 374 l 1,23,-1
 344 687 l 1,24,25
 370 685 370 685 381.5 684.5 c 128,-1,26
 393 684 393 684 398 684 c 256,27,28
 403 684 403 684 417.5 684.5 c 128,-1,29
 432 685 432 685 452 687 c 1,30,-1
 452 -4 l 1,0,1
153 209 m 0,31,32
 153 27 153 27 246 27 c 0,33,34
 275 27 275 27 295.5 44 c 128,-1,35
 316 61 316 61 327 92 c 0,36,37
 337 121 337 121 342 154 c 128,-1,38
 347 187 347 187 347 220 c 256,39,40
 347 253 347 253 343 282.5 c 128,-1,41
 339 312 339 312 329 339 c 1,42,-1
 330 339 l 1,43,44
 310 399 310 399 253 399 c 0,45,46
 192 399 192 399 171 335 c 0,47,48
 153 279 153 279 153 209 c 0,31,32
EndSplineSet
EndChar

StartChar: e
Encoding: 101 101 72
Width: 451
GlyphClass: 2
Flags: W
LayerCount: 2
Fore
SplineSet
317 247 m 1,0,1
 317 279 317 279 313.5 310 c 128,-1,2
 310 341 310 341 304 364 c 0,3,4
 288 417 288 417 244 417 c 0,5,6
 192 417 192 417 174 365 c 1,7,-1
 175 365 l 1,8,9
 159 319 159 319 157 247 c 1,10,-1
 317 247 l 1,0,1
406 64 m 1,11,-1
 408 66 l 1,12,-1
 410 65 l 1,13,-1
 408 71 l 1,14,-1
 406 64 l 1,11,-1
157 222 m 1,15,16
 157 131 157 131 190 79 c 128,-1,17
 223 27 223 27 297 27 c 0,18,19
 325 27 325 27 354 37 c 128,-1,20
 383 47 383 47 406 64 c 1,21,-1
 390 25 l 1,22,23
 364 6 364 6 330 -4 c 128,-1,24
 296 -14 296 -14 264 -14 c 0,25,26
 152 -14 152 -14 95 48.5 c 128,-1,27
 38 111 38 111 38 223 c 0,28,29
 38 270 38 270 52 309.5 c 128,-1,30
 66 349 66 349 92.5 378 c 128,-1,31
 119 407 119 407 157 423 c 128,-1,32
 195 439 195 439 243 439 c 0,33,34
 290 439 290 439 324.5 424.5 c 128,-1,35
 359 410 359 410 381.5 384 c 128,-1,36
 404 358 404 358 415 322 c 128,-1,37
 426 286 426 286 426 243 c 2,38,-1
 426 222 l 1,39,-1
 157 222 l 1,15,16
EndSplineSet
EndChar

StartChar: f
Encoding: 102 102 73
Width: 284
GlyphClass: 2
Flags: W
LayerCount: 2
Fore
SplineSet
305 580 m 2,0,1
 303 581 303 581 303 581 c 2,2,3
 302 581 302 581 302 580.5 c 128,-1,4
 302 580 302 580 301 580 c 2,5,-1
 305 580 l 2,0,1
16 390 m 1,6,7
 17 395 17 395 17 399 c 128,-1,8
 17 403 17 403 17 409 c 256,9,10
 17 415 17 415 17.5 420 c 128,-1,11
 18 425 18 425 17 430 c 1,12,-1
 84 430 l 1,13,14
 100 534 100 534 132 591 c 0,15,16
 161 641 161 641 193 664.5 c 128,-1,17
 225 688 225 688 273 688 c 0,18,19
 281 688 281 688 289.5 688 c 128,-1,20
 298 688 298 688 306 686 c 1,21,22
 304 670 304 670 303 654 c 128,-1,23
 302 638 302 638 302 620 c 0,24,25
 302 612 302 612 301.5 603 c 128,-1,26
 301 594 301 594 303 581 c 1,27,28
 254 607 254 607 219 607 c 0,29,30
 176 607 176 607 160 592 c 0,31,32
 146 576 146 576 146 565 c 0,33,34
 146 549 146 549 160 505 c 0,35,36
 168 485 168 485 175.5 466.5 c 128,-1,37
 183 448 183 448 192 430 c 1,38,-1
 281 430 l 1,39,40
 280 419 280 419 280 416.5 c 128,-1,41
 280 414 280 414 280 410 c 0,42,43
 280 407 280 407 280 402.5 c 128,-1,44
 280 398 280 398 281 390 c 1,45,-1
 194 390 l 1,46,-1
 194 -4 l 1,47,48
 171 -2 171 -2 157.5 -1 c 128,-1,49
 144 0 144 0 139 0 c 256,50,51
 134 0 134 0 120.5 -1 c 128,-1,52
 107 -2 107 -2 85 -4 c 1,53,-1
 85 390 l 1,54,-1
 16 390 l 1,6,7
EndSplineSet
EndChar

StartChar: g
Encoding: 103 103 74
Width: 451
GlyphClass: 2
Flags: W
LayerCount: 2
Fore
SplineSet
95 -115 m 0,0,1
 95 -171 95 -171 136 -201 c 0,2,3
 156 -215 156 -215 179.5 -223 c 128,-1,4
 203 -231 203 -231 232 -231 c 0,5,6
 259 -231 259 -231 282 -221.5 c 128,-1,7
 305 -212 305 -212 322 -195.5 c 128,-1,8
 339 -179 339 -179 348.5 -158.5 c 128,-1,9
 358 -138 358 -138 357 -116 c 0,10,11
 357 -69 357 -69 336.5 -47 c 128,-1,12
 316 -25 316 -25 284 -20 c 0,13,14
 270 -18 270 -18 250.5 -16.5 c 128,-1,15
 231 -15 231 -15 208 -15 c 0,16,17
 167 -15 167 -15 139 -26 c 0,18,19
 112 -38 112 -38 101 -77 c 0,20,21
 95 -89 95 -89 95 -115 c 0,0,1
436 413 m 1,22,-1
 332 417 l 1,23,24
 401 356 401 356 401 301 c 0,25,26
 401 230 401 230 350 194 c 0,27,28
 298 156 298 156 213 156 c 0,29,30
 173 156 173 156 164 147 c 0,31,32
 150 130 150 130 150 116 c 0,33,34
 150 59 150 59 236 55 c 2,35,-1
 276 54 l 2,36,37
 285 53 285 53 297 52.5 c 128,-1,38
 309 52 309 52 317 52 c 0,39,40
 381 47 381 47 412.5 19 c 128,-1,41
 444 -9 444 -9 444 -58 c 0,42,43
 445 -105 445 -105 425 -140.5 c 128,-1,44
 405 -176 405 -176 372 -200 c 128,-1,45
 339 -224 339 -224 296 -236.5 c 128,-1,46
 253 -249 253 -249 208 -249 c 0,47,48
 165 -249 165 -249 124.5 -237 c 128,-1,49
 84 -225 84 -225 57 -200 c 0,50,51
 45 -187 45 -187 37.5 -170.5 c 128,-1,52
 30 -154 30 -154 30 -134 c 0,53,54
 30 -101 30 -101 50.5 -75.5 c 128,-1,55
 71 -50 71 -50 104 -36 c 2,56,-1
 128 -23 l 1,57,-1
 111 -4 l 1,58,59
 91 3 91 3 80 19 c 128,-1,60
 69 35 69 35 69 57 c 0,61,62
 69 83 69 83 91 108 c 0,63,64
 113 135 113 135 135 141 c 2,65,-1
 154 146 l 1,66,-1
 154 163 l 1,67,68
 38 190 38 190 38 305 c 0,69,70
 38 376 38 376 92 407.5 c 128,-1,71
 146 439 146 439 237 439 c 0,72,73
 261 439 261 439 284.5 438 c 128,-1,74
 308 437 308 437 332 435 c 2,75,-1
 437 435 l 1,76,-1
 436 413 l 1,22,-1
218 172 m 0,77,78
 290 172 290 172 290 307 c 0,79,80
 290 351 290 351 276 385 c 1,81,-1
 276 384 l 1,82,83
 262 425 262 425 222 425 c 0,84,85
 148 425 148 425 148 290 c 0,86,87
 148 245 148 245 163 211 c 0,88,89
 179 172 179 172 218 172 c 0,77,78
EndSplineSet
EndChar

StartChar: h
Encoding: 104 104 75
Width: 501
GlyphClass: 2
Flags: W
LayerCount: 2
Fore
SplineSet
166 349 m 1,0,1
 209 397 209 397 247 418 c 0,2,3
 265 428 265 428 282 433.5 c 128,-1,4
 299 439 299 439 315 439 c 0,5,6
 375 439 375 439 418 399 c 0,7,8
 440 376 440 376 447 350 c 128,-1,9
 454 324 454 324 454 286 c 2,10,-1
 454 -4 l 1,11,12
 432 -2 432 -2 418.5 -1 c 128,-1,13
 405 0 405 0 400 0 c 256,14,15
 395 0 395 0 381 -1 c 128,-1,16
 367 -2 367 -2 345 -4 c 1,17,-1
 345 219 l 2,18,19
 345 257 345 257 341 286 c 128,-1,20
 337 315 337 315 328 335 c 0,21,22
 309 380 309 380 257 380 c 0,23,24
 200 380 200 380 181 328 c 0,25,26
 166 281 166 281 166 201 c 2,27,-1
 166 -4 l 1,28,29
 143 -2 143 -2 129.5 -1 c 128,-1,30
 116 0 116 0 111 0 c 256,31,32
 106 0 106 0 92 -1 c 128,-1,33
 78 -2 78 -2 56 -4 c 1,34,-1
 56 687 l 1,35,36
 84 685 84 685 95 684.5 c 128,-1,37
 106 684 106 684 111 684 c 0,38,39
 114 684 114 684 121.5 684 c 128,-1,40
 129 684 129 684 139 685 c 0,41,42
 145 686 145 686 151.5 686.5 c 128,-1,43
 158 687 158 687 166 688 c 1,44,-1
 166 349 l 1,0,1
EndSplineSet
EndChar

StartChar: i
Encoding: 105 105 76
Width: 251
GlyphClass: 2
Flags: W
LayerCount: 2
Fore
SplineSet
73 429 m 1,0,1
 96 427 96 427 109 426 c 128,-1,2
 122 425 122 425 128 425 c 0,3,4
 133 425 133 425 147 426 c 128,-1,5
 161 427 161 427 182 429 c 1,6,-1
 182 -4 l 1,7,8
 161 -2 161 -2 147 -1 c 128,-1,9
 133 0 133 0 128 0 c 256,10,11
 123 0 123 0 109 -1 c 128,-1,12
 95 -2 95 -2 73 -4 c 1,13,-1
 73 429 l 1,0,1
127 676 m 256,14,15
 153 676 153 676 172 657 c 0,16,17
 191 639 191 639 191 613 c 0,18,19
 191 586 191 586 172 567 c 0,20,21
 152 549 152 549 127 549 c 0,22,23
 100 549 100 549 82 568 c 256,24,25
 64 587 64 587 64 613 c 256,26,27
 64 639 64 639 82.5 657.5 c 128,-1,28
 101 676 101 676 127 676 c 256,14,15
EndSplineSet
EndChar

StartChar: j
Encoding: 106 106 77
Width: 251
GlyphClass: 2
Flags: W
LayerCount: 2
Fore
SplineSet
184 -18 m 2,0,1
 184 -41 184 -41 180 -59 c 128,-1,2
 176 -77 176 -77 169 -92 c 0,3,4
 154 -121 154 -121 118 -150 c 0,5,6
 96 -167 96 -167 68 -177.5 c 128,-1,7
 40 -188 40 -188 8 -193 c 1,8,-1
 3 -178 l 1,9,10
 31 -166 31 -166 47.5 -145.5 c 128,-1,11
 64 -125 64 -125 70 -101 c 0,12,13
 72 -87 72 -87 73.5 -69.5 c 128,-1,14
 75 -52 75 -52 75 -31 c 2,15,-1
 75 429 l 1,16,17
 98 427 98 427 111 426 c 128,-1,18
 124 425 124 425 129 425 c 0,19,20
 135 425 135 425 148.5 426 c 128,-1,21
 162 427 162 427 184 429 c 1,22,-1
 184 -18 l 2,0,1
65 610 m 0,23,24
 65 624 65 624 69.5 636 c 128,-1,25
 74 648 74 648 82 657 c 0,26,27
 100 676 100 676 126 676 c 0,28,29
 155 676 155 676 174 657.5 c 128,-1,30
 193 639 193 639 193 610 c 0,31,32
 193 582 193 582 174 566 c 0,33,34
 157 549 157 549 126 549 c 0,35,36
 101 549 101 549 83 567 c 256,37,38
 65 585 65 585 65 610 c 0,23,24
EndSplineSet
EndChar

StartChar: k
Encoding: 107 107 78
Width: 451
GlyphClass: 2
Flags: W
LayerCount: 2
Fore
SplineSet
430 428 m 1,0,-1
 446 429 l 1,1,-1
 450 436 l 1,2,-1
 442 442 l 1,3,-1
 430 428 l 1,0,-1
60 687 m 1,4,5
 87 685 87 685 98 684.5 c 128,-1,6
 109 684 109 684 115 684 c 0,7,8
 126 684 126 684 164 687 c 0,9,10
 166 687 166 687 166.5 687.5 c 128,-1,11
 167 688 167 688 169 688 c 2,12,-1
 169 231 l 1,13,14
 178 228 178 228 192 228 c 1,15,16
 213 249 213 249 259 299.5 c 128,-1,17
 305 350 305 350 374 429 c 1,18,19
 389 427 389 427 396.5 426 c 128,-1,20
 404 425 404 425 409 425 c 0,21,22
 411 425 411 425 416.5 425.5 c 128,-1,23
 422 426 422 426 429 427 c 1,24,25
 415 411 415 411 397 391.5 c 128,-1,26
 379 372 379 372 359 353 c 0,27,28
 332 326 332 326 311 305 c 128,-1,29
 290 284 290 284 278 270 c 1,30,-1
 357 143 l 2,31,32
 385 99 385 99 406.5 62.5 c 128,-1,33
 428 26 428 26 445 -3 c 1,34,35
 417 -1 417 -1 405.5 -0.5 c 128,-1,36
 394 0 394 0 387 0 c 0,37,38
 381 0 381 0 364.5 -1 c 128,-1,39
 348 -2 348 -2 322 -4 c 1,40,41
 294 50 294 50 267 95 c 128,-1,42
 240 140 240 140 214 178 c 0,43,44
 205 192 205 192 193.5 202.5 c 128,-1,45
 182 213 182 213 169 221 c 1,46,-1
 169 -4 l 1,47,48
 148 -2 148 -2 134 -1 c 128,-1,49
 120 0 120 0 115 0 c 256,50,51
 110 0 110 0 96.5 -1 c 128,-1,52
 83 -2 83 -2 60 -4 c 1,53,-1
 60 687 l 1,4,5
EndSplineSet
EndChar

StartChar: l
Encoding: 108 108 79
Width: 251
GlyphClass: 2
Flags: W
LayerCount: 2
Fore
SplineSet
182 -4 m 1,0,1
 161 -2 161 -2 147 -1 c 128,-1,2
 133 0 133 0 128 0 c 256,3,4
 123 0 123 0 109 -1 c 128,-1,5
 95 -2 95 -2 73 -4 c 1,6,-1
 73 687 l 1,7,8
 100 685 100 685 111 684.5 c 128,-1,9
 122 684 122 684 128 684 c 0,10,11
 139 684 139 684 177 687 c 0,12,13
 179 687 179 687 179.5 687.5 c 128,-1,14
 180 688 180 688 182 688 c 2,15,-1
 182 -4 l 1,0,1
EndSplineSet
EndChar

StartChar: m
Encoding: 109 109 80
Width: 752
GlyphClass: 2
Flags: W
LayerCount: 2
Fore
SplineSet
52 429 m 1,0,1
 76 427 76 427 88.5 426 c 128,-1,2
 101 425 101 425 107 425 c 0,3,4
 112 425 112 425 126 426 c 128,-1,5
 140 427 140 427 161 429 c 1,6,-1
 161 334 l 1,7,8
 199 395 199 395 236 418 c 0,9,10
 253 427 253 427 272.5 433 c 128,-1,11
 292 439 292 439 310 439 c 0,12,13
 351 439 351 439 383 414 c 128,-1,14
 415 389 415 389 432 341 c 1,15,16
 497 439 497 439 578 439 c 0,17,18
 652 439 652 439 683 398 c 128,-1,19
 714 357 714 357 714 284 c 2,20,-1
 714 -4 l 1,21,22
 692 -2 692 -2 678 -1 c 128,-1,23
 664 0 664 0 659 0 c 256,24,25
 654 0 654 0 640.5 -1 c 128,-1,26
 627 -2 627 -2 605 -4 c 1,27,-1
 605 240 l 2,28,29
 605 300 605 300 591 339 c 0,30,31
 576 380 576 380 525 380 c 0,32,33
 473 380 473 380 456 350 c 0,34,35
 437 322 437 322 437 270 c 2,36,-1
 437 -4 l 1,37,38
 415 -2 415 -2 401.5 -1 c 128,-1,39
 388 0 388 0 383 0 c 256,40,41
 378 0 378 0 364.5 -1 c 128,-1,42
 351 -2 351 -2 328 -4 c 1,43,-1
 328 240 l 2,44,45
 328 304 328 304 314 339 c 0,46,47
 299 380 299 380 249 380 c 0,48,49
 161 380 161 380 161 259 c 2,50,-1
 161 -4 l 1,51,52
 139 -2 139 -2 125.5 -1 c 128,-1,53
 112 0 112 0 107 0 c 256,54,55
 102 0 102 0 88 -1 c 128,-1,56
 74 -2 74 -2 52 -4 c 1,57,-1
 52 429 l 1,0,1
EndSplineSet
EndChar

StartChar: n
Encoding: 110 110 81
Width: 501
GlyphClass: 2
Flags: W
LayerCount: 2
Fore
SplineSet
56 429 m 1,0,1
 79 427 79 427 91.5 426 c 128,-1,2
 104 425 104 425 109 425 c 256,3,4
 114 425 114 425 127.5 426 c 128,-1,5
 141 427 141 427 161 429 c 1,6,-1
 161 343 l 1,7,8
 243 439 243 439 316 439 c 0,9,10
 394 439 394 439 424 394 c 256,11,12
 454 349 454 349 454 260 c 2,13,-1
 454 -4 l 1,14,15
 432 -2 432 -2 418.5 -1 c 128,-1,16
 405 0 405 0 400 0 c 256,17,18
 395 0 395 0 381 -1 c 128,-1,19
 367 -2 367 -2 345 -4 c 1,20,-1
 345 219 l 2,21,22
 345 257 345 257 341 286 c 128,-1,23
 337 315 337 315 328 335 c 0,24,25
 309 380 309 380 257 380 c 0,26,27
 196 380 196 380 180 324 c 0,28,29
 166 274 166 274 166 201 c 2,30,-1
 166 -4 l 1,31,32
 143 -2 143 -2 129.5 -1 c 128,-1,33
 116 0 116 0 111 0 c 256,34,35
 106 0 106 0 92 -1 c 128,-1,36
 78 -2 78 -2 56 -4 c 1,37,-1
 56 429 l 1,0,1
EndSplineSet
EndChar

StartChar: o
Encoding: 111 111 82
Width: 501
GlyphClass: 2
Flags: W
LayerCount: 2
Fore
SplineSet
36 202 m 0,0,1
 35 255 35 255 50.5 299 c 128,-1,2
 66 343 66 343 94.5 374.5 c 128,-1,3
 123 406 123 406 164 423 c 128,-1,4
 205 440 205 440 255 439 c 0,5,6
 358 439 358 439 417 381.5 c 128,-1,7
 476 324 476 324 476 223 c 0,8,9
 477 173 477 173 461.5 129.5 c 128,-1,10
 446 86 446 86 417.5 53.5 c 128,-1,11
 389 21 389 21 347.5 3 c 128,-1,12
 306 -15 306 -15 254 -14 c 0,13,14
 205 -15 205 -15 164.5 0.5 c 128,-1,15
 124 16 124 16 95.5 44.5 c 128,-1,16
 67 73 67 73 51 113.5 c 128,-1,17
 35 154 35 154 36 202 c 0,0,1
154 205 m 0,18,19
 154 133 154 133 172 73 c 0,20,21
 193 8 193 8 254 8 c 0,22,23
 310 9 310 9 334 80 c 0,24,25
 346 113 346 113 351.5 152.5 c 128,-1,26
 357 192 357 192 357 239 c 0,27,28
 357 276 357 276 351.5 308.5 c 128,-1,29
 346 341 346 341 334 365 c 128,-1,30
 322 389 322 389 303.5 403 c 128,-1,31
 285 417 285 417 260 417 c 0,32,33
 230 417 230 417 209.5 401.5 c 128,-1,34
 189 386 189 386 176.5 358 c 128,-1,35
 164 330 164 330 159 291 c 128,-1,36
 154 252 154 252 154 205 c 0,18,19
EndSplineSet
EndChar

StartChar: p
Encoding: 112 112 83
Width: 501
GlyphClass: 2
Flags: W
LayerCount: 2
Fore
SplineSet
357 210 m 0,0,1
 357 301 357 301 336 350 c 128,-1,2
 315 399 315 399 265 399 c 0,3,4
 204 399 204 399 183 334 c 0,5,6
 163 274 163 274 163 205 c 0,7,8
 163 27 163 27 260 27 c 1,9,10
 309 32 309 32 333 80.5 c 128,-1,11
 357 129 357 129 357 210 c 0,0,1
167 -242 m 1,12,-1
 167 -249 l 1,13,-1
 172 -244 l 1,14,-1
 171 -243 l 1,15,-1
 167 -242 l 1,12,-1
57 429 m 1,16,17
 80 427 80 427 92 426 c 128,-1,18
 104 425 104 425 110 425 c 0,19,20
 115 425 115 425 128 426 c 128,-1,21
 141 427 141 427 161 429 c 1,22,-1
 161 351 l 1,23,-1
 179 349 l 1,24,25
 195 391 195 391 226.5 415 c 128,-1,26
 258 439 258 439 301 439 c 0,27,28
 347 440 347 440 380 422.5 c 128,-1,29
 413 405 413 405 434.5 375 c 128,-1,30
 456 345 456 345 466 305 c 128,-1,31
 476 265 476 265 476 221 c 0,32,33
 477 163 477 163 462 119 c 128,-1,34
 447 75 447 75 422.5 45.5 c 128,-1,35
 398 16 398 16 365.5 1 c 128,-1,36
 333 -14 333 -14 298 -14 c 0,37,38
 226 -14 226 -14 167 80 c 1,39,-1
 167 -242 l 1,40,-1
 164 -242 l 2,41,42
 120 -239 120 -239 111 -239 c 0,43,44
 109 -239 109 -239 101.5 -239.5 c 128,-1,45
 94 -240 94 -240 83 -241 c 2,46,-1
 66 -242 l 1,47,-1
 57 -243 l 1,48,-1
 57 429 l 1,16,17
EndSplineSet
EndChar

StartChar: q
Encoding: 113 113 84
Width: 501
GlyphClass: 2
Flags: W
LayerCount: 2
Fore
SplineSet
348 -249 m 1,0,-1
 348 -243 l 1,1,-1
 344 -244 l 1,2,-1
 346 -243 l 2,3,4
 345 -243 345 -243 344.5 -243.5 c 128,-1,5
 344 -244 344 -244 343 -244 c 2,6,-1
 348 -249 l 1,0,-1
353 429 m 1,7,8
 375 427 375 427 387.5 426 c 128,-1,9
 400 425 400 425 405 425 c 256,10,11
 410 425 410 425 423.5 426 c 128,-1,12
 437 427 437 427 457 429 c 1,13,-1
 457 -242 l 1,14,-1
 448 -242 l 2,15,16
 444 -242 444 -242 439.5 -241.5 c 128,-1,17
 435 -241 435 -241 431 -241 c 0,18,19
 420 -240 420 -240 412.5 -239.5 c 128,-1,20
 405 -239 405 -239 403 -239 c 0,21,22
 399 -239 399 -239 384.5 -239.5 c 128,-1,23
 370 -240 370 -240 350 -242 c 1,24,-1
 348 -243 l 1,25,-1
 348 82 l 1,26,27
 323 40 323 40 289.5 13 c 128,-1,28
 256 -14 256 -14 217 -14 c 0,29,30
 176 -14 176 -14 143 2 c 128,-1,31
 110 18 110 18 87 47 c 128,-1,32
 64 76 64 76 51.5 116.5 c 128,-1,33
 39 157 39 157 39 207 c 0,34,35
 39 317 39 317 81 378 c 0,36,37
 122 439 122 439 207 439 c 0,38,39
 299 439 299 439 336 348 c 1,40,-1
 353 351 l 1,41,-1
 353 429 l 1,7,8
161 151 m 0,42,43
 162 130 162 130 169 108 c 128,-1,44
 176 86 176 86 188 68 c 128,-1,45
 200 50 200 50 216.5 38.5 c 128,-1,46
 233 27 233 27 255 27 c 0,47,48
 351 27 351 27 351 203 c 0,49,50
 351 239 351 239 346 272.5 c 128,-1,51
 341 306 341 306 332 334 c 0,52,53
 321 365 321 365 301 382 c 128,-1,54
 281 399 281 399 249 399 c 0,55,56
 157 399 157 399 157 218 c 0,57,58
 157 206 157 206 158 189.5 c 128,-1,59
 159 173 159 173 161 151 c 0,42,43
EndSplineSet
EndChar

StartChar: r
Encoding: 114 114 85
Width: 351
GlyphClass: 2
Flags: W
LayerCount: 2
Fore
SplineSet
326 326 m 1,0,-1
 326 325 l 1,1,-1
 324 324 l 1,2,-1
 330 324 l 1,3,-1
 326 326 l 1,0,-1
69 429 m 1,4,5
 92 427 92 427 105 426 c 128,-1,6
 118 425 118 425 123 425 c 256,7,8
 128 425 128 425 142 426 c 128,-1,9
 156 427 156 427 178 429 c 1,10,-1
 178 318 l 1,11,-1
 197 315 l 1,12,13
 214 372 214 372 247.5 403 c 128,-1,14
 281 434 281 434 329 439 c 1,15,16
 326 395 326 395 326 355 c 0,17,18
 326 345 326 345 325.5 338 c 128,-1,19
 325 331 325 331 326 326 c 1,20,21
 309 336 309 336 280 336 c 0,22,23
 245 336 245 336 219.5 317 c 128,-1,24
 194 298 194 298 184 267 c 0,25,26
 178 247 178 247 178 198 c 2,27,-1
 178 -4 l 1,28,29
 156 -2 156 -2 142 -1 c 128,-1,30
 128 0 128 0 123 0 c 256,31,32
 118 0 118 0 104.5 -1 c 128,-1,33
 91 -2 91 -2 69 -4 c 1,34,-1
 69 429 l 1,4,5
EndSplineSet
EndChar

StartChar: s
Encoding: 115 115 86
Width: 351
GlyphClass: 2
Flags: W
LayerCount: 2
Fore
SplineSet
56 94 m 1,0,1
 70 56 70 56 100 35 c 128,-1,2
 130 14 130 14 169 14 c 0,3,4
 200 14 200 14 225 33 c 0,5,6
 238 43 238 43 245.5 55.5 c 128,-1,7
 253 68 253 68 253 81 c 0,8,9
 253 117 253 117 226 131 c 0,10,11
 217 136 217 136 197.5 145.5 c 128,-1,12
 178 155 178 155 146 168 c 0,13,14
 91 192 91 192 62 221 c 0,15,16
 36 247 36 247 36 300 c 0,17,18
 36 332 36 332 48 357.5 c 128,-1,19
 60 383 60 383 80.5 401 c 128,-1,20
 101 419 101 419 128.5 429 c 128,-1,21
 156 439 156 439 187 439 c 0,22,23
 221 439 221 439 253.5 428.5 c 128,-1,24
 286 418 286 418 311 401 c 0,25,26
 311 400 311 400 310.5 398 c 128,-1,27
 310 396 310 396 310 397 c 2,28,-1
 310 398 l 1,29,30
 305 380 305 380 300 363.5 c 128,-1,31
 295 347 295 347 292 332 c 1,32,-1
 282 332 l 1,33,34
 275 360 275 360 249 384 c 0,35,36
 220 411 220 411 185 411 c 0,37,38
 153 411 153 411 129 395 c 128,-1,39
 105 379 105 379 105 347 c 0,40,41
 105 310 105 310 153 289 c 0,42,43
 173 279 173 279 193 270.5 c 128,-1,44
 213 262 213 262 233 254 c 0,45,46
 253 247 253 247 269 235.5 c 128,-1,47
 285 224 285 224 299 210 c 0,48,49
 326 181 326 181 326 126 c 0,50,51
 326 96 326 96 314 70.5 c 128,-1,52
 302 45 302 45 280 26 c 128,-1,53
 258 7 258 7 226.5 -3.5 c 128,-1,54
 195 -14 195 -14 155 -14 c 0,55,56
 123 -14 123 -14 92.5 -5 c 128,-1,57
 62 4 62 4 37 19 c 1,58,59
 40 39 40 39 43 57 c 128,-1,60
 46 75 46 75 48 94 c 1,61,-1
 56 94 l 1,0,1
EndSplineSet
EndChar

StartChar: t
Encoding: 116 116 87
Width: 300
GlyphClass: 2
Flags: W
LayerCount: 2
Fore
SplineSet
195 113 m 2,0,1
 195 87 195 87 196.5 70 c 128,-1,2
 198 53 198 53 203.5 41.5 c 128,-1,3
 209 30 209 30 219.5 24.5 c 128,-1,4
 230 19 230 19 250 18 c 0,5,6
 258 18 258 18 266 18 c 128,-1,7
 274 18 274 18 282 20 c 1,8,-1
 282 4 l 1,9,10
 259 -4 259 -4 236 -9 c 128,-1,11
 213 -14 213 -14 195 -14 c 0,12,13
 132 -14 132 -14 109 21 c 0,14,15
 98 39 98 39 92 66 c 128,-1,16
 86 93 86 93 86 128 c 2,17,-1
 86 390 l 1,18,-1
 24 390 l 1,19,-1
 24 410 l 1,20,-1
 24 430 l 1,21,-1
 86 430 l 1,22,-1
 86 540 l 1,23,24
 109 549 109 549 136 561 c 128,-1,25
 163 573 163 573 195 589 c 1,26,-1
 195 430 l 1,27,-1
 274 430 l 1,28,29
 273 422 273 422 273 418.5 c 128,-1,30
 273 415 273 415 273 410 c 0,31,32
 273 407 273 407 273 402.5 c 128,-1,33
 273 398 273 398 274 390 c 1,34,-1
 195 390 l 1,35,-1
 195 113 l 2,0,1
EndSplineSet
EndChar

StartChar: u
Encoding: 117 117 88
Width: 501
GlyphClass: 2
Flags: W
LayerCount: 2
Fore
SplineSet
450 -4 m 1,0,1
 430 -2 430 -2 417 -1 c 128,-1,2
 404 0 404 0 399 0 c 0,3,4
 393 0 393 0 380 -1 c 128,-1,5
 367 -2 367 -2 346 -4 c 1,6,-1
 346 79 l 1,7,8
 317 49 317 49 296.5 30 c 128,-1,9
 276 11 276 11 263 2 c 1,10,-1
 263 3 l 1,11,12
 249 -5 249 -5 231.5 -9.5 c 128,-1,13
 214 -14 214 -14 193 -14 c 0,14,15
 159 -14 159 -14 127 1.5 c 128,-1,16
 95 17 95 17 75 41 c 1,17,18
 53 76 53 76 53 144 c 2,19,-1
 53 429 l 1,20,21
 76 427 76 427 89 426 c 128,-1,22
 102 425 102 425 107 425 c 0,23,24
 113 425 113 425 126.5 426 c 128,-1,25
 140 427 140 427 162 429 c 1,26,-1
 162 181 l 2,27,28
 162 124 162 124 173 99 c 0,29,30
 185 73 185 73 204.5 58.5 c 128,-1,31
 224 44 224 44 249 44 c 0,32,33
 292 44 292 44 313 69 c 0,34,35
 332 91 332 91 337 124 c 0,36,37
 339 138 339 138 340 156 c 128,-1,38
 341 174 341 174 341 195 c 2,39,-1
 341 429 l 1,40,41
 365 427 365 427 378 426 c 128,-1,42
 391 425 391 425 396 425 c 256,43,44
 401 425 401 425 414.5 426 c 128,-1,45
 428 427 428 427 450 429 c 1,46,-1
 450 -4 l 1,0,1
EndSplineSet
EndChar

StartChar: v
Encoding: 118 118 89
Width: 451
GlyphClass: 2
Flags: W
LayerCount: 2
Fore
SplineSet
259 82 m 1,0,1
 277 130 277 130 294.5 177.5 c 128,-1,2
 312 225 312 225 328 270 c 128,-1,3
 344 315 344 315 358 355.5 c 128,-1,4
 372 396 372 396 382 429 c 1,5,6
 390 428 390 428 397 427.5 c 128,-1,7
 404 427 404 427 413 427 c 0,8,9
 419 427 419 427 425 427 c 128,-1,10
 431 427 431 427 436 428 c 1,11,12
 435 426 435 426 435 425.5 c 128,-1,13
 435 425 435 425 433 422 c 0,14,15
 422 399 422 399 410.5 371 c 128,-1,16
 399 343 399 343 385 311 c 1,17,-1
 384 306 l 1,18,-1
 384 307 l 1,19,20
 377 290 377 290 370 274 c 128,-1,21
 363 258 363 258 357 241 c 0,22,23
 348 220 348 220 338.5 197.5 c 128,-1,24
 329 175 329 175 321 153 c 0,25,26
 304 113 304 113 289 70.5 c 128,-1,27
 274 28 274 28 264 -4 c 1,28,29
 248 -2 248 -2 238 -1 c 128,-1,30
 228 0 228 0 223 0 c 0,31,32
 219 0 219 0 209 -1 c 128,-1,33
 199 -2 199 -2 182 -4 c 1,34,35
 134 136 134 136 95.5 241.5 c 128,-1,36
 57 347 57 347 25 429 c 1,37,38
 56 427 56 427 66.5 426 c 128,-1,39
 77 425 77 425 83 425 c 0,40,41
 88 425 88 425 104 426 c 128,-1,42
 120 427 120 427 146 429 c 1,43,-1
 259 82 l 1,0,1
EndSplineSet
EndChar

StartChar: w
Encoding: 119 119 90
Width: 702
GlyphClass: 2
Flags: W
LayerCount: 2
Fore
SplineSet
240 82 m 1,0,1
 254 125 254 125 269 171.5 c 128,-1,2
 284 218 284 218 297.5 263 c 128,-1,3
 311 308 311 308 323 350.5 c 128,-1,4
 335 393 335 393 344 429 c 1,5,6
 363 427 363 427 373.5 426 c 128,-1,7
 384 425 384 425 389 425 c 256,8,9
 394 425 394 425 405.5 426 c 128,-1,10
 417 427 417 427 434 429 c 1,11,-1
 536 84 l 1,12,13
 549 123 549 123 563.5 167 c 128,-1,14
 578 211 578 211 591.5 256 c 128,-1,15
 605 301 605 301 618 345 c 128,-1,16
 631 389 631 389 642 428 c 1,17,18
 649 427 649 427 656 427 c 128,-1,19
 663 427 663 427 671 427 c 0,20,21
 676 427 676 427 681.5 427 c 128,-1,22
 687 427 687 427 692 428 c 1,23,24
 676 386 676 386 664.5 355 c 128,-1,25
 653 324 653 324 640 289 c 0,26,27
 630 263 630 263 621 236.5 c 128,-1,28
 612 210 612 210 602 182 c 2,29,-1
 588 143 l 2,30,31
 577 108 577 108 565 70.5 c 128,-1,32
 553 33 553 33 542 -4 c 1,33,34
 525 -2 525 -2 514 -1 c 128,-1,35
 503 0 503 0 500 0 c 0,36,37
 496 0 496 0 485 -1 c 128,-1,38
 474 -2 474 -2 457 -4 c 1,39,-1
 354 332 l 1,40,41
 337 279 337 279 321 228 c 128,-1,42
 305 177 305 177 291 133 c 128,-1,43
 277 89 277 89 266.5 53.5 c 128,-1,44
 256 18 256 18 249 -4 c 1,45,46
 232 -2 232 -2 221 -1 c 128,-1,47
 210 0 210 0 206 0 c 256,48,49
 202 0 202 0 191 -1 c 128,-1,50
 180 -2 180 -2 163 -4 c 1,51,52
 125 127 125 127 90 233 c 128,-1,53
 55 339 55 339 23 429 c 1,54,55
 51 427 51 427 61 426 c 128,-1,56
 71 425 71 425 77 425 c 256,57,58
 83 425 83 425 98 426 c 128,-1,59
 113 427 113 427 138 429 c 1,60,-1
 240 82 l 1,0,1
EndSplineSet
EndChar

StartChar: x
Encoding: 120 120 91
Width: 451
GlyphClass: 2
Flags: W
LayerCount: 2
Fore
SplineSet
33 -11 m 1,0,-1
 41 -1 l 2,1,2
 39 -1 39 -1 37.5 -1.5 c 128,-1,3
 36 -2 36 -2 34 -2 c 0,4,5
 26 -3 26 -3 26 -5 c 1,6,7
 26 -3 26 -3 29 -3 c 2,8,-1
 33 -11 l 1,0,-1
198 168 m 1,9,10
 164 116 164 116 134 69.5 c 128,-1,11
 104 23 104 23 87 -3 c 1,12,-1
 76 -1 l 1,13,-1
 72 -1 l 1,14,-1
 69 -1 l 2,15,16
 66 0 66 0 62 0 c 128,-1,17
 58 0 58 0 56 0 c 256,18,19
 54 0 54 0 49.5 -0.5 c 128,-1,20
 45 -1 45 -1 41 -1 c 1,21,22
 89 66 89 66 123.5 114 c 128,-1,23
 158 162 158 162 180 194 c 1,24,25
 169 214 169 214 147 251.5 c 128,-1,26
 125 289 125 289 102 328 c 0,27,28
 88 351 88 351 76.5 370.5 c 128,-1,29
 65 390 65 390 56 404 c 2,30,-1
 41 428 l 1,31,32
 72 426 72 426 82 425.5 c 128,-1,33
 92 425 92 425 98 425 c 0,34,35
 105 425 105 425 123.5 426 c 128,-1,36
 142 427 142 427 169 429 c 1,37,38
 200 372 200 372 222.5 332 c 128,-1,39
 245 292 245 292 256 274 c 1,40,41
 284 314 284 314 312 355.5 c 128,-1,42
 340 397 340 397 360 429 c 1,43,44
 368 428 368 428 377.5 427.5 c 128,-1,45
 387 427 387 427 396 427 c 2,46,-1
 414 427 l 1,47,48
 379 386 379 386 347 344 c 128,-1,49
 315 302 315 302 273 247 c 1,50,51
 286 225 286 225 300.5 200.5 c 128,-1,52
 315 176 315 176 328 153 c 0,53,54
 334 142 334 142 343 126.5 c 128,-1,55
 352 111 352 111 365 90 c 0,56,57
 376 73 376 73 385 58 c 128,-1,58
 394 43 394 43 402 31 c 2,59,-1
 407 22 l 2,60,61
 410 16 410 16 414.5 9.5 c 128,-1,62
 419 3 419 3 423 -3 c 1,63,64
 396 -1 396 -1 383 -0.5 c 128,-1,65
 370 0 370 0 365 0 c 0,66,67
 359 0 359 0 340.5 -1 c 128,-1,68
 322 -2 322 -2 294 -4 c 1,69,-1
 198 168 l 1,9,10
EndSplineSet
EndChar

StartChar: y
Encoding: 121 121 92
Width: 451
GlyphClass: 2
Flags: W
LayerCount: 2
Fore
SplineSet
214 -11 m 1,0,-1
 130 189 l 1,1,-1
 28 429 l 1,2,3
 57 427 57 427 67.5 426 c 128,-1,4
 78 425 78 425 84 425 c 256,5,6
 90 425 90 425 107 426 c 128,-1,7
 124 427 124 427 150 429 c 1,8,9
 175 357 175 357 205 279 c 128,-1,10
 235 201 235 201 268 120 c 1,11,-1
 314 241 l 1,12,-1
 314 240 l 1,13,-1
 318 252 l 2,14,15
 335 295 335 295 351.5 341.5 c 128,-1,16
 368 388 368 388 382 429 c 1,17,18
 389 428 389 428 397.5 427.5 c 128,-1,19
 406 427 406 427 414 427 c 0,20,21
 421 427 421 427 425.5 427 c 128,-1,22
 430 427 430 427 436 428 c 1,23,24
 413 377 413 377 392 328.5 c 128,-1,25
 371 280 371 280 348 229 c 0,26,27
 291 98 291 98 243 -19.5 c 128,-1,28
 195 -137 195 -137 156 -243 c 1,29,30
 148 -242 148 -242 139.5 -241.5 c 128,-1,31
 131 -241 131 -241 122 -241 c 2,32,-1
 101 -241 l 1,33,-1
 214 -11 l 1,0,-1
EndSplineSet
EndChar

StartChar: z
Encoding: 122 122 93
Width: 451
GlyphClass: 2
Flags: W
LayerCount: 2
Fore
SplineSet
426 407 m 1,0,-1
 346 294 l 1,1,-1
 300 229 l 2,2,3
 295 222 295 222 290.5 215 c 128,-1,4
 286 208 286 208 281 201 c 2,5,-1
 254 163 l 2,6,7
 239 141 239 141 215.5 105 c 128,-1,8
 192 69 192 69 169 33 c 1,9,10
 230 33 230 33 294.5 35 c 128,-1,11
 359 37 359 37 416 42 c 1,12,13
 415 35 415 35 414.5 29.5 c 128,-1,14
 414 24 414 24 414 22 c 0,15,16
 414 19 414 19 414.5 13 c 128,-1,17
 415 7 415 7 416 0 c 1,18,-1
 34 0 l 1,19,-1
 34 25 l 1,20,21
 63 66 63 66 93 108.5 c 128,-1,22
 123 151 123 151 152 193 c 0,23,24
 182 237 182 237 219 291.5 c 128,-1,25
 256 346 256 346 289 397 c 1,26,27
 236 397 236 397 178.5 394.5 c 128,-1,28
 121 392 121 392 66 388 c 1,29,30
 68 395 68 395 68 400.5 c 128,-1,31
 68 406 68 406 68 408 c 0,32,33
 68 412 68 412 68 417 c 128,-1,34
 68 422 68 422 66 430 c 1,35,-1
 426 430 l 1,36,-1
 426 407 l 1,0,-1
EndSplineSet
EndChar

StartChar: braceleft
Encoding: 123 123 94
Width: 334
GlyphClass: 2
Flags: W
LayerCount: 2
Fore
SplineSet
311 -210 m 1,0,-1
 283 -210 l 2,1,2
 230 -210 230 -210 213 -202 c 0,3,4
 190 -196 190 -196 164 -167 c 0,5,6
 155 -157 155 -157 135 -103 c 1,7,8
 129 -64 129 -64 129 24 c 0,9,10
 129 123 129 123 121 146 c 0,11,12
 109 213 109 213 28 219 c 1,13,-1
 28 299 l 1,14,15
 102 299 102 299 121 372 c 1,16,-1
 126 427 l 1,17,-1
 129 487 l 2,18,19
 129 517 129 517 132 600 c 0,20,21
 134 658 134 658 174 698 c 0,22,23
 186 710 186 710 223 723 c 1,24,-1
 258 727 l 1,25,-1
 283 728 l 1,26,-1
 311 728 l 1,27,-1
 311 651 l 1,28,-1
 295 651 l 2,29,30
 247 651 247 651 227 632 c 0,31,32
 211 613 211 613 211 551 c 2,33,-1
 210 412 l 2,34,35
 210 396 210 396 206 390 c 0,36,37
 197 341 197 341 174 312 c 0,38,39
 155 287 155 287 109 259 c 1,40,41
 175 235 175 235 196 169 c 0,42,43
 209 128 209 128 211 39 c 2,44,-1
 213 -74 l 2,45,46
 214 -104 214 -104 233 -121 c 1,47,-1
 253 -129 l 1,48,49
 278 -134 278 -134 295 -134 c 2,50,-1
 311 -134 l 1,51,-1
 311 -210 l 1,0,-1
EndSplineSet
EndChar

StartChar: bar
Encoding: 124 124 95
Width: 260
GlyphClass: 2
Flags: W
LayerCount: 2
Fore
SplineSet
168 -210 m 1,0,-1
 92 -210 l 1,1,-1
 92 728 l 1,2,-1
 168 728 l 1,3,-1
 168 -210 l 1,0,-1
EndSplineSet
EndChar

StartChar: braceright
Encoding: 125 125 96
Width: 334
GlyphClass: 2
Flags: W
LayerCount: 2
Fore
SplineSet
306 219 m 1,0,1
 231 219 231 219 212 145 c 1,2,-1
 207 100 l 1,3,-1
 205 -17 l 2,4,5
 205 -43 205 -43 202 -77 c 0,6,7
 200 -117 200 -117 186.5 -141 c 128,-1,8
 173 -165 173 -165 156 -182 c 1,9,-1
 138 -193 l 1,10,-1
 111 -205 l 1,11,-1
 88 -209 l 1,12,-1
 50 -210 l 1,13,-1
 23 -210 l 1,14,-1
 23 -134 l 1,15,-1
 38 -134 l 2,16,17
 91 -134 91 -134 108 -109 c 0,18,19
 121 -90 121 -90 122 -33 c 2,20,-1
 123 62 l 1,21,-1
 126 122 l 2,22,23
 128 169 128 169 158 208 c 0,24,25
 183 242 183 242 224 259 c 1,26,27
 160 287 160 287 137 349 c 0,28,29
 122 390 122 390 122 479 c 2,30,-1
 122 539 l 1,31,-1
 119 600 l 2,32,33
 116 651 116 651 38 651 c 2,34,-1
 23 651 l 1,35,-1
 23 728 l 1,36,-1
 50 728 l 2,37,38
 102 728 102 728 125 718 c 0,39,40
 173 703 173 703 198 620 c 1,41,-1
 203 569 l 1,42,-1
 205 494 l 2,43,44
 206 448 206 448 212 369 c 0,45,46
 219 326 219 326 272 304 c 1,47,-1
 288 300 l 1,48,-1
 306 299 l 1,49,-1
 306 219 l 1,0,1
EndSplineSet
EndChar

StartChar: asciitilde
Encoding: 126 126 97
Width: 584
GlyphClass: 2
Flags: W
LayerCount: 2
Fore
SplineSet
542 329 m 1,0,1
 512 302 512 302 480 286 c 1,2,3
 431 272 431 272 407 273 c 2,4,-1
 379 274 l 1,5,-1
 363 274 l 1,6,-1
 352 278 l 2,7,8
 333 283 333 283 262 314 c 0,9,10
 208 338 208 338 170 338 c 0,11,12
 138 338 138 338 111 325 c 2,13,-1
 81 306 l 1,14,-1
 68 296 l 1,15,-1
 42 272 l 1,16,-1
 42 372 l 1,17,18
 93 428 93 428 178 431 c 0,19,20
 190 431 190 431 240 422 c 0,21,22
 253 416 253 416 332 388 c 2,23,-1
 382 370 l 1,24,-1
 403 365 l 1,25,-1
 416 365 l 2,26,27
 474 365 474 365 542 432 c 1,28,-1
 542 329 l 1,0,1
EndSplineSet
EndChar

StartChar: Oslash
Encoding: 216 216 98
Width: 778
GlyphClass: 2
Flags: W
LayerCount: 2
Fore
SplineSet
733 357 m 0,0,1
 733 254 733 254 694 171 c 0,2,3
 651 78 651 78 567.5 33 c 128,-1,4
 484 -12 484 -12 391 -12 c 0,5,6
 346 -12 346 -12 305 -2 c 1,7,-1
 286 -66 l 1,8,-1
 212 -66 l 1,9,-1
 238 21 l 1,10,11
 138 69 138 69 90 167 c 0,12,13
 48 252 48 252 48 348 c 0,14,15
 48 515 48 515 135 618 c 0,16,17
 227 729 227 729 391 729 c 0,18,19
 421 729 421 729 448 725 c 1,20,-1
 479 825 l 1,21,-1
 552 825 l 1,22,-1
 516 708 l 1,23,24
 624 669 624 669 681 569 c 0,25,26
 733 478 733 478 733 357 c 0,0,1
653 357 m 0,27,28
 654 575 654 575 497 644 c 1,29,-1
 323 59 l 1,30,31
 354 51 354 51 390 51 c 0,32,33
 518 50 518 50 589 142 c 0,34,35
 652 224 652 224 653 357 c 0,27,28
430 662 m 1,36,37
 411 665 411 665 392 665 c 0,38,39
 258 666 258 666 189 570 c 0,40,41
 129 487 129 487 128 347 c 0,42,43
 127 222 127 222 195 139 c 0,44,45
 222 106 222 106 257 85 c 1,46,-1
 430 662 l 1,36,37
EndSplineSet
EndChar

StartChar: ellipsis
Encoding: 8230 8230 99
Width: 823
GlyphClass: 2
Flags: W
LayerCount: 2
Fore
SplineSet
728 60 m 0,0,1
 728 40 728 40 713 25 c 128,-1,2
 698 10 698 10 677 10 c 256,3,4
 656 10 656 10 641.5 25 c 128,-1,5
 627 40 627 40 627 60 c 0,6,7
 627 81 627 81 641.5 96 c 128,-1,8
 656 111 656 111 677 111 c 256,9,10
 698 111 698 111 713 96 c 128,-1,11
 728 81 728 81 728 60 c 0,0,1
468 60 m 0,12,13
 468 40 468 40 453 25 c 128,-1,14
 438 10 438 10 417 10 c 256,15,16
 396 10 396 10 381.5 25 c 128,-1,17
 367 40 367 40 367 60 c 0,18,19
 367 81 367 81 381.5 96 c 128,-1,20
 396 111 396 111 417 111 c 256,21,22
 438 111 438 111 453 96 c 128,-1,23
 468 81 468 81 468 60 c 0,12,13
208 60 m 0,24,25
 208 40 208 40 193 25 c 128,-1,26
 178 10 178 10 157 10 c 256,27,28
 136 10 136 10 121.5 25 c 128,-1,29
 107 40 107 40 107 60 c 0,30,31
 107 81 107 81 121.5 96 c 128,-1,32
 136 111 136 111 157 111 c 256,33,34
 178 111 178 111 193 96 c 128,-1,35
 208 81 208 81 208 60 c 0,24,25
EndSplineSet
EndChar

StartChar: endash
Encoding: 8211 8211 100
Width: 400
GlyphClass: 2
Flags: W
LayerCount: 2
Fore
SplineSet
375 250 m 1,0,-1
 365 200 l 1,1,-1
 37 200 l 1,2,-1
 47 250 l 1,3,-1
 375 250 l 1,0,-1
EndSplineSet
EndChar

StartChar: emdash
Encoding: 8212 8212 101
Width: 1000
GlyphClass: 2
Flags: W
LayerCount: 2
Fore
SplineSet
966 250 m 1,0,-1
 956 200 l 1,1,-1
 40 200 l 1,2,-1
 50 250 l 1,3,-1
 966 250 l 1,0,-1
EndSplineSet
EndChar

StartChar: quotedblleft
Encoding: 8220 8220 102
Width: 577
GlyphClass: 2
Flags: W
LayerCount: 2
Fore
SplineSet
510 538 m 0,0,1
 510 494 510 494 480.5 463 c 128,-1,2
 451 432 451 432 407 432 c 0,3,4
 357 432 357 432 325 484 c 0,5,6
 297 530 297 530 297 588 c 0,7,8
 297 645 297 645 347 707 c 0,9,10
 387 756 387 756 442 781 c 1,11,-1
 502 781 l 1,12,13
 465 760 465 760 441.5 714.5 c 128,-1,14
 418 669 418 669 418 625 c 1,15,16
 458 625 458 625 488 598 c 0,17,18
 510 573 510 573 510 538 c 0,0,1
240 538 m 0,19,20
 240 494 240 494 210.5 463 c 128,-1,21
 181 432 181 432 137 432 c 0,22,23
 87 432 87 432 55 484 c 0,24,25
 27 530 27 530 27 588 c 0,26,27
 27 645 27 645 77 707 c 0,28,29
 117 756 117 756 172 781 c 1,30,-1
 232 781 l 1,31,32
 195 760 195 760 171.5 714.5 c 128,-1,33
 148 669 148 669 148 625 c 1,34,35
 188 625 188 625 218 598 c 0,36,37
 240 573 240 573 240 538 c 0,19,20
EndSplineSet
EndChar

StartChar: quotedblright
Encoding: 8221 8221 103
Width: 565
GlyphClass: 2
Flags: W
LayerCount: 2
Fore
SplineSet
503 625 m 0,0,1
 503 571 503 571 453 506 c 0,2,3
 413 454 413 454 358 432 c 1,4,-1
 298 432 l 1,5,6
 334 451 334 451 359 495.5 c 128,-1,7
 384 540 384 540 384 572 c 2,8,-1
 382 588 l 1,9,10
 338 588 338 588 309 615 c 1,11,12
 286 643 286 643 286 686 c 0,13,14
 289 722 289 722 324 751.5 c 128,-1,15
 359 781 359 781 395 781 c 0,16,17
 445 781 445 781 476 729 c 0,18,19
 503 684 503 684 503 625 c 0,0,1
253 625 m 0,20,21
 253 571 253 571 203 506 c 0,22,23
 163 454 163 454 108 432 c 1,24,-1
 48 432 l 1,25,26
 84 451 84 451 109 495.5 c 128,-1,27
 134 540 134 540 134 572 c 2,28,-1
 132 588 l 1,29,30
 88 588 88 588 59 615 c 1,31,32
 36 643 36 643 36 686 c 0,33,34
 39 722 39 722 74 751.5 c 128,-1,35
 109 781 109 781 145 781 c 0,36,37
 195 781 195 781 226 729 c 0,38,39
 253 684 253 684 253 625 c 0,20,21
EndSplineSet
EndChar

StartChar: quoteleft
Encoding: 8216 8216 104
Width: 301
GlyphClass: 2
Flags: W
LayerCount: 2
Fore
SplineSet
240 538 m 0,0,1
 240 494 240 494 210.5 463 c 128,-1,2
 181 432 181 432 137 432 c 0,3,4
 87 432 87 432 55 484 c 0,5,6
 27 530 27 530 27 588 c 0,7,8
 27 645 27 645 77 707 c 0,9,10
 117 756 117 756 172 781 c 1,11,-1
 232 781 l 1,12,13
 195 760 195 760 171.5 714.5 c 128,-1,14
 148 669 148 669 148 625 c 1,15,16
 188 625 188 625 218 598 c 0,17,18
 240 573 240 573 240 538 c 0,0,1
EndSplineSet
EndChar

StartChar: quoteright
Encoding: 8217 8217 105
Width: 256
GlyphClass: 2
Flags: W
LayerCount: 2
Fore
SplineSet
223 625 m 0,0,1
 223 571 223 571 173 506 c 0,2,3
 133 454 133 454 78 432 c 1,4,-1
 18 432 l 1,5,6
 54 451 54 451 79 495.5 c 128,-1,7
 104 540 104 540 104 572 c 2,8,-1
 102 588 l 1,9,10
 58 588 58 588 29 615 c 1,11,12
 6 643 6 643 6 686 c 0,13,14
 9 722 9 722 44 751.5 c 128,-1,15
 79 781 79 781 115 781 c 0,16,17
 165 781 165 781 196 729 c 0,18,19
 223 684 223 684 223 625 c 0,0,1
EndSplineSet
EndChar

StartChar: divide
Encoding: 247 247 106
Width: 611
GlyphClass: 2
Flags: W
LayerCount: 2
Fore
SplineSet
370 493 m 0,0,1
 370 471 370 471 355.5 454.5 c 128,-1,2
 341 438 341 438 320 438 c 0,3,4
 296 438 296 438 278 451.5 c 128,-1,5
 260 465 260 465 260 488 c 256,6,7
 260 511 260 511 276 527 c 128,-1,8
 292 543 292 543 315 543 c 0,9,10
 337 543 337 543 353.5 528.5 c 128,-1,11
 370 514 370 514 370 493 c 0,0,1
526 315 m 1,12,-1
 107 315 l 1,13,-1
 107 377 l 1,14,-1
 526 377 l 1,15,-1
 526 315 l 1,12,-1
370 204 m 0,16,17
 370 182 370 182 355.5 165.5 c 128,-1,18
 341 149 341 149 320 149 c 0,19,20
 296 149 296 149 278 162.5 c 128,-1,21
 260 176 260 176 260 199 c 256,22,23
 260 222 260 222 276 238 c 128,-1,24
 292 254 292 254 315 254 c 0,25,26
 337 254 337 254 353.5 239.5 c 128,-1,27
 370 225 370 225 370 204 c 0,16,17
EndSplineSet
EndChar

StartChar: minus
Encoding: 173 173 107
Width: 380
GlyphClass: 2
Flags: W
LayerCount: 2
Fore
SplineSet
340 250 m 1,0,-1
 330 200 l 1,1,-1
 40 200 l 1,2,-1
 50 250 l 1,3,-1
 340 250 l 1,0,-1
EndSplineSet
EndChar

StartChar: multiply
Encoding: 215 215 108
Width: 621
GlyphClass: 2
Flags: W
LayerCount: 2
Fore
SplineSet
506 200 m 1,0,-1
 463 157 l 1,1,-1
 315 304 l 1,2,-1
 167 157 l 1,3,-1
 124 200 l 1,4,-1
 271 348 l 1,5,-1
 124 495 l 1,6,-1
 168 539 l 1,7,-1
 315 392 l 1,8,-1
 462 539 l 1,9,-1
 506 495 l 1,10,-1
 359 348 l 1,11,-1
 506 200 l 1,0,-1
EndSplineSet
EndChar

StartChar: onehalf
Encoding: 189 189 109
Width: 568
GlyphClass: 2
Flags: W
LayerCount: 2
Fore
SplineSet
378 690 m 1,0,-1
 145 3 l 1,1,-1
 108 3 l 1,2,-1
 342 690 l 1,3,-1
 378 690 l 1,0,-1
523 1 m 1,4,-1
 281 1 l 1,5,6
 281 65 281 65 334 112 c 1,7,-1
 433 174 l 2,8,9
 487 208 487 208 487 243 c 0,10,11
 487 273 487 273 459.5 299 c 128,-1,12
 432 325 432 325 402 325 c 0,13,14
 373 325 373 325 350.5 301.5 c 128,-1,15
 328 278 328 278 328 249 c 0,16,17
 328 233 328 233 330 231 c 2,18,-1
 294 231 l 1,19,-1
 292 250 l 1,20,21
 292 292 292 292 326 322 c 128,-1,22
 360 352 360 352 402 352 c 0,23,24
 452 352 452 352 487.5 322 c 128,-1,25
 523 292 523 292 523 243 c 0,26,27
 523 192 523 192 473 164 c 2,28,-1
 378 111 l 2,29,30
 323 80 323 80 323 37 c 1,31,-1
 523 37 l 1,32,-1
 523 1 l 1,4,-1
155 298 m 1,33,-1
 119 298 l 1,34,-1
 119 552 l 1,35,-1
 34 552 l 1,36,-1
 34 577 l 1,37,-1
 59 577 l 2,38,39
 88 577 88 577 109.5 594.5 c 128,-1,40
 131 612 131 612 131 637 c 2,41,-1
 131 649 l 1,42,-1
 155 649 l 1,43,-1
 155 298 l 1,33,-1
EndSplineSet
EndChar

StartChar: onequarter
Encoding: 186 186 110
Width: 508
GlyphClass: 2
Flags: W
LayerCount: 2
Fore
SplineSet
378 690 m 1,0,-1
 145 3 l 1,1,-1
 108 3 l 1,2,-1
 342 690 l 1,3,-1
 378 690 l 1,0,-1
155 298 m 1,4,-1
 119 298 l 1,5,-1
 119 552 l 1,6,-1
 34 552 l 1,7,-1
 34 577 l 1,8,-1
 59 577 l 2,9,10
 88 577 88 577 109.5 594.5 c 128,-1,11
 131 612 131 612 131 637 c 2,12,-1
 131 649 l 1,13,-1
 155 649 l 1,14,-1
 155 298 l 1,4,-1
481 94 m 1,15,-1
 432 94 l 1,16,-1
 432 6 l 1,17,-1
 396 6 l 1,18,-1
 396 94 l 1,19,-1
 239 94 l 1,20,-1
 239 139 l 1,21,-1
 396 345 l 1,22,-1
 432 345 l 1,23,-1
 432 127 l 1,24,-1
 481 127 l 1,25,-1
 481 94 l 1,15,-1
396 127 m 1,26,-1
 396 302 l 1,27,-1
 275 139 l 1,28,-1
 275 127 l 1,29,-1
 396 127 l 1,26,-1
EndSplineSet
EndChar

StartChar: threequarters
Encoding: 190 190 111
Width: 592
GlyphClass: 2
Flags: W
LayerCount: 2
Fore
SplineSet
448 690 m 1,0,-1
 215 3 l 1,1,-1
 178 3 l 1,2,-1
 412 690 l 1,3,-1
 448 690 l 1,0,-1
271 416 m 0,4,5
 271 372 271 372 233 340.5 c 128,-1,6
 195 309 195 309 150 309 c 0,7,8
 102 309 102 309 67 342 c 128,-1,9
 32 375 32 375 32 419 c 1,10,-1
 59 419 l 1,11,-1
 60 402 l 2,12,13
 61 393 61 393 68 381 c 0,14,15
 74 366 74 366 90 356 c 0,16,17
 116 335 116 335 150 335 c 0,18,19
 181 335 181 335 206.5 358.5 c 128,-1,20
 232 382 232 382 232 413 c 0,21,22
 232 440 232 440 214 464 c 0,23,24
 199 484 199 484 172 489 c 1,25,-1
 129 489 l 1,26,-1
 129 515 l 1,27,-1
 175 515 l 1,28,29
 223 535 223 535 223 577 c 0,30,31
 223 605 223 605 200.5 625 c 128,-1,32
 178 645 178 645 150 645 c 0,33,34
 91 645 91 645 68 560 c 1,35,-1
 38 560 l 1,36,37
 38 580 38 580 47 604 c 2,38,-1
 58 624 l 1,39,-1
 73 640 l 2,40,41
 105 674 105 674 150 674 c 256,42,43
 195 674 195 674 227 646 c 128,-1,44
 259 618 259 618 259 579 c 0,45,46
 259 537 259 537 211 504 c 1,47,48
 223 501 223 501 234 490 c 2,49,-1
 254 469 l 1,50,51
 271 444 271 444 271 416 c 0,4,5
551 94 m 1,52,-1
 502 94 l 1,53,-1
 502 6 l 1,54,-1
 466 6 l 1,55,-1
 466 94 l 1,56,-1
 309 94 l 1,57,-1
 309 139 l 1,58,-1
 466 345 l 1,59,-1
 502 345 l 1,60,-1
 502 127 l 1,61,-1
 551 127 l 1,62,-1
 551 94 l 1,52,-1
466 127 m 1,63,-1
 466 302 l 1,64,-1
 345 139 l 1,65,-1
 345 127 l 1,66,-1
 466 127 l 1,63,-1
EndSplineSet
EndChar

StartChar: zeronojoin
Encoding: 8204 8204 112
Width: 0
GlyphClass: 2
Flags: W
LayerCount: 2
Fore
SplineSet
180 700 m 1,0,-1
 -19 -295 l 1,1,-1
 -59 -295 l 1,2,-1
 140 700 l 1,3,-1
 180 700 l 1,0,-1
EndSplineSet
EndChar

StartChar: circledash
Encoding: 9676 9676 113
Width: 667
GlyphClass: 2
Flags: W
LayerCount: 2
Fore
SplineSet
512 385 m 256,0,1
 512 372 512 372 502.5 362 c 128,-1,2
 493 352 493 352 480 352 c 0,3,4
 447 352 447 352 447 385 c 0,5,6
 447 396 447 396 456 407 c 0,7,8
 464 415 464 415 480 417 c 0,9,10
 493 417 493 417 502.5 407.5 c 128,-1,11
 512 398 512 398 512 385 c 256,0,1
588 307 m 0,12,13
 588 295 588 295 578 285 c 128,-1,14
 568 275 568 275 556 275 c 0,15,16
 545 275 545 275 534.5 284 c 128,-1,17
 524 293 524 293 524 307 c 0,18,19
 524 319 524 319 533 329 c 128,-1,20
 542 339 542 339 556 340 c 0,21,22
 568 340 568 340 578 330 c 128,-1,23
 588 320 588 320 588 307 c 0,12,13
407 413 m 0,24,25
 407 399 407 399 397.5 389.5 c 128,-1,26
 388 380 388 380 374 380 c 0,27,28
 363 380 363 380 352.5 389 c 128,-1,29
 342 398 342 398 342 413 c 0,30,31
 342 424 342 424 351.5 434.5 c 128,-1,32
 361 445 361 445 374 445 c 256,33,34
 387 445 387 445 397 435.5 c 128,-1,35
 407 426 407 426 407 413 c 0,24,25
617 202 m 0,36,37
 617 190 617 190 607 180 c 128,-1,38
 597 170 597 170 585 170 c 0,39,40
 552 170 552 170 552 202 c 0,41,42
 552 213 552 213 561 224 c 0,43,44
 569 232 569 232 585 234 c 0,45,46
 616 234 616 234 617 202 c 0,36,37
301 385 m 256,47,48
 301 372 301 372 291.5 362 c 128,-1,49
 282 352 282 352 269 352 c 0,50,51
 258 352 258 352 247.5 361 c 128,-1,52
 237 370 237 370 237 385 c 0,53,54
 237 396 237 396 246 406 c 128,-1,55
 255 416 255 416 269 417 c 0,56,57
 282 417 282 417 291.5 407.5 c 128,-1,58
 301 398 301 398 301 385 c 256,47,48
588 97 m 256,59,60
 588 84 588 84 578.5 74 c 128,-1,61
 569 64 569 64 556 64 c 0,62,63
 545 64 545 64 534.5 73 c 128,-1,64
 524 82 524 82 524 97 c 0,65,66
 524 108 524 108 533 118 c 128,-1,67
 542 128 542 128 556 129 c 0,68,69
 569 129 569 129 578.5 119.5 c 128,-1,70
 588 110 588 110 588 97 c 256,59,60
512 19 m 0,71,72
 512 6 512 6 502.5 -3.5 c 128,-1,73
 493 -13 493 -13 480 -13 c 256,74,75
 467 -13 467 -13 457 -3.5 c 128,-1,76
 447 6 447 6 447 19 c 256,77,78
 447 32 447 32 456 43 c 0,79,80
 464 51 464 51 480 53 c 0,81,82
 508 53 508 53 512 19 c 0,71,72
224 307 m 0,83,84
 224 295 224 295 214 285 c 128,-1,85
 204 275 204 275 192 275 c 0,86,87
 159 275 159 275 159 307 c 0,88,89
 159 319 159 319 168 330 c 0,90,91
 176 338 176 338 192 340 c 0,92,93
 205 340 205 340 214.5 330 c 128,-1,94
 224 320 224 320 224 307 c 0,83,84
407 -9 m 0,95,96
 407 -21 407 -21 397 -31 c 128,-1,97
 387 -41 387 -41 374 -41 c 0,98,99
 362 -41 362 -41 352 -31 c 128,-1,100
 342 -21 342 -21 342 -9 c 256,101,102
 342 3 342 3 351.5 13.5 c 128,-1,103
 361 24 361 24 374 24 c 256,104,105
 387 24 387 24 396.5 14 c 128,-1,106
 406 4 406 4 407 -9 c 0,95,96
196 202 m 0,107,108
 196 190 196 190 186 180 c 128,-1,109
 176 170 176 170 164 170 c 0,110,111
 131 170 131 170 131 202 c 0,112,113
 131 213 131 213 140 224 c 0,114,115
 148 232 148 232 164 234 c 0,116,117
 195 234 195 234 196 202 c 0,107,108
301 19 m 0,118,119
 301 -12 301 -12 269 -13 c 0,120,121
 257 -13 257 -13 247 -3 c 128,-1,122
 237 7 237 7 237 19 c 0,123,124
 237 32 237 32 246 42 c 128,-1,125
 255 52 255 52 269 53 c 0,126,127
 297 54 297 54 301 19 c 0,118,119
224 97 m 256,128,129
 224 84 224 84 214.5 74 c 128,-1,130
 205 64 205 64 192 64 c 0,131,132
 159 64 159 64 159 97 c 0,133,134
 159 108 159 108 168 119 c 0,135,136
 176 127 176 127 192 129 c 0,137,138
 205 129 205 129 214.5 119.5 c 128,-1,139
 224 110 224 110 224 97 c 256,128,129
EndSplineSet
EndChar

StartChar: u0B82
Encoding: 2946 2946 114
Width: 247
GlyphClass: 2
Flags: W
LayerCount: 2
Fore
SplineSet
216 437 m 256,0,1
 216 400 216 400 189.5 374 c 128,-1,2
 163 348 163 348 126 348 c 0,3,4
 88 348 88 348 61.5 373.5 c 128,-1,5
 35 399 35 399 35 437 c 256,6,7
 35 475 35 475 61.5 500.5 c 128,-1,8
 88 526 88 526 126 526 c 0,9,10
 163 526 163 526 189.5 500 c 128,-1,11
 216 474 216 474 216 437 c 256,0,1
184 437 m 256,12,13
 184 462 184 462 167 478.5 c 128,-1,14
 150 495 150 495 125 495 c 0,15,16
 101 495 101 495 84 478 c 128,-1,17
 67 461 67 461 67 437 c 256,18,19
 67 413 67 413 84 396 c 128,-1,20
 101 379 101 379 125 379 c 0,21,22
 150 379 150 379 167 395.5 c 128,-1,23
 184 412 184 412 184 437 c 256,12,13
EndSplineSet
EndChar

StartChar: u0B83
Encoding: 2947 2947 115
Width: 714
GlyphClass: 2
Flags: W
LayerCount: 2
Fore
SplineSet
478 414 m 0,0,1
 478 362 478 362 439 333 c 0,2,3
 404 307 404 307 350 307 c 0,4,5
 297 307 297 307 267.5 339.5 c 128,-1,6
 238 372 238 372 238 416 c 0,7,8
 238 465 238 465 270 493.5 c 128,-1,9
 302 522 302 522 352 520 c 2,10,-1
 379 519 l 2,11,12
 388 519 388 519 407 512 c 0,13,14
 478 495 478 495 478 414 c 0,0,1
705 107 m 0,15,16
 705 55 705 55 666 26 c 0,17,18
 631 0 631 0 577 0 c 0,19,20
 529 0 529 0 497 30.5 c 128,-1,21
 465 61 465 61 465 109 c 0,22,23
 465 158 465 158 497 186.5 c 128,-1,24
 529 215 529 215 578 213 c 2,25,-1
 605 212 l 1,26,-1
 634 206 l 2,27,28
 705 191 705 191 705 107 c 0,15,16
257 104 m 0,29,30
 257 52 257 52 218 23 c 0,31,32
 183 -3 183 -3 129 -3 c 0,33,34
 80 -3 80 -3 48.5 27 c 128,-1,35
 17 57 17 57 17 106 c 0,36,37
 17 156 17 156 50 184 c 128,-1,38
 83 212 83 212 131 210 c 2,39,-1
 158 209 l 2,40,41
 167 209 167 209 186 202 c 0,42,43
 257 185 257 185 257 104 c 0,29,30
369 417 m 0,44,45
 369 473 369 473 325 473 c 0,46,47
 304 473 304 473 293 455.5 c 128,-1,48
 282 438 282 438 282 416 c 0,49,50
 282 359 282 359 325 359 c 0,51,52
 345 359 345 359 358 379 c 0,53,54
 369 396 369 396 369 417 c 0,44,45
596 110 m 0,55,56
 596 166 596 166 552 166 c 0,57,58
 509 166 509 166 509 109 c 256,59,60
 509 52 509 52 552 52 c 0,61,62
 572 52 572 52 585 72 c 0,63,64
 596 89 596 89 596 110 c 0,55,56
148 107 m 0,65,66
 148 163 148 163 104 163 c 0,67,68
 83 163 83 163 72 145.5 c 128,-1,69
 61 128 61 128 61 106 c 0,70,71
 61 49 61 49 104 49 c 0,72,73
 124 49 124 49 137 69 c 0,74,75
 148 86 148 86 148 107 c 0,65,66
EndSplineSet
EndChar

StartChar: u0B85
Encoding: 2949 2949 116
Width: 958
GlyphClass: 2
Flags: W
LayerCount: 2
Fore
SplineSet
920 -87 m 1,0,-1
 802 -87 l 1,1,-1
 802 115 l 1,2,-1
 743 115 l 1,3,4
 686 -83 686 -83 404 -83 c 0,5,6
 284 -83 284 -83 173 -29 c 0,7,8
 69 22 69 22 49 74 c 2,9,-1
 41 95 l 1,10,-1
 38 115 l 1,11,12
 38 163 38 163 144 163 c 2,13,-1
 634 163 l 1,14,15
 640 190 640 190 640 221 c 0,16,17
 640 307 640 307 598 361 c 0,18,19
 551 421 551 421 467 421 c 1,20,21
 539 403 539 403 539 323 c 0,22,23
 539 272 539 272 499 243 c 0,24,25
 464 216 464 216 411 216 c 0,26,27
 363 216 363 216 331 246.5 c 128,-1,28
 299 277 299 277 299 325 c 0,29,30
 299 389 299 389 353 423 c 0,31,32
 398 452 398 452 466 452 c 0,33,34
 582 452 582 452 668 384 c 0,35,36
 760 309 760 309 753 205 c 2,37,-1
 750 163 l 1,38,-1
 802 163 l 1,39,-1
 802 438 l 1,40,-1
 919 438 l 1,41,-1
 920 -87 l 1,0,-1
430 326 m 0,42,43
 430 382 430 382 386 382 c 0,44,45
 370 382 370 382 354 366 c 0,46,47
 343 352 343 352 343 325 c 0,48,49
 343 268 343 268 386 268 c 0,50,51
 406 268 406 268 419 288 c 0,52,53
 430 305 430 305 430 326 c 0,42,43
630 116 m 1,54,-1
 167 116 l 2,55,56
 129 116 129 116 123 81 c 1,57,58
 123 27 123 27 238 -17 c 0,59,60
 322 -49 322 -49 411 -49 c 0,61,62
 494 -49 494 -49 554 -8 c 0,63,64
 620 37 620 37 630 116 c 1,54,-1
EndSplineSet
EndChar

StartChar: u0B86
Encoding: 2950 2950 117
Width: 1148
GlyphClass: 2
Flags: W
LayerCount: 2
Fore
SplineSet
1120 -62 m 0,0,1
 1120 -145 1120 -145 1046 -181 c 0,2,3
 990 -208 990 -208 869 -208 c 0,4,5
 621 -208 621 -208 621 -100 c 0,6,7
 621 -74 621 -74 643 -59 c 0,8,9
 662 -46 662 -46 689 -46 c 2,10,-1
 773 -46 l 1,11,-1
 773 -88 l 1,12,-1
 722 -88 l 2,13,14
 674 -88 674 -88 674 -110 c 0,15,16
 674 -118 674 -118 679 -124 c 0,17,18
 702 -165 702 -165 872 -165 c 0,19,20
 945 -165 945 -165 977 -145 c 0,21,22
 1018 -120 1018 -120 1018 -59 c 0,23,24
 1018 4 1018 4 973 4 c 0,25,26
 951 4 951 4 935.5 -14.5 c 128,-1,27
 920 -33 920 -33 920 -56 c 2,28,-1
 920 -87 l 1,29,-1
 802 -87 l 1,30,-1
 802 115 l 1,31,-1
 743 115 l 1,32,33
 686 -83 686 -83 404 -83 c 0,34,35
 284 -83 284 -83 173 -29 c 0,36,37
 69 22 69 22 49 74 c 2,38,-1
 41 95 l 1,39,-1
 38 115 l 1,40,41
 38 163 38 163 144 163 c 2,42,-1
 634 163 l 1,43,44
 640 190 640 190 640 221 c 0,45,46
 640 307 640 307 598 361 c 0,47,48
 551 421 551 421 467 421 c 1,49,50
 539 403 539 403 539 323 c 0,51,52
 539 272 539 272 499 243 c 0,53,54
 464 216 464 216 411 216 c 0,55,56
 363 216 363 216 331 246.5 c 128,-1,57
 299 277 299 277 299 325 c 0,58,59
 299 389 299 389 353 423 c 0,60,61
 398 452 398 452 466 452 c 0,62,63
 582 452 582 452 668 384 c 0,64,65
 760 309 760 309 753 205 c 2,66,-1
 750 163 l 1,67,-1
 802 163 l 1,68,-1
 802 438 l 1,69,-1
 919 438 l 1,70,-1
 919 30 l 1,71,72
 938 61 938 61 997 61 c 0,73,74
 1049 61 1049 61 1082 32 c 0,75,76
 1120 -2 1120 -2 1120 -62 c 0,0,1
430 326 m 0,77,78
 430 382 430 382 386 382 c 0,79,80
 370 382 370 382 354 366 c 0,81,82
 343 352 343 352 343 325 c 0,83,84
 343 268 343 268 386 268 c 0,85,86
 406 268 406 268 419 288 c 0,87,88
 430 305 430 305 430 326 c 0,77,78
630 116 m 1,89,-1
 167 116 l 2,90,91
 129 116 129 116 123 81 c 1,92,93
 123 27 123 27 238 -17 c 0,94,95
 322 -49 322 -49 411 -49 c 0,96,97
 494 -49 494 -49 554 -8 c 0,98,99
 620 37 620 37 630 116 c 1,89,-1
EndSplineSet
EndChar

StartChar: u0B87
Encoding: 2951 2951 118
Width: 812
GlyphClass: 2
Flags: W
LayerCount: 2
Fore
SplineSet
779 -6 m 0,0,1
 779 -77 779 -77 704 -113 c 0,2,3
 647 -140 647 -140 567 -140 c 0,4,5
 477 -140 477 -140 390 -108 c 1,6,-1
 307 -134 l 1,7,-1
 263 -139 l 1,8,-1
 202 -141 l 2,9,10
 169 -142 169 -142 132 -128 c 0,11,12
 125 -125 125 -125 108 -115 c 0,13,14
 35 -73 35 -73 35 -7 c 256,15,16
 35 59 35 59 125 115 c 1,17,18
 94 165 94 165 86 191 c 0,19,20
 67 250 67 250 67 328 c 0,21,22
 67 434 67 434 146 523 c 0,23,24
 241 631 241 631 396 631 c 0,25,26
 756 631 756 631 756 278 c 2,27,-1
 756 154 l 1,28,-1
 716 154 l 1,29,-1
 716 249 l 2,30,31
 716 370 716 370 655 446 c 0,32,33
 574 546 574 546 399 546 c 0,34,35
 270 546 270 546 191 473 c 0,36,37
 117 405 117 405 117 319 c 0,38,39
 117 257 117 257 127.5 215 c 128,-1,40
 138 173 138 173 165 133 c 1,41,42
 286 176 286 176 401 176 c 2,43,-1
 433 176 l 2,44,45
 440 176 440 176 459 174 c 2,46,-1
 517 168 l 1,47,48
 528 196 528 196 528 242 c 0,49,50
 528 309 528 309 503 356 c 0,51,52
 471 415 471 415 409 412 c 2,53,-1
 388 411 l 1,54,-1
 364 405 l 1,55,56
 387 405 387 405 401.5 401 c 128,-1,57
 416 397 416 397 430 385 c 0,58,59
 461 359 461 359 461 311 c 0,60,61
 461 266 461 266 426.5 238 c 128,-1,62
 392 210 392 210 334 210 c 0,63,64
 292 210 292 210 263.5 238 c 128,-1,65
 235 266 235 266 235 307 c 0,66,67
 235 383 235 383 290 425 c 0,68,69
 335 459 335 459 401 459 c 0,70,71
 511 459 511 459 574 384 c 0,72,73
 631 317 631 317 628 216 c 2,74,-1
 627 182 l 2,75,76
 627 169 627 169 621 145 c 1,77,78
 674 130 674 130 719 97 c 0,79,80
 779 53 779 53 779 -6 c 0,0,1
366 309 m 0,81,82
 366 361 366 361 323 361 c 0,83,84
 281 361 281 361 281 308 c 0,85,86
 281 256 281 256 322 256 c 0,87,88
 366 256 366 256 366 309 c 0,81,82
692 4 m 0,89,90
 692 31 692 31 661 59 c 0,91,92
 637 81 637 81 606 95 c 1,93,94
 579 23 579 23 528 -24 c 0,95,96
 509 -42 509 -42 445 -80 c 1,97,98
 529 -94 529 -94 562 -94 c 0,99,100
 692 -94 692 -94 692 4 c 0,89,90
502 126 m 1,101,-1
 456 132 l 1,102,-1
 404 134 l 2,103,104
 289 138 289 138 195 88 c 1,105,106
 285 -14 285 -14 374 -48 c 1,107,108
 420 -13 420 -13 439 8 c 0,109,110
 482 55 482 55 502 126 c 1,101,-1
334 -76 m 1,111,112
 211 -10 211 -10 159 64 c 1,113,114
 125 38 125 38 125 0 c 0,115,116
 125 -31 125 -31 148 -60 c 1,117,118
 189 -96 189 -96 248 -96 c 0,119,120
 297 -96 297 -96 334 -76 c 1,111,112
EndSplineSet
EndChar

StartChar: u0B88
Encoding: 2952 2952 119
Width: 471
GlyphClass: 2
Flags: W
LayerCount: 2
Fore
SplineSet
411 215 m 1,0,1
 411 186 411 186 376 180 c 1,2,3
 348 180 348 180 342 215 c 1,4,5
 342 243 342 243 376 249 c 1,6,7
 405 249 405 249 411 215 c 1,0,1
431 392 m 1,8,-1
 312 392 l 1,9,-1
 312 0 l 1,10,-1
 195 0 l 1,11,-1
 195 392 l 1,12,-1
 88 392 l 1,13,-1
 88 0 l 1,14,-1
 43 0 l 1,15,-1
 43 437 l 1,16,-1
 431 437 l 1,17,-1
 431 392 l 1,8,-1
179 217 m 256,18,19
 179 182 179 182 145 182 c 0,20,21
 131 182 131 182 120 192 c 0,22,23
 113 200 113 200 110 217 c 0,24,25
 110 246 110 246 145 252 c 1,26,27
 179 252 179 252 179 217 c 256,18,19
EndSplineSet
EndChar

StartChar: u0B89
Encoding: 2953 2953 120
Width: 1024
GlyphClass: 2
Flags: W
LayerCount: 2
Fore
SplineSet
983 -1 m 1,0,-1
 53 -1 l 1,1,-1
 53 53 l 2,2,3
 53 87 53 87 78 106 c 0,4,5
 112 126 112 126 219 137 c 0,6,7
 291 144 291 144 318 169 c 0,8,9
 352 200 352 200 352 279 c 0,10,11
 352 345 352 345 304 380 c 0,12,13
 271 404 271 404 221 404 c 0,14,15
 138 404 138 404 107 354 c 1,16,17
 122 369 122 369 162 369 c 0,18,19
 208 369 208 369 240 343 c 128,-1,20
 272 317 272 317 272 272 c 0,21,22
 272 180 272 180 167 169 c 1,23,-1
 120 172 l 2,24,25
 104 175 104 175 85 188 c 0,26,27
 40 218 40 218 40 290 c 0,28,29
 40 360 40 360 97 404 c 0,30,31
 150 445 150 445 232 445 c 0,32,33
 379 445 379 445 437 365 c 0,34,35
 461 331 461 331 461 281 c 0,36,37
 461 228 461 228 446 196 c 0,38,39
 429 161 429 161 386 136 c 0,40,41
 340 108 340 108 228 96 c 0,42,43
 159 88 159 88 145 80 c 0,44,45
 142 79 142 79 137 59 c 1,46,-1
 137 45 l 1,47,-1
 983 45 l 1,48,-1
 983 -1 l 1,0,-1
185 267 m 0,49,50
 185 315 185 315 141 315 c 0,51,52
 95 315 95 315 95 267 c 1,53,-1
 98 243 l 2,54,55
 100 236 100 236 110 223 c 0,56,57
 118 215 118 215 134 210 c 1,58,59
 185 210 185 210 185 267 c 0,49,50
EndSplineSet
EndChar

StartChar: u0B8A
Encoding: 2954 2954 121
Width: 1074
GlyphClass: 2
Flags: W
LayerCount: 2
Fore
SplineSet
1043 392 m 1,0,-1
 994 392 l 1,1,-1
 994 93 l 1,2,-1
 910 93 l 1,3,-1
 910 392 l 1,4,-1
 843 392 l 1,5,-1
 843 93 l 1,6,-1
 760 93 l 1,7,-1
 760 278 l 2,8,9
 760 329 760 329 735 363 c 0,10,11
 707 402 707 402 658 402 c 0,12,13
 613 402 613 402 580 360 c 0,14,15
 550 322 550 322 550 279 c 1,16,17
 568 321 568 321 621 321 c 0,18,19
 667 321 667 321 696 288 c 128,-1,20
 725 255 725 255 725 209 c 0,21,22
 725 89 725 89 617 89 c 0,23,24
 587 89 587 89 559 118 c 0,25,26
 518 160 518 160 518 250 c 0,27,28
 518 330 518 330 560 385 c 0,29,30
 606 445 606 445 684 445 c 0,31,32
 723 445 723 445 756.5 430 c 128,-1,33
 790 415 790 415 806 384 c 1,34,-1
 806 438 l 1,35,-1
 1043 438 l 1,36,-1
 1043 392 l 1,0,-1
995 -1 m 1,37,-1
 53 -1 l 1,38,-1
 53 53 l 2,39,40
 53 87 53 87 78 106 c 0,41,42
 112 126 112 126 219 137 c 0,43,44
 291 144 291 144 318 169 c 0,45,46
 352 200 352 200 352 279 c 0,47,48
 352 345 352 345 304 380 c 0,49,50
 271 404 271 404 221 404 c 0,51,52
 138 404 138 404 107 354 c 1,53,54
 122 369 122 369 162 369 c 0,55,56
 208 369 208 369 240 343 c 128,-1,57
 272 317 272 317 272 272 c 0,58,59
 272 180 272 180 167 169 c 1,60,-1
 120 172 l 2,61,62
 104 175 104 175 85 188 c 0,63,64
 40 218 40 218 40 290 c 0,65,66
 40 360 40 360 97 404 c 0,67,68
 150 445 150 445 232 445 c 0,69,70
 379 445 379 445 437 365 c 0,71,72
 461 331 461 331 461 281 c 0,73,74
 461 228 461 228 446 196 c 0,75,76
 429 161 429 161 386 136 c 0,77,78
 340 108 340 108 228 96 c 0,79,80
 159 88 159 88 145 80 c 0,81,82
 142 79 142 79 137 59 c 1,83,-1
 137 45 l 1,84,-1
 995 45 l 1,85,-1
 995 -1 l 1,37,-1
641 212 m 0,86,87
 641 270 641 270 600 270 c 0,88,89
 578 270 578 270 567 250.5 c 128,-1,90
 556 231 556 231 556 207 c 0,91,92
 556 187 556 187 568 166 c 0,93,94
 578 152 578 152 595 149 c 0,95,96
 641 149 641 149 641 212 c 0,86,87
185 267 m 0,97,98
 185 315 185 315 141 315 c 0,99,100
 95 315 95 315 95 267 c 1,101,-1
 98 243 l 2,102,103
 100 236 100 236 110 223 c 0,104,105
 118 215 118 215 134 210 c 1,106,107
 185 210 185 210 185 267 c 0,97,98
EndSplineSet
EndChar

StartChar: uni0B8E
Encoding: 2958 2958 122
Width: 611
GlyphClass: 2
Flags: W
LayerCount: 2
Fore
SplineSet
586 393 m 1,0,-1
 518 393 l 1,1,-1
 518 0 l 1,2,-1
 402 -1 l 1,3,-1
 402 392 l 1,4,-1
 269 392 l 2,5,6
 195 392 195 392 141 345 c 0,7,8
 84 295 84 295 84 239 c 1,9,10
 105 284 105 284 180 284 c 0,11,12
 240 284 240 284 277 244.5 c 128,-1,13
 314 205 314 205 314 144 c 0,14,15
 314 40 314 40 239 3 c 0,16,17
 213 -10 213 -10 175 -10 c 0,18,19
 133 -10 133 -10 92 27 c 0,20,21
 33 80 33 80 33 195 c 0,22,23
 33 305 33 305 100.5 371 c 128,-1,24
 168 437 168 437 278 437 c 2,25,-1
 586 437 l 1,26,-1
 586 393 l 1,0,-1
210 146 m 0,27,28
 210 175 210 175 194.5 197.5 c 128,-1,29
 179 220 179 220 151 220 c 256,30,31
 123 220 123 220 105.5 194 c 128,-1,32
 88 168 88 168 88 140 c 0,33,34
 88 113 88 113 106 87 c 1,35,-1
 124 71 l 2,36,37
 133 65 133 65 144 65 c 0,38,39
 174 65 174 65 192 90 c 128,-1,40
 210 115 210 115 210 146 c 0,27,28
EndSplineSet
EndChar

StartChar: u0B8F
Encoding: 2959 2959 123
Width: 610
GlyphClass: 2
Flags: W
LayerCount: 2
Fore
SplineSet
586 393 m 1,0,-1
 518 393 l 1,1,-1
 518 0 l 1,2,-1
 299 -140 l 1,3,-1
 225 -140 l 1,4,-1
 402 -1 l 1,5,-1
 402 392 l 1,6,-1
 269 392 l 2,7,8
 195 392 195 392 141 345 c 0,9,10
 84 295 84 295 84 239 c 1,11,12
 105 284 105 284 180 284 c 0,13,14
 240 284 240 284 277 244.5 c 128,-1,15
 314 205 314 205 314 144 c 0,16,17
 314 40 314 40 239 3 c 0,18,19
 213 -10 213 -10 175 -10 c 0,20,21
 133 -10 133 -10 92 27 c 0,22,23
 33 80 33 80 33 195 c 0,24,25
 33 305 33 305 100.5 371 c 128,-1,26
 168 437 168 437 278 437 c 2,27,-1
 586 437 l 1,28,-1
 586 393 l 1,0,-1
210 146 m 0,29,30
 210 175 210 175 194.5 197.5 c 128,-1,31
 179 220 179 220 151 220 c 256,32,33
 123 220 123 220 105.5 194 c 128,-1,34
 88 168 88 168 88 140 c 0,35,36
 88 113 88 113 106 87 c 1,37,-1
 124 71 l 2,38,39
 133 65 133 65 144 65 c 0,40,41
 174 65 174 65 192 90 c 128,-1,42
 210 115 210 115 210 146 c 0,29,30
EndSplineSet
EndChar

StartChar: u0B90
Encoding: 2960 2960 124
Width: 796
GlyphClass: 2
Flags: W
LayerCount: 2
Fore
SplineSet
759 283 m 0,0,1
 759 69 759 69 551 69 c 2,2,-1
 255 68 l 2,3,4
 205 68 205 68 170.5 42 c 128,-1,5
 136 16 136 16 136 -33 c 0,6,7
 136 -80 136 -80 163 -110 c 128,-1,8
 190 -140 190 -140 237 -140 c 0,9,10
 355 -140 355 -140 355 -21 c 2,11,-1
 355 51 l 1,12,-1
 471 51 l 1,13,-1
 471 -27 l 2,14,15
 471 -90 471 -90 488 -115 c 0,16,17
 510 -147 510 -147 571 -147 c 0,18,19
 651 -147 651 -147 651 -71 c 0,20,21
 651 4 651 4 564 4 c 1,22,-1
 565 50 l 1,23,24
 752 50 752 50 752 -62 c 0,25,26
 752 -189 752 -189 591 -189 c 0,27,28
 423 -189 423 -189 399 -84 c 1,29,30
 376 -188 376 -188 249 -188 c 0,31,32
 33 -188 33 -188 33 -40 c 0,33,34
 33 117 33 117 230 117 c 2,35,-1
 547 118 l 2,36,37
 647 118 647 118 647 258 c 0,38,39
 647 380 647 380 566 380 c 0,40,41
 519 380 519 380 493 335 c 0,42,43
 470 297 470 297 470 247 c 2,44,-1
 470 155 l 1,45,-1
 353 155 l 1,46,-1
 353 262 l 2,47,48
 353 402 353 402 217 402 c 0,49,50
 117 402 117 402 96 341 c 1,51,52
 114 361 114 361 167 361 c 0,53,54
 215 361 215 361 246 330.5 c 128,-1,55
 277 300 277 300 277 252 c 0,56,57
 277 201 277 201 242 170 c 0,58,59
 211 142 211 142 158 135 c 1,60,61
 107 135 107 135 77 159 c 0,62,63
 32 195 32 195 32 274 c 256,64,65
 32 353 32 353 87 400 c 0,66,67
 139 445 139 445 219 445 c 0,68,69
 406 445 406 445 436 333 c 1,70,71
 458 381 458 381 482 404 c 0,72,73
 520 440 520 440 588 440 c 0,74,75
 682 440 682 440 727 376 c 0,76,77
 759 331 759 331 759 283 c 0,0,1
170 254 m 0,78,79
 170 308 170 308 129 308 c 0,80,81
 112 308 112 308 97 289 c 1,82,83
 87 269 87 269 87 254 c 0,84,85
 87 226 87 226 100 208 c 0,86,87
 110 193 110 193 123 193 c 0,88,89
 144 192 144 192 157 206 c 128,-1,90
 170 220 170 220 170 254 c 0,78,79
EndSplineSet
EndChar

StartChar: u0B92
Encoding: 2962 2962 125
Width: 692
GlyphClass: 2
Flags: W
LayerCount: 2
Fore
SplineSet
652 244 m 0,0,1
 652 168 652 168 602 119 c 0,2,3
 559 77 559 77 501 77 c 0,4,5
 456 77 456 77 430 110 c 1,6,7
 430 64 430 64 465 44 c 1,8,9
 481 58 481 58 524 58 c 0,10,11
 559 58 559 58 583.5 47 c 128,-1,12
 608 36 608 36 608 16 c 0,13,14
 608 -29 608 -29 543 -29 c 0,15,16
 503 -29 503 -29 491 -14 c 1,17,18
 482 -20 482 -20 482 -31 c 0,19,20
 482 -37 482 -37 492.5 -61 c 128,-1,21
 503 -85 503 -85 503 -99 c 0,22,23
 503 -225 503 -225 350 -225 c 0,24,25
 254 -225 254 -225 219 -188 c 0,26,27
 192 -160 192 -160 192 -106 c 0,28,29
 192 -58 192 -58 219 -28.5 c 128,-1,30
 246 1 246 1 294 1 c 1,31,-1
 294 -49 l 1,32,33
 269 -52 269 -52 253 -69 c 128,-1,34
 237 -86 237 -86 237 -111 c 0,35,36
 237 -144 237 -144 266 -165 c 0,37,38
 291 -183 291 -183 326 -183 c 0,39,40
 410 -183 410 -183 410 -108 c 0,41,42
 410 -97 410 -97 401 -71 c 2,43,-1
 394 -51 l 1,44,-1
 393 -36 l 2,45,46
 392 -22 392 -22 402 -3 c 128,-1,47
 412 16 412 16 424 23 c 1,48,49
 379 47 379 47 379 121 c 0,50,51
 379 184 379 184 421 235 c 1,52,-1
 460 212 l 1,53,54
 436 188 436 188 436 163 c 0,55,56
 436 129 436 129 474 123 c 1,57,58
 506 123 506 123 522 166 c 0,59,60
 534 197 534 197 534 236 c 0,61,62
 534 418 534 418 297 418 c 0,63,64
 224 418 224 418 159 375 c 0,65,66
 121 350 121 350 105.5 321 c 128,-1,67
 90 292 90 292 90 255 c 1,68,69
 118 298 118 298 186 298 c 0,70,71
 252 298 252 298 291 267 c 0,72,73
 333 233 333 233 333 169 c 0,74,75
 333 111 333 111 293 74 c 128,-1,76
 253 37 253 37 195 37 c 0,77,78
 158 37 158 37 133 46 c 0,79,80
 69 68 69 68 48 140 c 0,81,82
 35 181 35 181 35 238 c 0,83,84
 35 326 35 326 108 389 c 0,85,86
 191 461 191 461 355 461 c 0,87,88
 470 461 470 461 553 411 c 0,89,90
 652 352 652 352 652 244 c 0,0,1
216 171 m 0,91,92
 216 198 216 198 200.5 217.5 c 128,-1,93
 185 237 185 237 159 237 c 0,94,95
 132 237 132 237 115 215.5 c 128,-1,96
 98 194 98 194 98 173 c 0,97,98
 98 149 98 149 112 125 c 0,99,100
 128 97 128 97 151 97 c 0,101,102
 216 97 216 97 216 171 c 0,91,92
EndSplineSet
EndChar

StartChar: u0B93
Encoding: 2963 2963 126
Width: 686
GlyphClass: 2
Flags: W
LayerCount: 2
Fore
SplineSet
652 244 m 0,0,1
 652 168 652 168 602 119 c 0,2,3
 559 77 559 77 501 77 c 0,4,5
 456 77 456 77 430 110 c 1,6,7
 430 64 430 64 465 44 c 1,8,9
 481 58 481 58 524 58 c 0,10,11
 559 58 559 58 583.5 47 c 128,-1,12
 608 36 608 36 608 16 c 0,13,14
 608 -29 608 -29 543 -29 c 0,15,16
 503 -29 503 -29 491 -14 c 1,17,18
 482 -20 482 -20 482 -31 c 0,19,20
 482 -37 482 -37 492.5 -61 c 128,-1,21
 503 -85 503 -85 503 -99 c 0,22,23
 503 -149 503 -149 473 -182 c 0,24,25
 434 -225 434 -225 350 -225 c 0,26,27
 192 -225 192 -225 192 -106 c 0,28,29
 192 -61 192 -61 220.5 -30 c 128,-1,30
 249 1 249 1 294 1 c 0,31,32
 368 1 368 1 389 -48 c 0,33,34
 396 -64 396 -64 396 -84 c 1,35,-1
 350 -85 l 1,36,37
 350 -49 350 -49 294 -49 c 0,38,39
 276 -49 276 -49 256 -67 c 0,40,41
 240 -86 240 -86 240 -110 c 0,42,43
 240 -145 240 -145 267 -165 c 0,44,45
 291 -183 291 -183 326 -183 c 0,46,47
 410 -183 410 -183 410 -108 c 0,48,49
 410 -97 410 -97 401 -71 c 2,50,-1
 394 -51 l 1,51,-1
 393 -36 l 2,52,53
 392 -22 392 -22 402 -3 c 128,-1,54
 412 16 412 16 424 23 c 1,55,56
 379 47 379 47 379 121 c 0,57,58
 379 184 379 184 421 235 c 1,59,-1
 460 212 l 1,60,61
 436 188 436 188 436 163 c 0,62,63
 436 129 436 129 474 123 c 1,64,65
 506 123 506 123 522 166 c 0,66,67
 534 197 534 197 534 236 c 0,68,69
 534 418 534 418 297 418 c 0,70,71
 224 418 224 418 159 375 c 0,72,73
 121 350 121 350 105.5 321 c 128,-1,74
 90 292 90 292 90 255 c 1,75,76
 118 298 118 298 186 298 c 0,77,78
 252 298 252 298 291 267 c 0,79,80
 333 233 333 233 333 169 c 0,81,82
 333 111 333 111 293 74 c 128,-1,83
 253 37 253 37 195 37 c 0,84,85
 158 37 158 37 133 46 c 0,86,87
 69 68 69 68 48 140 c 0,88,89
 35 181 35 181 35 238 c 0,90,91
 35 326 35 326 108 389 c 0,92,93
 191 461 191 461 355 461 c 0,94,95
 470 461 470 461 553 411 c 0,96,97
 652 352 652 352 652 244 c 0,0,1
216 171 m 0,98,99
 216 198 216 198 200.5 217.5 c 128,-1,100
 185 237 185 237 159 237 c 0,101,102
 132 237 132 237 115 215.5 c 128,-1,103
 98 194 98 194 98 173 c 0,104,105
 98 149 98 149 112 125 c 0,106,107
 128 97 128 97 151 97 c 0,108,109
 216 97 216 97 216 171 c 0,98,99
EndSplineSet
EndChar

StartChar: u0B94
Encoding: 2964 2964 127
Width: 1466
GlyphClass: 2
Flags: W
LayerCount: 2
Fore
SplineSet
1447 392 m 1,0,-1
 1375 392 l 1,1,-1
 1375 0 l 1,2,-1
 1258 0 l 1,3,-1
 1258 392 l 1,4,-1
 1152 392 l 1,5,-1
 1152 0 l 1,6,-1
 1038 0 l 1,7,-1
 1038 234 l 2,8,9
 1038 301 1038 301 998 346.5 c 128,-1,10
 958 392 958 392 892 392 c 256,11,12
 826 392 826 392 779 339 c 0,13,14
 736 291 736 291 736 235 c 1,15,16
 763 288 763 288 837 288 c 0,17,18
 897 288 897 288 934 248.5 c 128,-1,19
 971 209 971 209 971 148 c 0,20,21
 971 86 971 86 942 48 c 0,22,23
 921 20 921 20 895.5 7.5 c 128,-1,24
 870 -5 870 -5 832 -5 c 0,25,26
 789 -5 789 -5 749 31 c 0,27,28
 690 84 690 84 690 199 c 0,29,30
 690 307 690 307 756 376.5 c 128,-1,31
 822 446 822 446 929 446 c 0,32,33
 984 446 984 446 1034.5 426 c 128,-1,34
 1085 406 1085 406 1106 369 c 1,35,-1
 1106 437 l 1,36,-1
 1447 437 l 1,37,-1
 1447 392 l 1,0,-1
652 244 m 0,38,39
 652 168 652 168 602 119 c 0,40,41
 559 77 559 77 501 77 c 0,42,43
 456 77 456 77 430 110 c 1,44,45
 430 64 430 64 465 44 c 1,46,47
 481 58 481 58 524 58 c 0,48,49
 559 58 559 58 583.5 47 c 128,-1,50
 608 36 608 36 608 16 c 0,51,52
 608 -29 608 -29 543 -29 c 0,53,54
 503 -29 503 -29 491 -14 c 1,55,56
 482 -20 482 -20 482 -31 c 0,57,58
 482 -37 482 -37 492.5 -61 c 128,-1,59
 503 -85 503 -85 503 -99 c 0,60,61
 503 -225 503 -225 350 -225 c 0,62,63
 254 -225 254 -225 219 -188 c 0,64,65
 192 -160 192 -160 192 -106 c 0,66,67
 192 -58 192 -58 219 -28.5 c 128,-1,68
 246 1 246 1 294 1 c 1,69,-1
 294 -49 l 1,70,71
 269 -52 269 -52 253 -69 c 128,-1,72
 237 -86 237 -86 237 -111 c 0,73,74
 237 -144 237 -144 266 -165 c 0,75,76
 291 -183 291 -183 326 -183 c 0,77,78
 410 -183 410 -183 410 -108 c 0,79,80
 410 -97 410 -97 401 -71 c 2,81,-1
 394 -51 l 1,82,-1
 393 -36 l 2,83,84
 392 -22 392 -22 402 -3 c 128,-1,85
 412 16 412 16 424 23 c 1,86,87
 379 47 379 47 379 121 c 0,88,89
 379 184 379 184 421 235 c 1,90,-1
 460 212 l 1,91,92
 436 188 436 188 436 163 c 0,93,94
 436 129 436 129 474 123 c 1,95,96
 506 123 506 123 522 166 c 0,97,98
 534 197 534 197 534 236 c 0,99,100
 534 418 534 418 297 418 c 0,101,102
 224 418 224 418 159 375 c 0,103,104
 121 350 121 350 105.5 321 c 128,-1,105
 90 292 90 292 90 255 c 1,106,107
 118 298 118 298 186 298 c 0,108,109
 252 298 252 298 291 267 c 0,110,111
 333 233 333 233 333 169 c 0,112,113
 333 111 333 111 293 74 c 128,-1,114
 253 37 253 37 195 37 c 0,115,116
 158 37 158 37 133 46 c 0,117,118
 69 68 69 68 48 140 c 0,119,120
 35 181 35 181 35 238 c 0,121,122
 35 326 35 326 108 389 c 0,123,124
 191 461 191 461 355 461 c 0,125,126
 470 461 470 461 553 411 c 0,127,128
 652 352 652 352 652 244 c 0,38,39
867 150 m 0,129,130
 867 179 867 179 851.5 201.5 c 128,-1,131
 836 224 836 224 808 224 c 0,132,133
 779 224 779 224 762 199 c 128,-1,134
 745 174 745 174 745 145 c 0,135,136
 745 115 745 115 763 91 c 1,137,-1
 781 75 l 2,138,139
 790 69 790 69 801 69 c 0,140,141
 831 69 831 69 849 94 c 128,-1,142
 867 119 867 119 867 150 c 0,129,130
216 171 m 0,143,144
 216 198 216 198 200.5 217.5 c 128,-1,145
 185 237 185 237 159 237 c 0,146,147
 132 237 132 237 115 215.5 c 128,-1,148
 98 194 98 194 98 173 c 0,149,150
 98 149 98 149 112 125 c 0,151,152
 128 97 128 97 151 97 c 0,153,154
 216 97 216 97 216 171 c 0,143,144
EndSplineSet
EndChar

StartChar: u0B95
Encoding: 2965 2965 128
Width: 718
GlyphClass: 2
Flags: W
LayerCount: 2
Fore
SplineSet
679 157 m 0,0,1
 679 60 679 60 595 17 c 0,2,3
 560 -1 560 -1 510 -4 c 2,4,-1
 479 -6 l 2,5,6
 406 -11 406 -11 362 37 c 1,7,8
 310 -6 310 -6 219 -6 c 0,9,10
 130 -6 130 -6 77 46 c 0,11,12
 33 89 33 89 33 148 c 0,13,14
 33 211 33 211 66 249 c 0,15,16
 101 291 101 291 162 291 c 1,17,-1
 162 437 l 1,18,-1
 567 437 l 1,19,-1
 567 392 l 1,20,-1
 431 392 l 1,21,-1
 431 291 l 1,22,-1
 512 291 l 2,23,24
 573 291 573 291 615 269 c 0,25,26
 679 236 679 236 679 157 c 0,0,1
566 152 m 0,27,28
 566 246 566 246 475 246 c 2,29,-1
 431 246 l 1,30,-1
 431 198 l 2,31,32
 431 116 431 116 392 68 c 1,33,34
 421 42 421 42 467 42 c 256,35,36
 513 42 513 42 539.5 72.5 c 128,-1,37
 566 103 566 103 566 152 c 0,27,28
313 291 m 1,38,-1
 313 392 l 1,39,-1
 206 392 l 1,40,-1
 206 291 l 1,41,-1
 313 291 l 1,38,-1
313 210 m 2,42,-1
 313 246 l 1,43,-1
 188 246 l 2,44,45
 126 246 126 246 96 210 c 0,46,47
 79 190 79 190 79 160 c 0,48,49
 79 45 79 45 197 45 c 0,50,51
 273 45 273 45 299 106 c 0,52,53
 313 138 313 138 313 210 c 2,42,-1
EndSplineSet
EndChar

StartChar: u0B99
Encoding: 2969 2969 129
Width: 749
GlyphClass: 2
Flags: W
LayerCount: 2
Fore
SplineSet
711 0 m 1,0,-1
 186 0 l 1,1,-1
 186 46 l 1,2,-1
 367 46 l 2,3,4
 395 46 395 46 416.5 72 c 128,-1,5
 438 98 438 98 438 149 c 0,6,7
 438 233 438 233 375 233 c 0,8,9
 336 233 336 233 316 201 c 0,10,11
 303 175 303 175 303 150 c 2,12,-1
 303 100 l 1,13,-1
 186 100 l 1,14,-1
 186 392 l 1,15,-1
 80 392 l 1,16,-1
 80 -1 l 1,17,-1
 35 -1 l 1,18,-1
 35 437 l 1,19,-1
 464 437 l 1,20,-1
 464 392 l 1,21,-1
 303 392 l 1,22,-1
 303 250 l 1,23,24
 341 288 341 288 410 288 c 0,25,26
 472 288 472 288 512.5 250 c 128,-1,27
 553 212 553 212 553 150 c 0,28,29
 553 118 553 118 539 89 c 0,30,31
 523 56 523 56 496 46 c 1,32,-1
 594 46 l 1,33,-1
 594 437 l 1,34,-1
 711 437 l 1,35,-1
 711 0 l 1,0,-1
EndSplineSet
EndChar

StartChar: u0B9A
Encoding: 2970 2970 130
Width: 591
GlyphClass: 2
Flags: W
LayerCount: 2
Fore
SplineSet
567 392 m 1,0,-1
 431 392 l 1,1,-1
 431 292 l 1,2,-1
 561 292 l 1,3,-1
 562 246 l 1,4,-1
 430 246 l 1,5,-1
 430 190 l 2,6,7
 430 134 430 134 408 92 c 0,8,9
 357 -6 357 -6 218 -6 c 0,10,11
 139 -6 139 -6 88 35 c 0,12,13
 33 79 33 79 33 156 c 0,14,15
 33 204 33 204 63 244 c 0,16,17
 99 293 99 293 162 293 c 1,18,-1
 162 437 l 1,19,-1
 567 437 l 1,20,-1
 567 392 l 1,0,-1
313 291 m 1,21,-1
 313 392 l 1,22,-1
 206 392 l 1,23,-1
 206 291 l 1,24,-1
 313 291 l 1,21,-1
313 192 m 2,25,-1
 313 246 l 1,26,-1
 185 246 l 2,27,28
 141 246 141 246 112 223 c 0,29,30
 79 198 79 198 79 156 c 0,31,32
 79 46 79 46 200 46 c 0,33,34
 313 46 313 46 313 192 c 2,25,-1
EndSplineSet
EndChar

StartChar: u0B9C
Encoding: 2972 2972 131
Width: 792
GlyphClass: 2
Flags: W
LayerCount: 2
Fore
SplineSet
759 283 m 0,0,1
 759 69 759 69 551 69 c 2,2,-1
 255 68 l 2,3,4
 202 68 202 68 169 40 c 128,-1,5
 136 12 136 12 136 -40 c 0,6,7
 136 -85 136 -85 163 -115.5 c 128,-1,8
 190 -146 190 -146 235 -146 c 0,9,10
 306 -146 306 -146 340 -123 c 128,-1,11
 374 -100 374 -100 395 -40 c 0,12,13
 414 14 414 14 472 36 c 0,14,15
 509 50 509 50 577 50 c 0,16,17
 753 50 753 50 753 -68 c 0,18,19
 753 -130 753 -130 705 -162 c 0,20,21
 663 -190 663 -190 592 -190 c 0,22,23
 535 -190 535 -190 498 -169 c 0,24,25
 475 -156 475 -156 467 -138 c 1,26,-1
 466 -86 l 1,27,28
 500 -150 500 -150 566 -150 c 0,29,30
 653 -150 653 -150 653 -67 c 0,31,32
 653 2 653 2 561 2 c 0,33,34
 506 2 506 2 484 -7 c 0,35,36
 449 -21 449 -21 423 -91 c 128,-1,37
 397 -161 397 -161 335 -180 c 0,38,39
 310 -188 310 -188 227 -188 c 0,40,41
 127 -188 127 -188 73 -137 c 0,42,43
 33 -99 33 -99 33 -44 c 0,44,45
 33 117 33 117 230 117 c 2,46,-1
 547 118 l 2,47,48
 647 118 647 118 647 258 c 0,49,50
 647 380 647 380 566 380 c 0,51,52
 519 380 519 380 493 335 c 0,53,54
 470 297 470 297 470 247 c 2,55,-1
 470 155 l 1,56,-1
 353 155 l 1,57,-1
 353 262 l 2,58,59
 353 402 353 402 217 402 c 0,60,61
 117 402 117 402 96 341 c 1,62,63
 114 361 114 361 167 361 c 0,64,65
 215 361 215 361 246 330.5 c 128,-1,66
 277 300 277 300 277 252 c 0,67,68
 277 201 277 201 242 170 c 0,69,70
 211 142 211 142 158 135 c 1,71,72
 107 135 107 135 77 159 c 0,73,74
 32 195 32 195 32 274 c 256,75,76
 32 353 32 353 87 400 c 0,77,78
 139 445 139 445 219 445 c 0,79,80
 406 445 406 445 436 333 c 1,81,82
 458 381 458 381 482 404 c 0,83,84
 520 440 520 440 588 440 c 0,85,86
 682 440 682 440 727 376 c 0,87,88
 759 331 759 331 759 283 c 0,0,1
170 254 m 0,89,90
 170 308 170 308 129 308 c 0,91,92
 112 308 112 308 97 289 c 1,93,94
 87 269 87 269 87 254 c 0,95,96
 87 226 87 226 100 208 c 0,97,98
 110 193 110 193 123 193 c 0,99,100
 144 192 144 192 157 206 c 128,-1,101
 170 220 170 220 170 254 c 0,89,90
EndSplineSet
EndChar

StartChar: u0B9E
Encoding: 2974 2974 132
Width: 930
GlyphClass: 2
Flags: W
LayerCount: 2
Fore
SplineSet
885 45 m 0,0,1
 885 -97 885 -97 754 -171 c 0,2,3
 645 -233 645 -233 481 -233 c 0,4,5
 269 -233 269 -233 147 -113 c 0,6,7
 42 -9 42 -9 42 161 c 0,8,9
 42 306 42 306 124 416 c 1,10,-1
 164 387 l 1,11,12
 91 277 91 277 91 161 c 0,13,14
 91 8 91 8 198 -90 c 0,15,16
 273 -158 273 -158 397 -176 c 0,17,18
 438 -182 438 -182 482 -182 c 0,19,20
 611 -182 611 -182 685 -131 c 0,21,22
 770 -71 770 -71 770 52 c 0,23,24
 770 167 770 167 697 167 c 0,25,26
 672 167 672 167 651 140 c 1,27,-1
 651 0 l 1,28,-1
 535 -2 l 1,29,-1
 535 392 l 1,30,-1
 402 392 l 2,31,32
 325 392 325 392 273 346 c 0,33,34
 217 297 217 297 217 241 c 1,35,36
 238 286 238 286 313 286 c 0,37,38
 374 286 374 286 410.5 247 c 128,-1,39
 447 208 447 208 447 146 c 256,40,41
 447 84 447 84 418 46 c 0,42,43
 397 18 397 18 371.5 5.5 c 128,-1,44
 346 -7 346 -7 308 -7 c 0,45,46
 265 -7 265 -7 225 29 c 0,47,48
 166 82 166 82 166 197 c 0,49,50
 166 307 166 307 233 372.5 c 128,-1,51
 300 438 300 438 410 438 c 2,52,-1
 719 438 l 1,53,-1
 719 391 l 1,54,-1
 651 391 l 1,55,-1
 651 212 l 1,56,57
 678 233 678 233 727 233 c 0,58,59
 885 233 885 233 885 45 c 0,0,1
343 148 m 0,60,61
 343 177 343 177 327.5 199.5 c 128,-1,62
 312 222 312 222 284 222 c 0,63,64
 255 222 255 222 238 197 c 128,-1,65
 221 172 221 172 221 143 c 0,66,67
 221 113 221 113 239 89 c 1,68,-1
 257 73 l 2,69,70
 266 67 266 67 277 67 c 0,71,72
 307 67 307 67 325 92 c 128,-1,73
 343 117 343 117 343 148 c 0,60,61
EndSplineSet
EndChar

StartChar: u0B9F
Encoding: 2975 2975 133
Width: 624
GlyphClass: 2
Flags: W
LayerCount: 2
Fore
SplineSet
586 0 m 1,0,-1
 40 0 l 1,1,-1
 40 438 l 1,2,-1
 156 438 l 1,3,-1
 156 47 l 1,4,-1
 586 47 l 1,5,-1
 586 0 l 1,0,-1
EndSplineSet
EndChar

StartChar: u0BA3
Encoding: 2979 2979 134
Width: 1104
GlyphClass: 2
Flags: W
LayerCount: 2
Fore
SplineSet
1076 392 m 1,0,-1
 1018 392 l 1,1,-1
 1018 -2 l 1,2,-1
 900 -2 l 1,3,-1
 900 392 l 1,4,-1
 864 392 l 2,5,6
 816 392 816 392 785 376 c 1,7,8
 868 310 868 310 868 196 c 0,9,10
 868 113 868 113 839 60 c 0,11,12
 805 -3 805 -3 743 -3 c 0,13,14
 678 -3 678 -3 644 52 c 0,15,16
 615 98 615 98 615 171 c 0,17,18
 615 301 615 301 680 357 c 1,19,20
 627 393 627 393 573 393 c 0,21,22
 530 393 530 393 494 378 c 1,23,24
 536 349 536 349 561 296 c 0,25,26
 584 247 584 247 584 193 c 0,27,28
 584 121 584 121 557 66 c 0,29,30
 522 -3 522 -3 457 -3 c 256,31,32
 392 -3 392 -3 359 54 c 0,33,34
 331 102 331 102 331 183 c 0,35,36
 331 290 331 290 394 355 c 1,37,38
 380 374 380 374 335 385 c 0,39,40
 298 394 298 394 267 394 c 0,41,42
 196 394 196 394 137 346 c 128,-1,43
 78 298 78 298 78 233 c 1,44,45
 85 257 85 257 119 274 c 0,46,47
 148 288 148 288 176 288 c 0,48,49
 248 288 248 288 284 245 c 0,50,51
 316 207 316 207 316 144 c 0,52,53
 316 84 316 84 276 40 c 128,-1,54
 236 -4 236 -4 177 -4 c 0,55,56
 128 -4 128 -4 88 34 c 0,57,58
 30 88 30 88 30 201 c 256,59,60
 30 314 30 314 114 381 c 0,61,62
 188 440 188 440 296 440 c 0,63,64
 392 440 392 440 451 402 c 1,65,66
 517 439 517 439 600 439 c 0,67,68
 630 439 630 439 672 429 c 0,69,70
 719 419 719 419 739 404 c 1,71,72
 794 436 794 436 910 436 c 2,73,-1
 1076 436 l 1,74,-1
 1076 392 l 1,0,-1
753 193 m 0,75,76
 753 241 753 241 748 256 c 0,77,78
 740 292 740 292 713 324 c 1,79,80
 659 273 659 273 662 187 c 2,81,-1
 663 156 l 2,82,83
 663 147 663 147 670 123 c 0,84,85
 683 76 683 76 705 76 c 0,86,87
 726 76 726 76 742 121 c 0,88,89
 753 152 753 152 753 193 c 0,75,76
466 195 m 0,90,91
 466 234 466 234 460 261 c 0,92,93
 450 305 450 305 425 327 c 1,94,95
 372 274 372 274 374 188 c 2,96,-1
 375 152 l 2,97,98
 375 143 375 143 382 120 c 0,99,100
 395 75 395 75 420 75 c 0,101,102
 442 75 442 75 456 120 c 0,103,104
 466 153 466 153 466 195 c 0,90,91
210 148 m 0,105,106
 210 178 210 178 196 200 c 0,107,108
 180 226 180 226 152 226 c 0,109,110
 121 226 121 226 103 199 c 0,111,112
 87 176 87 176 87 144 c 0,113,114
 87 113 87 113 105 91 c 128,-1,115
 123 69 123 69 144 69 c 0,116,117
 174 69 174 69 192 93 c 128,-1,118
 210 117 210 117 210 148 c 0,105,106
EndSplineSet
EndChar

StartChar: u0BA4
Encoding: 2980 2980 135
Width: 709
GlyphClass: 2
Flags: W
LayerCount: 2
Fore
SplineSet
679 135 m 0,0,1
 679 -30 679 -30 501 -60 c 0,2,3
 460 -67 460 -67 286 -67 c 0,4,5
 187 -67 187 -67 143 -86 c 0,6,7
 134 -91 134 -91 109 -116 c 1,8,-1
 48 -104 l 1,9,10
 67 -67 67 -67 119 -48 c 128,-1,11
 171 -29 171 -29 286 -29 c 0,12,13
 435 -29 435 -29 464 -22 c 0,14,15
 567 3 567 3 567 129 c 0,16,17
 567 169 567 169 546 203 c 0,18,19
 519 246 519 246 466 246 c 2,20,-1
 430 246 l 1,21,-1
 430 190 l 2,22,23
 430 134 430 134 408 92 c 0,24,25
 357 -6 357 -6 218 -6 c 0,26,27
 139 -6 139 -6 88 35 c 0,28,29
 33 79 33 79 33 156 c 0,30,31
 33 204 33 204 63 244 c 0,32,33
 99 293 99 293 162 293 c 1,34,-1
 162 437 l 1,35,-1
 567 437 l 1,36,-1
 567 392 l 1,37,-1
 431 392 l 1,38,-1
 431 292 l 1,39,-1
 500 292 l 2,40,41
 578 292 578 292 626 254 c 0,42,43
 679 212 679 212 679 135 c 0,0,1
313 291 m 1,44,-1
 313 392 l 1,45,-1
 206 392 l 1,46,-1
 206 291 l 1,47,-1
 313 291 l 1,44,-1
313 192 m 2,48,-1
 313 246 l 1,49,-1
 185 246 l 2,50,51
 141 246 141 246 112 223 c 0,52,53
 79 198 79 198 79 156 c 0,54,55
 79 46 79 46 200 46 c 0,56,57
 313 46 313 46 313 192 c 2,48,-1
EndSplineSet
EndChar

StartChar: u0BA8
Encoding: 2984 2984 136
Width: 623
GlyphClass: 2
Flags: W
LayerCount: 2
Fore
SplineSet
582 131 m 0,0,1
 582 58 582 58 536 7 c 0,2,3
 467 -69 467 -69 309 -70 c 2,4,-1
 158 -71 l 2,5,6
 47 -72 47 -72 34 -118 c 1,7,-1
 -28 -105 l 1,8,9
 0 -53 0 -53 77 -39 c 0,10,11
 110 -33 110 -33 229 -33 c 0,12,13
 317 -33 317 -33 352 -26 c 0,14,15
 424 -11 424 -11 449 40 c 0,16,17
 469 81 469 81 469 144 c 0,18,19
 469 225 469 225 398 225 c 0,20,21
 342 225 342 225 327 175 c 1,22,-1
 327 -2 l 1,23,-1
 210 -2 l 1,24,-1
 210 392 l 1,25,-1
 103 392 l 1,26,-1
 103 -2 l 1,27,-1
 58 -2 l 1,28,-1
 58 437 l 1,29,-1
 488 437 l 1,30,-1
 488 392 l 1,31,-1
 327 392 l 1,32,-1
 327 250 l 1,33,34
 354 285 354 285 439 285 c 0,35,36
 503 285 503 285 542.5 240.5 c 128,-1,37
 582 196 582 196 582 131 c 0,0,1
EndSplineSet
EndChar

StartChar: u0BA9
Encoding: 2985 2985 137
Width: 832
GlyphClass: 2
Flags: W
LayerCount: 2
Fore
SplineSet
797 392 m 1,0,-1
 738 392 l 1,1,-1
 738 -2 l 1,2,-1
 621 -2 l 1,3,-1
 621 392 l 1,4,-1
 573 392 l 2,5,6
 533 392 533 392 498 373 c 1,7,8
 545 339 545 339 567 282 c 0,9,10
 584 239 584 239 584 193 c 0,11,12
 584 121 584 121 557 66 c 0,13,14
 522 -3 522 -3 457 -3 c 256,15,16
 392 -3 392 -3 359 54 c 0,17,18
 331 102 331 102 331 183 c 0,19,20
 331 290 331 290 394 355 c 1,21,22
 384 368 384 368 353 380 c 0,23,24
 311 396 311 396 265 396 c 0,25,26
 201 396 201 396 141 347 c 0,27,28
 78 296 78 296 78 233 c 1,29,30
 85 257 85 257 119 274 c 0,31,32
 148 288 148 288 176 288 c 0,33,34
 248 288 248 288 284 245 c 0,35,36
 316 207 316 207 316 144 c 0,37,38
 316 83 316 83 276.5 39.5 c 128,-1,39
 237 -4 237 -4 177 -4 c 0,40,41
 128 -4 128 -4 88 34 c 0,42,43
 30 88 30 88 30 201 c 0,44,45
 30 313 30 313 114 381 c 0,46,47
 188 441 188 441 296 441 c 0,48,49
 386 441 386 441 451 402 c 1,50,51
 506 437 506 437 599 437 c 2,52,-1
 797 437 l 1,53,-1
 797 392 l 1,0,-1
466 195 m 0,54,55
 466 234 466 234 460 261 c 0,56,57
 450 305 450 305 425 327 c 1,58,59
 372 274 372 274 374 188 c 2,60,-1
 375 152 l 2,61,62
 375 143 375 143 382 120 c 0,63,64
 395 75 395 75 420 75 c 0,65,66
 442 75 442 75 456 120 c 0,67,68
 466 153 466 153 466 195 c 0,54,55
210 148 m 0,69,70
 210 178 210 178 196 200 c 0,71,72
 180 226 180 226 152 226 c 0,73,74
 121 226 121 226 103 199 c 0,75,76
 87 176 87 176 87 144 c 0,77,78
 87 113 87 113 105 91 c 128,-1,79
 123 69 123 69 144 69 c 0,80,81
 174 69 174 69 192 93 c 128,-1,82
 210 117 210 117 210 148 c 0,69,70
EndSplineSet
EndChar

StartChar: u0BAA
Encoding: 2986 2986 138
Width: 525
GlyphClass: 2
Flags: W
LayerCount: 2
Fore
SplineSet
485 -2 m 1,0,-1
 38 0 l 1,1,-1
 38 437 l 1,2,-1
 156 437 l 1,3,-1
 156 46 l 1,4,-1
 368 46 l 1,5,-1
 368 437 l 1,6,-1
 485 437 l 1,7,-1
 485 -2 l 1,0,-1
EndSplineSet
EndChar

StartChar: u0BAE
Encoding: 2990 2990 139
Width: 627
GlyphClass: 2
Flags: W
LayerCount: 2
Fore
SplineSet
592 226 m 0,0,1
 592 115 592 115 522 55 c 0,2,3
 457 -1 457 -1 344 -1 c 2,4,-1
 38 -1 l 1,5,-1
 38 438 l 1,6,-1
 155 438 l 1,7,-1
 155 46 l 1,8,-1
 261 46 l 1,9,-1
 261 326 l 2,10,11
 261 400 261 400 316 432 c 0,12,13
 339 445 339 445 373 445 c 0,14,15
 476 445 476 445 532 389 c 0,16,17
 592 329 592 329 592 226 c 0,0,1
543 226 m 0,18,19
 543 306 543 306 503 351 c 0,20,21
 470 388 470 388 425 388 c 0,22,23
 377 388 377 388 377 327 c 2,24,-1
 377 48 l 1,25,26
 454 48 454 48 498.5 98 c 128,-1,27
 543 148 543 148 543 226 c 0,18,19
EndSplineSet
EndChar

StartChar: u0BAF
Encoding: 2991 2991 140
Width: 699
GlyphClass: 2
Flags: W
LayerCount: 2
Fore
SplineSet
657 -1 m 1,0,-1
 237 -1 l 1,1,-1
 237 56 l 1,2,3
 211 -6 211 -6 149 -6 c 0,4,5
 42 -6 42 -6 42 141 c 2,6,-1
 42 437 l 1,7,-1
 87 437 l 1,8,-1
 87 139 l 2,9,10
 87 95 87 95 95 74 c 0,11,12
 108 41 108 41 146 41 c 0,13,14
 204 41 204 41 237 209 c 1,15,-1
 237 437 l 1,16,-1
 353 437 l 1,17,-1
 353 45 l 1,18,-1
 541 45 l 1,19,-1
 541 437 l 1,20,-1
 657 437 l 1,21,-1
 657 -1 l 1,0,-1
EndSplineSet
EndChar

StartChar: u0BB0
Encoding: 2992 2992 141
Width: 479
GlyphClass: 2
Flags: W
LayerCount: 2
Fore
SplineSet
430 392 m 1,0,-1
 311 392 l 1,1,-1
 311 -55 l 1,2,-1
 42 -131 l 1,3,-1
 42 -87 l 1,4,-1
 195 -21 l 1,5,-1
 195 392 l 1,6,-1
 89 392 l 1,7,-1
 89 0 l 1,8,-1
 43 0 l 1,9,-1
 43 437 l 1,10,-1
 430 437 l 1,11,-1
 430 392 l 1,0,-1
EndSplineSet
EndChar

StartChar: u0BB1
Encoding: 2993 2993 142
Width: 593
GlyphClass: 2
Flags: W
LayerCount: 2
Fore
SplineSet
568 130 m 0,0,1
 568 -78 568 -78 295 -78 c 0,2,3
 168 -78 168 -78 162 -78 c 0,4,5
 69 -86 69 -86 45 -127 c 1,6,-1
 -16 -115 l 1,7,8
 -6 -89 -6 -89 29 -69 c 0,9,10
 79 -40 79 -40 174 -40 c 2,11,-1
 277 -40 l 2,12,13
 400 -40 400 -40 436 8 c 0,14,15
 458 37 458 37 458 112 c 0,16,17
 458 193 458 193 414 211 c 1,18,-1
 414 247 l 1,19,20
 458 279 458 279 458 331 c 0,21,22
 458 391 458 391 392 391 c 0,23,24
 353 391 353 391 332 351 c 0,25,26
 318 324 318 324 318 298 c 2,27,-1
 318 -2 l 1,28,-1
 200 -2 l 1,29,-1
 200 311 l 2,30,31
 200 355 200 355 197 365 c 0,32,33
 189 394 189 394 149 394 c 0,34,35
 95 394 95 394 95 321 c 2,36,-1
 95 0 l 1,37,-1
 49 0 l 1,38,-1
 49 338 l 2,39,40
 49 442 49 442 165 442 c 0,41,42
 255 442 255 442 279 371 c 1,43,44
 311 441 311 441 412 441 c 0,45,46
 474 441 474 441 514 420 c 0,47,48
 566 393 566 393 566 336 c 0,49,50
 566 268 566 268 500 235 c 1,51,52
 568 215 568 215 568 130 c 0,0,1
EndSplineSet
EndChar

StartChar: u0BB2
Encoding: 2994 2994 143
Width: 735
GlyphClass: 2
Flags: W
LayerCount: 2
Fore
SplineSet
704 234 m 0,0,1
 704 138 704 138 668 74 c 0,2,3
 624 -5 624 -5 535 -5 c 0,4,5
 425 -5 425 -5 387 60 c 0,6,7
 358 109 358 109 358 230 c 0,8,9
 358 391 358 391 227 391 c 0,10,11
 151 391 151 391 104 328 c 0,12,13
 80 296 80 296 73 257 c 0,14,15
 71 246 71 246 71 230 c 1,16,17
 105 288 105 288 173 288 c 0,18,19
 239 288 239 288 276 251.5 c 128,-1,20
 313 215 313 215 313 149 c 0,21,22
 313 96 313 96 283 51 c 0,23,24
 246 -4 246 -4 176 -4 c 0,25,26
 91 -4 91 -4 53 80 c 0,27,28
 30 130 30 130 30 216 c 0,29,30
 30 313 30 313 95 380 c 0,31,32
 156 443 156 443 240 443 c 0,33,34
 339 443 339 443 393 409 c 0,35,36
 473 358 473 358 473 217 c 0,37,38
 473 129 473 129 484 99 c 0,39,40
 500 55 500 55 551 55 c 256,41,42
 602 55 602 55 634 115 c 0,43,44
 645 136 645 136 651 168 c 0,45,46
 656 196 656 196 656 232 c 0,47,48
 656 302 656 302 633 344 c 0,49,50
 601 401 601 401 522 410 c 1,51,-1
 522 455 l 1,52,53
 704 438 704 438 704 234 c 0,0,1
206 152 m 0,54,55
 206 225 206 225 148 225 c 0,56,57
 119 225 119 225 102 200 c 128,-1,58
 85 175 85 175 85 153 c 0,59,60
 85 120 85 120 103 91 c 0,61,62
 120 70 120 70 139 70 c 0,63,64
 206 70 206 70 206 152 c 0,54,55
EndSplineSet
EndChar

StartChar: u0BB3
Encoding: 2995 2995 144
Width: 822
GlyphClass: 2
Flags: W
LayerCount: 2
Fore
SplineSet
787 392 m 1,0,-1
 715 392 l 1,1,-1
 715 0 l 1,2,-1
 598 0 l 1,3,-1
 598 392 l 1,4,-1
 492 392 l 1,5,-1
 492 0 l 1,6,-1
 378 0 l 1,7,-1
 378 234 l 2,8,9
 378 301 378 301 338 346.5 c 128,-1,10
 298 392 298 392 232 392 c 256,11,12
 166 392 166 392 119 339 c 0,13,14
 76 291 76 291 76 235 c 1,15,16
 103 288 103 288 177 288 c 0,17,18
 237 288 237 288 274 248.5 c 128,-1,19
 311 209 311 209 311 148 c 0,20,21
 311 86 311 86 282 48 c 0,22,23
 261 20 261 20 235.5 7.5 c 128,-1,24
 210 -5 210 -5 172 -5 c 0,25,26
 129 -5 129 -5 89 31 c 0,27,28
 30 84 30 84 30 199 c 0,29,30
 30 307 30 307 96 376.5 c 128,-1,31
 162 446 162 446 269 446 c 0,32,33
 324 446 324 446 374.5 426 c 128,-1,34
 425 406 425 406 446 369 c 1,35,-1
 446 437 l 1,36,-1
 787 437 l 1,37,-1
 787 392 l 1,0,-1
207 150 m 0,38,39
 207 179 207 179 191.5 201.5 c 128,-1,40
 176 224 176 224 148 224 c 0,41,42
 119 224 119 224 102 199 c 128,-1,43
 85 174 85 174 85 145 c 0,44,45
 85 115 85 115 103 91 c 1,46,-1
 121 75 l 2,47,48
 130 69 130 69 141 69 c 0,49,50
 171 69 171 69 189 94 c 128,-1,51
 207 119 207 119 207 150 c 0,38,39
EndSplineSet
EndChar

StartChar: uni0BB4
Encoding: 2996 2996 145
Width: 629
GlyphClass: 2
Flags: W
LayerCount: 2
Fore
SplineSet
592 226 m 0,0,1
 592 70 592 70 457 15 c 0,2,3
 423 1 423 1 377 1 c 1,4,-1
 377 -15 l 2,5,6
 377 -53 377 -53 379 -57 c 0,7,8
 385 -77 385 -77 410 -86 c 1,9,10
 425 -58 425 -58 456 -49 c 0,11,12
 471 -45 471 -45 505 -45 c 0,13,14
 576 -45 576 -45 576 -95 c 0,15,16
 576 -121 576 -121 542 -135 c 0,17,18
 514 -147 514 -147 485 -145 c 2,19,-1
 470 -144 l 1,20,21
 457 -187 457 -187 413 -209 c 0,22,23
 364 -233 364 -233 249 -233 c 0,24,25
 171 -233 171 -233 114 -208 c 0,26,27
 38 -174 38 -174 38 -105 c 0,28,29
 38 -75 38 -75 53 -63 c 1,30,-1
 101 -94 l 1,31,-1
 96 -112 l 1,32,33
 96 -152 96 -152 158 -174 c 0,34,35
 203 -190 203 -190 252 -190 c 0,36,37
 317 -190 317 -190 349 -171 c 0,38,39
 366 -161 366 -161 381 -131 c 1,40,41
 314 -131 314 -131 280 -81 c 0,42,43
 262 -55 262 -55 262 0 c 1,44,-1
 38 -1 l 1,45,-1
 38 438 l 1,46,-1
 155 438 l 1,47,-1
 155 46 l 1,48,-1
 261 46 l 1,49,-1
 261 326 l 2,50,51
 261 400 261 400 316 432 c 0,52,53
 339 445 339 445 373 445 c 0,54,55
 476 445 476 445 532 389 c 0,56,57
 592 329 592 329 592 226 c 0,0,1
543 226 m 0,58,59
 543 306 543 306 503 351 c 0,60,61
 470 388 470 388 425 388 c 0,62,63
 377 388 377 388 377 327 c 2,64,-1
 377 48 l 1,65,66
 454 48 454 48 498.5 98 c 128,-1,67
 543 148 543 148 543 226 c 0,58,59
EndSplineSet
EndChar

StartChar: u0BB5
Encoding: 2997 2997 146
Width: 748
GlyphClass: 2
Flags: W
LayerCount: 2
Fore
SplineSet
722 -1 m 1,0,-1
 324 0 l 1,1,2
 425 51 425 51 425 195 c 0,3,4
 425 277 425 277 384 332 c 0,5,6
 336 396 336 396 249 396 c 0,7,8
 182 396 182 396 129.5 348 c 128,-1,9
 77 300 77 300 77 233 c 1,10,11
 90 260 90 260 122 276 c 0,12,13
 146 288 146 288 175 288 c 0,14,15
 240 288 240 288 278 251 c 128,-1,16
 316 214 316 214 316 149 c 0,17,18
 316 87 316 87 280 43 c 0,19,20
 241 -4 241 -4 180 -4 c 0,21,22
 128 -4 128 -4 87 35 c 0,23,24
 30 90 30 90 30 206 c 0,25,26
 30 320 30 320 105 386 c 0,27,28
 176 449 176 449 291 449 c 0,29,30
 375 449 375 449 446 404 c 0,31,32
 543 342 543 342 543 210 c 0,33,34
 543 166 543 166 527 121 c 0,35,36
 509 70 509 70 479 46 c 1,37,-1
 605 46 l 1,38,-1
 605 437 l 1,39,-1
 722 437 l 1,40,-1
 722 -1 l 1,0,-1
209 149 m 2,41,-1
 206 179 l 1,42,43
 196 226 196 226 151 226 c 0,44,45
 121 226 121 226 103.5 201 c 128,-1,46
 86 176 86 176 86 145 c 0,47,48
 86 119 86 119 102 96 c 0,49,50
 120 70 120 70 145 70 c 0,51,52
 177 70 177 70 194 95 c 0,53,54
 209 116 209 116 209 149 c 2,41,-1
EndSplineSet
EndChar

StartChar: u0BB6
Encoding: 2998 2998 147
Width: 707
GlyphClass: 2
Flags: W
LayerCount: 2
Fore
SplineSet
700 107 m 1,0,1
 660 11 660 11 581 13 c 0,2,3
 504 14 504 14 465 107 c 1,4,-1
 465 407 l 1,5,-1
 278 407 l 1,6,-1
 278 63 l 1,7,8
 247 -3 247 -3 135 1 c 0,9,10
 14 6 14 6 14 80 c 2,11,-1
 14 465 l 1,12,-1
 68 465 l 1,13,-1
 68 102 l 2,14,15
 68 51 68 51 138 47 c 0,16,17
 210 43 210 43 227 102 c 1,18,-1
 227 463 l 1,19,-1
 700 463 l 1,20,-1
 700 107 l 1,0,1
646 107 m 1,21,-1
 646 409 l 1,22,-1
 517 409 l 1,23,-1
 517 107 l 1,24,25
 540 61 540 61 581 59 c 0,26,27
 620 58 620 58 646 107 c 1,21,-1
EndSplineSet
EndChar

StartChar: u0BB7
Encoding: 2999 2999 148
Width: 959
GlyphClass: 2
Flags: W
LayerCount: 2
Fore
SplineSet
933 0 m 1,0,-1
 819 0 l 1,1,-1
 762 -141 l 1,2,-1
 648 -141 l 1,3,-1
 705 0 l 1,4,-1
 324 0 l 1,5,6
 425 51 425 51 425 195 c 0,7,8
 425 277 425 277 384 332 c 0,9,10
 336 396 336 396 249 396 c 0,11,12
 182 396 182 396 129.5 348 c 128,-1,13
 77 300 77 300 77 233 c 1,14,15
 90 260 90 260 122 276 c 0,16,17
 146 288 146 288 175 288 c 0,18,19
 240 288 240 288 278 251 c 128,-1,20
 316 214 316 214 316 149 c 0,21,22
 316 87 316 87 280 43 c 0,23,24
 241 -4 241 -4 180 -4 c 0,25,26
 128 -4 128 -4 87 35 c 0,27,28
 30 90 30 90 30 206 c 0,29,30
 30 320 30 320 105 386 c 0,31,32
 176 449 176 449 291 449 c 0,33,34
 375 449 375 449 446 404 c 0,35,36
 543 342 543 342 543 210 c 0,37,38
 543 166 543 166 527 121 c 0,39,40
 509 70 509 70 479 46 c 1,41,-1
 686 46 l 1,42,43
 656 60 656 60 624 100 c 0,44,45
 573 164 573 164 573 254 c 0,46,47
 573 355 573 355 625 401 c 0,48,49
 669 440 669 440 742 440 c 0,50,51
 816 440 816 440 865.5 398 c 128,-1,52
 915 356 915 356 915 283 c 0,53,54
 915 229 915 229 886 161 c 2,55,-1
 837 46 l 1,56,-1
 933 46 l 1,57,-1
 933 0 l 1,0,-1
801 295 m 2,58,59
 805 385 805 385 735 385 c 0,60,61
 626 385 626 385 626 257 c 0,62,63
 626 115 626 115 733 75 c 1,64,-1
 765 158 l 2,65,66
 791 225 791 225 800 271 c 1,67,-1
 801 295 l 2,58,59
209 149 m 2,68,-1
 206 179 l 1,69,70
 196 226 196 226 151 226 c 0,71,72
 121 226 121 226 103.5 201 c 128,-1,73
 86 176 86 176 86 145 c 0,74,75
 86 119 86 119 102 96 c 0,76,77
 120 70 120 70 145 70 c 0,78,79
 177 70 177 70 194 95 c 0,80,81
 209 116 209 116 209 149 c 2,68,-1
EndSplineSet
EndChar

StartChar: u0BB8
Encoding: 3000 3000 149
Width: 1000
GlyphClass: 2
Flags: W
LayerCount: 2
Fore
SplineSet
960 235 m 0,0,1
 960 139 960 139 924 76 c 0,2,3
 880 -3 880 -3 791 -3 c 0,4,5
 685 -3 685 -3 644 65 c 0,6,7
 613 117 613 117 613 232 c 0,8,9
 613 339 613 339 607 354 c 0,10,11
 594 386 594 386 548 386 c 0,12,13
 481 386 481 386 481 253 c 2,14,-1
 481 -1 l 1,15,-1
 367 0 l 1,16,-1
 367 251 l 2,17,18
 367 313 367 313 328 352 c 128,-1,19
 289 391 289 391 227 391 c 0,20,21
 151 391 151 391 104 328 c 0,22,23
 80 296 80 296 73 257 c 0,24,25
 71 246 71 246 71 230 c 1,26,27
 105 288 105 288 173 288 c 0,28,29
 239 288 239 288 276 251.5 c 128,-1,30
 313 215 313 215 313 149 c 0,31,32
 313 96 313 96 283 51 c 0,33,34
 246 -4 246 -4 176 -4 c 0,35,36
 91 -4 91 -4 53 80 c 0,37,38
 30 130 30 130 30 216 c 0,39,40
 30 312 30 312 94 379 c 0,41,42
 155 443 155 443 240 443 c 0,43,44
 318 443 318 443 358 427 c 0,45,46
 409 407 409 407 448 350 c 1,47,48
 456 377 456 377 471 396 c 0,49,50
 509 443 509 443 573 443 c 0,51,52
 676 443 676 443 708 375 c 0,53,54
 729 331 729 331 729 218 c 0,55,56
 729 138 729 138 735 114 c 0,57,58
 750 57 750 57 806 57 c 0,59,60
 854 57 854 57 882 105 c 0,61,62
 905 144 905 144 910 198 c 0,63,64
 911 209 911 209 911 233 c 0,65,66
 911 267 911 267 905 296 c 128,-1,67
 899 325 899 325 888 346 c 0,68,69
 857 403 857 403 777 412 c 1,70,-1
 777 457 l 1,71,72
 960 440 960 440 960 235 c 0,0,1
206 152 m 0,73,74
 206 225 206 225 148 225 c 0,75,76
 119 225 119 225 102 200 c 128,-1,77
 85 175 85 175 85 153 c 0,78,79
 85 120 85 120 103 91 c 0,80,81
 120 70 120 70 139 70 c 0,82,83
 206 70 206 70 206 152 c 0,73,74
EndSplineSet
EndChar

StartChar: u0BB9
Encoding: 3001 3001 150
Width: 1132
GlyphClass: 2
Flags: W
LayerCount: 2
Fore
SplineSet
1101 129 m 0,0,1
 1101 -79 1101 -79 828 -79 c 0,2,3
 701 -79 701 -79 695 -79 c 0,4,5
 602 -87 602 -87 578 -128 c 1,6,-1
 517 -116 l 1,7,8
 527 -90 527 -90 562 -70 c 0,9,10
 612 -41 612 -41 707 -41 c 2,11,-1
 810 -41 l 2,12,13
 933 -41 933 -41 969 7 c 0,14,15
 991 36 991 36 991 111 c 0,16,17
 991 192 991 192 947 210 c 1,18,-1
 947 246 l 1,19,20
 991 278 991 278 991 330 c 0,21,22
 991 390 991 390 925 390 c 0,23,24
 886 390 886 390 865 350 c 0,25,26
 851 323 851 323 851 297 c 2,27,-1
 851 -3 l 1,28,-1
 733 -3 l 1,29,-1
 733 310 l 2,30,31
 733 354 733 354 730 364 c 0,32,33
 722 393 722 393 682 393 c 0,34,35
 628 393 628 393 628 320 c 2,36,-1
 628 -1 l 1,37,-1
 324 0 l 1,38,39
 425 51 425 51 425 195 c 0,40,41
 425 277 425 277 384 332 c 0,42,43
 336 396 336 396 249 396 c 0,44,45
 182 396 182 396 129.5 348 c 128,-1,46
 77 300 77 300 77 233 c 1,47,48
 90 260 90 260 122 276 c 0,49,50
 146 288 146 288 175 288 c 0,51,52
 240 288 240 288 278 251 c 128,-1,53
 316 214 316 214 316 149 c 0,54,55
 316 87 316 87 280 43 c 0,56,57
 241 -4 241 -4 180 -4 c 0,58,59
 128 -4 128 -4 87 35 c 0,60,61
 30 90 30 90 30 206 c 0,62,63
 30 320 30 320 105 386 c 0,64,65
 176 449 176 449 291 449 c 0,66,67
 375 449 375 449 446 404 c 0,68,69
 543 342 543 342 543 210 c 0,70,71
 543 166 543 166 527 121 c 0,72,73
 509 70 509 70 479 46 c 1,74,-1
 582 46 l 1,75,-1
 582 337 l 2,76,77
 582 441 582 441 698 441 c 0,78,79
 788 441 788 441 812 370 c 1,80,81
 844 440 844 440 945 440 c 0,82,83
 1007 440 1007 440 1047 419 c 0,84,85
 1099 392 1099 392 1099 335 c 0,86,87
 1099 267 1099 267 1033 234 c 1,88,89
 1101 214 1101 214 1101 129 c 0,0,1
209 149 m 2,90,-1
 206 179 l 1,91,92
 196 226 196 226 151 226 c 0,93,94
 121 226 121 226 103.5 201 c 128,-1,95
 86 176 86 176 86 145 c 0,96,97
 86 119 86 119 102 96 c 0,98,99
 120 70 120 70 145 70 c 0,100,101
 177 70 177 70 194 95 c 0,102,103
 209 116 209 116 209 149 c 2,90,-1
EndSplineSet
EndChar

StartChar: u0BBE
Encoding: 3006 3006 151
Width: 463
GlyphClass: 2
Flags: W
LayerCount: 2
Fore
SplineSet
431 392 m 1,0,-1
 312 392 l 1,1,-1
 312 0 l 1,2,-1
 195 0 l 1,3,-1
 195 392 l 1,4,-1
 88 392 l 1,5,-1
 88 0 l 1,6,-1
 43 0 l 1,7,-1
 43 437 l 1,8,-1
 431 437 l 1,9,-1
 431 392 l 1,0,-1
EndSplineSet
EndChar

StartChar: u0BBF
Encoding: 3007 3007 152
Width: 130
GlyphClass: 2
Flags: W
LayerCount: 2
Fore
SplineSet
94 46 m 1,0,-1
 49 46 l 1,1,-1
 49 440 l 2,2,3
 49 606 49 606 -104 606 c 0,4,5
 -162 606 -162 606 -198 585 c 0,6,7
 -238 562 -238 562 -238 516 c 0,8,9
 -238 456 -238 456 -161 437 c 1,10,-1
 -245 437 l 1,11,12
 -294 468 -294 468 -294 539 c 0,13,14
 -294 595 -294 595 -251 637 c 0,15,16
 -201 686 -201 686 -115 686 c 0,17,18
 94 686 94 686 94 493 c 2,19,-1
 94 46 l 1,0,-1
EndSplineSet
EndChar

StartChar: u0BC0
Encoding: 3008 3008 153
Width: 39
GlyphClass: 2
Flags: W
LayerCount: 2
Fore
SplineSet
29 556 m 0,0,1
 29 518 29 518 1.5 494.5 c 128,-1,2
 -26 471 -26 471 -65 471 c 0,3,4
 -99 471 -99 471 -123.5 496 c 128,-1,5
 -148 521 -148 521 -148 555 c 0,6,7
 -148 594 -148 594 -127 606 c 1,8,-1
 -146 606 l 2,9,10
 -186 606 -186 606 -214 587 c 0,11,12
 -246 564 -246 564 -246 526 c 0,13,14
 -246 465 -246 465 -173 437 c 1,15,-1
 -241 437 l 1,16,17
 -297 476 -297 476 -297 541 c 0,18,19
 -297 608 -297 608 -250 648 c 0,20,21
 -206 686 -206 686 -137 686 c 0,22,23
 -67 686 -67 686 -23 657 c 0,24,25
 29 622 29 622 29 556 c 0,0,1
-22 554 m 256,26,27
 -22 572 -22 572 -35 585 c 128,-1,28
 -48 598 -48 598 -66 598 c 0,29,30
 -83 598 -83 598 -96 584.5 c 128,-1,31
 -109 571 -109 571 -109 554 c 0,32,33
 -109 536 -109 536 -96 523 c 128,-1,34
 -83 510 -83 510 -65 510 c 256,35,36
 -47 510 -47 510 -34.5 523 c 128,-1,37
 -22 536 -22 536 -22 554 c 256,26,27
EndSplineSet
EndChar

StartChar: u0BC1
Encoding: 3009 3009 154
Width: 243
GlyphClass: 2
Flags: W
LayerCount: 2
Fore
SplineSet
234 397 m 1,0,-1
 179 397 l 1,1,2
 193 372 193 372 193 345 c 2,3,-1
 193 335 l 2,4,5
 193 289 193 289 160.5 262.5 c 128,-1,6
 128 236 128 236 80 236 c 0,7,8
 37 236 37 236 8.5 265.5 c 128,-1,9
 -20 295 -20 295 -20 332 c 2,10,-1
 -17 363 l 2,11,12
 -13 383 -13 383 -6 397 c 1,13,-1
 -176 397 l 1,14,-1
 -176 446 l 1,15,-1
 63 445 l 1,16,17
 63 445 63 445 79 445 c 0,18,19
 87 442 87 442 90 441 c 0,20,21
 103 446 103 446 145 446 c 2,22,-1
 234 446 l 1,23,-1
 234 397 l 1,0,-1
101 346 m 0,24,25
 101 388 101 388 68 393 c 1,26,27
 30 393 30 393 30 345 c 0,28,29
 30 298 30 298 63 298 c 0,30,31
 101 298 101 298 101 346 c 0,24,25
EndSplineSet
EndChar

StartChar: u0BC2
Encoding: 3010 3010 155
Width: 286
GlyphClass: 2
Flags: W
LayerCount: 2
Fore
SplineSet
280 306 m 0,0,1
 280 150 280 150 91 150 c 1,2,-1
 91 186 l 1,3,4
 161 186 161 186 197.5 215.5 c 128,-1,5
 234 245 234 245 234 296 c 0,6,7
 234 357 234 357 194 379 c 1,8,9
 199 370 199 370 202 353 c 2,10,-1
 204 327 l 2,11,12
 208 279 208 279 176 251 c 0,13,14
 148 226 148 226 91 226 c 0,15,16
 50 226 50 226 20 254.5 c 128,-1,17
 -10 283 -10 283 -10 324 c 0,18,19
 -10 355 -10 355 4 387 c 1,20,-1
 -167 387 l 1,21,-1
 -166 436 l 1,22,-1
 68 436 l 1,23,-1
 68 430 l 1,24,25
 96 444 96 444 147 444 c 0,26,27
 205 444 205 444 242.5 404.5 c 128,-1,28
 280 365 280 365 280 306 c 0,0,1
111 336 m 0,29,30
 111 378 111 378 78 383 c 1,31,32
 40 383 40 383 40 335 c 0,33,34
 40 288 40 288 73 288 c 0,35,36
 111 288 111 288 111 336 c 0,29,30
EndSplineSet
EndChar

StartChar: u0BC6
Encoding: 3014 3014 156
Width: 700
GlyphClass: 2
Flags: W
LayerCount: 2
Fore
SplineSet
661 0 m 1,0,-1
 615 0 l 1,1,-1
 615 349 l 2,2,3
 615 452 615 452 571 529 c 0,4,5
 505 645 505 645 365 645 c 0,6,7
 239 645 239 645 174 542 c 0,8,9
 122 459 122 459 122 337 c 0,10,11
 122 222 122 222 160 141 c 0,12,13
 210 34 210 34 312 34 c 0,14,15
 368 34 368 34 401 49 c 1,16,-1
 390 49 l 2,17,18
 347 49 347 49 317.5 81.5 c 128,-1,19
 288 114 288 114 288 176 c 0,20,21
 288 229 288 229 331 263 c 0,22,23
 371 294 371 294 426 294 c 0,24,25
 496 294 496 294 532 253 c 0,26,27
 564 217 564 217 564 161 c 0,28,29
 564 77 564 77 486 31 c 0,30,31
 420 -8 420 -8 331 -8 c 0,32,33
 28 -8 28 -8 28 335 c 0,34,35
 28 517 28 517 129 606 c 0,36,37
 218 685 218 685 368 685 c 0,38,39
 498 685 498 685 581 590 c 0,40,41
 661 500 661 500 661 368 c 2,42,-1
 661 0 l 1,0,-1
461 173 m 0,43,44
 461 197 461 197 441.5 216 c 128,-1,45
 422 235 422 235 398 235 c 0,46,47
 336 235 336 235 336 161 c 0,48,49
 336 91 336 91 405 91 c 1,50,51
 461 99 461 99 461 173 c 0,43,44
EndSplineSet
EndChar

StartChar: u0BC7
Encoding: 3015 3015 157
Width: 593
GlyphClass: 2
Flags: W
LayerCount: 2
Fore
SplineSet
564 162 m 0,0,1
 564 78 564 78 486 32 c 0,2,3
 420 -7 420 -7 331 -7 c 0,4,5
 28 -7 28 -7 28 337 c 0,6,7
 28 684 28 684 331 684 c 0,8,9
 449 684 449 684 514 624 c 0,10,11
 564 578 564 578 564 515 c 0,12,13
 564 453 564 453 526.5 417 c 128,-1,14
 489 381 489 381 426 381 c 0,15,16
 367 381 367 381 329 413 c 0,17,18
 310 429 310 429 299 451.5 c 128,-1,19
 288 474 288 474 288 499 c 0,20,21
 288 562 288 562 317.5 594 c 128,-1,22
 347 626 347 626 391 626 c 2,23,-1
 401 626 l 1,24,25
 371 641 371 641 312 641 c 0,26,27
 174 641 174 641 134 453 c 0,28,29
 122 400 122 400 122 338 c 0,30,31
 122 223 122 223 160 142 c 0,32,33
 210 36 210 36 312 36 c 0,34,35
 371 36 371 36 401 51 c 1,36,-1
 386 50 l 2,37,38
 349 48 349 48 318.5 83 c 128,-1,39
 288 118 288 118 288 178 c 0,40,41
 288 231 288 231 331 265 c 0,42,43
 371 296 371 296 426 296 c 0,44,45
 494 296 494 296 532 254 c 0,46,47
 564 219 564 219 564 162 c 0,0,1
461 502 m 0,48,49
 461 573 461 573 405 585 c 0,50,51
 374 589 374 589 355 567.5 c 128,-1,52
 336 546 336 546 336 514 c 0,53,54
 336 440 336 440 398 440 c 0,55,56
 424 440 424 440 441 458 c 128,-1,57
 458 476 458 476 461 502 c 0,48,49
461 174 m 0,58,59
 461 199 461 199 442 218 c 128,-1,60
 423 237 423 237 398 237 c 0,61,62
 336 237 336 237 336 163 c 0,63,64
 336 128 336 128 360 105 c 0,65,66
 377 92 377 92 405 92 c 1,67,68
 461 101 461 101 461 174 c 0,58,59
EndSplineSet
EndChar

StartChar: u0BC8
Encoding: 3016 3016 158
Width: 869
GlyphClass: 2
Flags: W
LayerCount: 2
Fore
SplineSet
840 219 m 0,0,1
 840 102 840 102 744 35 c 0,2,3
 710 11 710 11 647 -8 c 1,4,-1
 624 30 l 1,5,6
 724 69 724 69 724 218 c 0,7,8
 724 292 724 292 681.5 339 c 128,-1,9
 639 386 639 386 566 386 c 0,10,11
 524 386 524 386 498 373 c 1,12,13
 545 339 545 339 567 282 c 0,14,15
 584 239 584 239 584 193 c 0,16,17
 584 121 584 121 557 66 c 0,18,19
 522 -3 522 -3 457 -3 c 256,20,21
 392 -3 392 -3 359 54 c 0,22,23
 331 102 331 102 331 183 c 0,24,25
 331 290 331 290 394 355 c 1,26,27
 384 368 384 368 353 380 c 0,28,29
 311 396 311 396 265 396 c 0,30,31
 201 396 201 396 141 347 c 0,32,33
 78 296 78 296 78 233 c 1,34,35
 85 257 85 257 119 274 c 0,36,37
 148 288 148 288 176 288 c 0,38,39
 248 288 248 288 284 245 c 0,40,41
 316 207 316 207 316 144 c 0,42,43
 316 83 316 83 276.5 39.5 c 128,-1,44
 237 -4 237 -4 177 -4 c 0,45,46
 128 -4 128 -4 88 34 c 0,47,48
 30 88 30 88 30 201 c 0,49,50
 30 313 30 313 114 381 c 0,51,52
 188 441 188 441 296 441 c 0,53,54
 386 441 386 441 451 402 c 1,55,56
 510 440 510 440 596 440 c 0,57,58
 701 440 701 440 768 383 c 0,59,60
 840 322 840 322 840 219 c 0,0,1
466 195 m 0,61,62
 466 234 466 234 460 261 c 0,63,64
 450 305 450 305 425 327 c 1,65,66
 372 274 372 274 374 188 c 2,67,-1
 375 152 l 2,68,69
 375 143 375 143 382 120 c 0,70,71
 395 75 395 75 420 75 c 0,72,73
 442 75 442 75 456 120 c 0,74,75
 466 153 466 153 466 195 c 0,61,62
210 148 m 0,76,77
 210 178 210 178 196 200 c 0,78,79
 180 226 180 226 152 226 c 0,80,81
 121 226 121 226 103 199 c 0,82,83
 87 176 87 176 87 144 c 0,84,85
 87 113 87 113 105 91 c 128,-1,86
 123 69 123 69 144 69 c 0,87,88
 174 69 174 69 192 93 c 128,-1,89
 210 117 210 117 210 148 c 0,76,77
EndSplineSet
EndChar

StartChar: u0BCA
Encoding: 3018 3018 159
Width: 1114
GlyphClass: 2
Flags: W
LayerCount: 2
Fore
SplineSet
1101 392 m 1,0,-1
 982 392 l 1,1,-1
 982 0 l 1,2,-1
 865 0 l 1,3,-1
 865 392 l 1,4,-1
 758 392 l 1,5,-1
 758 0 l 1,6,-1
 713 0 l 1,7,-1
 713 437 l 1,8,-1
 1101 437 l 1,9,-1
 1101 392 l 1,0,-1
661 0 m 1,10,-1
 615 0 l 1,11,-1
 615 349 l 2,12,13
 615 452 615 452 571 529 c 0,14,15
 505 645 505 645 365 645 c 0,16,17
 239 645 239 645 174 542 c 0,18,19
 122 459 122 459 122 337 c 0,20,21
 122 222 122 222 160 141 c 0,22,23
 210 34 210 34 312 34 c 0,24,25
 368 34 368 34 401 49 c 1,26,-1
 390 49 l 2,27,28
 347 49 347 49 317.5 81.5 c 128,-1,29
 288 114 288 114 288 176 c 0,30,31
 288 229 288 229 331 263 c 0,32,33
 371 294 371 294 426 294 c 0,34,35
 496 294 496 294 532 253 c 0,36,37
 564 217 564 217 564 161 c 0,38,39
 564 77 564 77 486 31 c 0,40,41
 420 -8 420 -8 331 -8 c 0,42,43
 28 -8 28 -8 28 335 c 0,44,45
 28 517 28 517 129 606 c 0,46,47
 218 685 218 685 368 685 c 0,48,49
 498 685 498 685 581 590 c 0,50,51
 661 500 661 500 661 368 c 2,52,-1
 661 0 l 1,10,-1
461 173 m 0,53,54
 461 197 461 197 441.5 216 c 128,-1,55
 422 235 422 235 398 235 c 0,56,57
 336 235 336 235 336 161 c 0,58,59
 336 91 336 91 405 91 c 1,60,61
 461 99 461 99 461 173 c 0,53,54
EndSplineSet
EndChar

StartChar: u0BCB
Encoding: 3019 3019 160
Width: 1000
GlyphClass: 2
Flags: W
LayerCount: 2
Fore
SplineSet
981 392 m 1,0,-1
 862 392 l 1,1,-1
 862 0 l 1,2,-1
 745 0 l 1,3,-1
 745 392 l 1,4,-1
 638 392 l 1,5,-1
 638 0 l 1,6,-1
 593 0 l 1,7,-1
 593 437 l 1,8,-1
 981 437 l 1,9,-1
 981 392 l 1,0,-1
564 162 m 0,10,11
 564 78 564 78 486 32 c 0,12,13
 420 -7 420 -7 331 -7 c 0,14,15
 28 -7 28 -7 28 337 c 0,16,17
 28 684 28 684 331 684 c 0,18,19
 449 684 449 684 514 624 c 0,20,21
 564 578 564 578 564 515 c 0,22,23
 564 453 564 453 526.5 417 c 128,-1,24
 489 381 489 381 426 381 c 0,25,26
 367 381 367 381 329 413 c 0,27,28
 310 429 310 429 299 451.5 c 128,-1,29
 288 474 288 474 288 499 c 0,30,31
 288 562 288 562 317.5 594 c 128,-1,32
 347 626 347 626 391 626 c 2,33,-1
 401 626 l 1,34,35
 371 641 371 641 312 641 c 0,36,37
 174 641 174 641 134 453 c 0,38,39
 122 400 122 400 122 338 c 0,40,41
 122 223 122 223 160 142 c 0,42,43
 210 36 210 36 312 36 c 0,44,45
 371 36 371 36 401 51 c 1,46,-1
 386 50 l 2,47,48
 349 48 349 48 318.5 83 c 128,-1,49
 288 118 288 118 288 178 c 0,50,51
 288 231 288 231 331 265 c 0,52,53
 371 296 371 296 426 296 c 0,54,55
 494 296 494 296 532 254 c 0,56,57
 564 219 564 219 564 162 c 0,10,11
461 502 m 0,58,59
 461 573 461 573 405 585 c 0,60,61
 374 589 374 589 355 567.5 c 128,-1,62
 336 546 336 546 336 514 c 0,63,64
 336 440 336 440 398 440 c 0,65,66
 424 440 424 440 441 458 c 128,-1,67
 458 476 458 476 461 502 c 0,58,59
461 174 m 0,68,69
 461 199 461 199 442 218 c 128,-1,70
 423 237 423 237 398 237 c 0,71,72
 336 237 336 237 336 163 c 0,73,74
 336 128 336 128 360 105 c 0,75,76
 377 92 377 92 405 92 c 1,77,78
 461 101 461 101 461 174 c 0,68,69
EndSplineSet
EndChar

StartChar: u0BCC
Encoding: 3020 3020 161
Width: 1478
GlyphClass: 2
Flags: W
LayerCount: 2
Fore
SplineSet
1457 392 m 1,0,-1
 1385 392 l 1,1,-1
 1385 0 l 1,2,-1
 1268 0 l 1,3,-1
 1268 392 l 1,4,-1
 1162 392 l 1,5,-1
 1162 0 l 1,6,-1
 1048 0 l 1,7,-1
 1048 234 l 2,8,9
 1048 301 1048 301 1008 346.5 c 128,-1,10
 968 392 968 392 902 392 c 256,11,12
 836 392 836 392 789 339 c 0,13,14
 746 291 746 291 746 235 c 1,15,16
 773 288 773 288 847 288 c 0,17,18
 907 288 907 288 944 248.5 c 128,-1,19
 981 209 981 209 981 148 c 0,20,21
 981 86 981 86 952 48 c 0,22,23
 931 20 931 20 905.5 7.5 c 128,-1,24
 880 -5 880 -5 842 -5 c 0,25,26
 799 -5 799 -5 759 31 c 0,27,28
 700 84 700 84 700 199 c 0,29,30
 700 307 700 307 766 376.5 c 128,-1,31
 832 446 832 446 939 446 c 0,32,33
 994 446 994 446 1044.5 426 c 128,-1,34
 1095 406 1095 406 1116 369 c 1,35,-1
 1116 437 l 1,36,-1
 1457 437 l 1,37,-1
 1457 392 l 1,0,-1
661 0 m 1,38,-1
 615 0 l 1,39,-1
 615 349 l 2,40,41
 615 452 615 452 571 529 c 0,42,43
 505 645 505 645 365 645 c 0,44,45
 239 645 239 645 174 542 c 0,46,47
 122 459 122 459 122 337 c 0,48,49
 122 222 122 222 160 141 c 0,50,51
 210 34 210 34 312 34 c 0,52,53
 368 34 368 34 401 49 c 1,54,-1
 390 49 l 2,55,56
 347 49 347 49 317.5 81.5 c 128,-1,57
 288 114 288 114 288 176 c 0,58,59
 288 229 288 229 331 263 c 0,60,61
 371 294 371 294 426 294 c 0,62,63
 496 294 496 294 532 253 c 0,64,65
 564 217 564 217 564 161 c 0,66,67
 564 77 564 77 486 31 c 0,68,69
 420 -8 420 -8 331 -8 c 0,70,71
 28 -8 28 -8 28 335 c 0,72,73
 28 517 28 517 129 606 c 0,74,75
 218 685 218 685 368 685 c 0,76,77
 498 685 498 685 581 590 c 0,78,79
 661 500 661 500 661 368 c 2,80,-1
 661 0 l 1,38,-1
877 150 m 0,81,82
 877 179 877 179 861.5 201.5 c 128,-1,83
 846 224 846 224 818 224 c 0,84,85
 789 224 789 224 772 199 c 128,-1,86
 755 174 755 174 755 145 c 0,87,88
 755 115 755 115 773 91 c 1,89,-1
 791 75 l 2,90,91
 800 69 800 69 811 69 c 0,92,93
 841 69 841 69 859 94 c 128,-1,94
 877 119 877 119 877 150 c 0,81,82
461 173 m 0,95,96
 461 197 461 197 441.5 216 c 128,-1,97
 422 235 422 235 398 235 c 0,98,99
 336 235 336 235 336 161 c 0,100,101
 336 91 336 91 405 91 c 1,102,103
 461 99 461 99 461 173 c 0,95,96
EndSplineSet
EndChar

StartChar: u0BCD
Encoding: 3021 3021 162
Width: 7
GlyphClass: 2
Flags: W
LayerCount: 2
Fore
SplineSet
-184 584 m 256,0,1
 -184 554 -184 554 -205 533 c 128,-1,2
 -226 512 -226 512 -256 512 c 0,3,4
 -287 512 -287 512 -307.5 532.5 c 128,-1,5
 -328 553 -328 553 -328 584 c 0,6,7
 -328 612 -328 612 -306 633.5 c 128,-1,8
 -284 655 -284 655 -256 655 c 0,9,10
 -226 655 -226 655 -205 634.5 c 128,-1,11
 -184 614 -184 614 -184 584 c 256,0,1
EndSplineSet
EndChar

StartChar: u0BD7
Encoding: 3031 3031 163
Width: 822
GlyphClass: 2
Flags: W
LayerCount: 2
Fore
SplineSet
787 392 m 1,0,-1
 715 392 l 1,1,-1
 715 0 l 1,2,-1
 598 0 l 1,3,-1
 598 392 l 1,4,-1
 492 392 l 1,5,-1
 492 0 l 1,6,-1
 378 0 l 1,7,-1
 378 234 l 2,8,9
 378 301 378 301 338 346.5 c 128,-1,10
 298 392 298 392 232 392 c 256,11,12
 166 392 166 392 119 339 c 0,13,14
 76 291 76 291 76 235 c 1,15,16
 103 288 103 288 177 288 c 0,17,18
 237 288 237 288 274 248.5 c 128,-1,19
 311 209 311 209 311 148 c 0,20,21
 311 86 311 86 282 48 c 0,22,23
 261 20 261 20 235.5 7.5 c 128,-1,24
 210 -5 210 -5 172 -5 c 0,25,26
 129 -5 129 -5 89 31 c 0,27,28
 30 84 30 84 30 199 c 0,29,30
 30 307 30 307 96 376.5 c 128,-1,31
 162 446 162 446 269 446 c 0,32,33
 324 446 324 446 374.5 426 c 128,-1,34
 425 406 425 406 446 369 c 1,35,-1
 446 437 l 1,36,-1
 787 437 l 1,37,-1
 787 392 l 1,0,-1
207 150 m 0,38,39
 207 179 207 179 191.5 201.5 c 128,-1,40
 176 224 176 224 148 224 c 0,41,42
 119 224 119 224 102 199 c 128,-1,43
 85 174 85 174 85 145 c 0,44,45
 85 115 85 115 103 91 c 1,46,-1
 121 75 l 2,47,48
 130 69 130 69 141 69 c 0,49,50
 171 69 171 69 189 94 c 128,-1,51
 207 119 207 119 207 150 c 0,38,39
EndSplineSet
EndChar

StartChar: u0BE6
Encoding: 3046 3046 164
Width: 497
GlyphClass: 2
Flags: W
LayerCount: 2
Fore
SplineSet
449 272 m 256,0,1
 449 171 449 171 397 90 c 0,2,3
 337 -3 337 -3 241 -3 c 256,4,5
 145 -3 145 -3 85 90 c 0,6,7
 33 171 33 171 33 272 c 256,8,9
 33 373 33 373 85 454 c 0,10,11
 145 546 145 546 241 546 c 256,12,13
 337 546 337 546 397 454 c 0,14,15
 449 373 449 373 449 272 c 256,0,1
408 272 m 256,16,17
 408 353 408 353 366 417 c 0,18,19
 318 491 318 491 241 491 c 256,20,21
 164 491 164 491 116 417 c 0,22,23
 74 353 74 353 74 272 c 256,24,25
 74 191 74 191 116 126 c 0,26,27
 164 52 164 52 241 52 c 256,28,29
 318 52 318 52 366 126 c 0,30,31
 408 191 408 191 408 272 c 256,16,17
EndSplineSet
EndChar

StartChar: u0BE7
Encoding: 3047 3047 165
Width: 688
GlyphClass: 2
Flags: W
LayerCount: 2
Fore
SplineSet
633 143 m 0,0,1
 634 87 634 87 587.5 47 c 128,-1,2
 541 7 541 7 484 6 c 0,3,4
 460 6 460 6 416 21 c 1,5,-1
 416 82 l 1,6,-1
 445 70 l 1,7,-1
 480 66 l 1,8,9
 520 66 520 66 548.5 85.5 c 128,-1,10
 577 105 577 105 578 143 c 0,11,12
 579 185 579 185 552 209.5 c 128,-1,13
 525 234 525 234 482 234 c 2,14,-1
 396 234 l 1,15,-1
 396 143 l 2,16,17
 396 73 396 73 343 34 c 0,18,19
 296 -1 296 -1 223 -2 c 0,20,21
 141 -3 141 -3 81 47 c 0,22,23
 17 100 17 100 16 180 c 0,24,25
 16 219 16 219 39 252 c 0,26,27
 65 289 65 289 102 289 c 2,28,-1
 125 289 l 1,29,-1
 125 482 l 1,30,-1
 555 482 l 1,31,-1
 555 428 l 1,32,-1
 396 428 l 1,33,-1
 396 289 l 1,34,-1
 506 289 l 2,35,36
 560 289 560 289 596 243.5 c 128,-1,37
 632 198 632 198 633 143 c 0,0,1
342 289 m 1,38,-1
 342 428 l 1,39,-1
 180 428 l 1,40,-1
 180 289 l 1,41,-1
 342 289 l 1,38,-1
342 168 m 2,42,-1
 342 234 l 1,43,-1
 125 234 l 2,44,45
 111 234 111 234 90 212 c 0,46,47
 76 192 76 192 76 168 c 0,48,49
 75 122 75 122 127 86 c 0,50,51
 175 53 175 53 223 53 c 0,52,53
 342 53 342 53 342 168 c 2,42,-1
EndSplineSet
EndChar

StartChar: u0BE8
Encoding: 3048 3048 166
Width: 836
GlyphClass: 2
Flags: W
LayerCount: 2
Fore
SplineSet
787 -2 m 1,0,-1
 127 -2 l 2,1,2
 13 -2 13 -2 12 82 c 0,3,4
 12 122 12 122 44 146 c 0,5,6
 73 168 73 168 115 168 c 2,7,-1
 242 168 l 2,8,9
 292 168 292 168 337 206 c 0,10,11
 349 216 349 216 368 242 c 0,12,13
 369 245 369 245 376 258 c 0,14,15
 377 262 377 262 381 283 c 1,16,17
 381 351 381 351 339 389 c 128,-1,18
 297 427 297 427 228 428 c 0,19,20
 185 429 185 429 138 405 c 0,21,22
 79 375 79 375 76 328 c 0,23,24
 74 297 74 297 105 247 c 1,25,26
 142 226 142 226 142 203 c 0,27,28
 142 190 142 190 125 189 c 0,29,30
 82 187 82 187 51 215 c 0,31,32
 36 229 36 229 24 260 c 128,-1,33
 12 291 12 291 12 313 c 0,34,35
 11 400 11 400 85 445 c 0,36,37
 109 460 109 460 152 472 c 1,38,39
 209 482 209 482 230 482 c 0,40,41
 314 483 314 483 374.5 428 c 128,-1,42
 435 373 435 373 436 289 c 0,43,44
 437 217 437 217 368 163 c 0,45,46
 304 113 304 113 230 113 c 2,47,-1
 115 113 l 2,48,49
 61 113 61 113 61 82 c 0,50,51
 61 53 61 53 115 53 c 2,52,-1
 787 53 l 1,53,-1
 787 -2 l 1,0,-1
EndSplineSet
EndChar

StartChar: u0BE9
Encoding: 3049 3049 167
Width: 744
GlyphClass: 2
Flags: W
LayerCount: 2
Fore
SplineSet
690 -2 m 1,0,-1
 232 -2 l 1,1,-1
 232 53 l 1,2,-1
 365 53 l 1,3,4
 449 76 449 76 449 180 c 0,5,6
 449 213 449 213 419 236 c 0,7,8
 393 256 393 256 358 257 c 0,9,10
 322 258 322 258 287 223 c 1,11,-1
 287 131 l 1,12,-1
 232 131 l 1,13,-1
 232 428 l 1,14,-1
 68 428 l 1,15,-1
 68 -2 l 1,16,-1
 14 -2 l 1,17,-1
 14 482 l 1,18,-1
 432 482 l 1,19,-1
 432 428 l 1,20,-1
 287 428 l 1,21,-1
 287 295 l 1,22,23
 320 322 320 322 365 323 c 0,24,25
 422 324 422 324 468.5 283.5 c 128,-1,26
 515 243 515 243 516 186 c 0,27,28
 517 97 517 97 461 53 c 1,29,-1
 690 52 l 1,30,-1
 690 -2 l 1,0,-1
EndSplineSet
EndChar

StartChar: u0BEA
Encoding: 3050 3050 168
Width: 733
GlyphClass: 2
Flags: W
LayerCount: 2
Fore
SplineSet
707 234 m 1,0,-1
 396 234 l 1,1,-1
 396 143 l 2,2,3
 396 73 396 73 343 34 c 0,4,5
 296 -1 296 -1 223 -2 c 0,6,7
 141 -3 141 -3 81 47 c 0,8,9
 17 100 17 100 16 180 c 0,10,11
 16 222 16 222 37 254 c 0,12,13
 62 289 62 289 102 289 c 2,14,-1
 125 289 l 1,15,-1
 125 482 l 1,16,-1
 555 482 l 1,17,-1
 555 428 l 1,18,-1
 396 428 l 1,19,-1
 396 289 l 1,20,-1
 652 288 l 1,21,-1
 652 479 l 1,22,-1
 707 479 l 1,23,-1
 707 234 l 1,0,-1
342 289 m 1,24,-1
 342 428 l 1,25,-1
 180 428 l 1,26,-1
 180 289 l 1,27,-1
 342 289 l 1,24,-1
342 168 m 2,28,-1
 342 234 l 1,29,-1
 125 234 l 2,30,31
 104 234 104 234 89 213 c 1,32,-1
 81 195 l 1,33,34
 81 183 81 183 76 168 c 1,35,36
 76 123 76 123 128 86 c 0,37,38
 175 53 175 53 223 53 c 0,39,40
 342 53 342 53 342 168 c 2,28,-1
EndSplineSet
EndChar

StartChar: u0BEB
Encoding: 3051 3051 169
Width: 881
GlyphClass: 2
Flags: W
LayerCount: 2
Fore
SplineSet
820 47 m 0,0,1
 821 -92 821 -92 696 -186 c 0,2,3
 582 -272 582 -272 439 -273 c 0,4,5
 270 -274 270 -274 148 -165 c 0,6,7
 21 -51 21 -51 16 113 c 2,8,-1
 15 145 l 2,9,10
 12 231 12 231 38 310 c 0,11,12
 72 415 72 415 131 463 c 0,13,14
 137 469 137 469 146 469 c 0,15,16
 170 469 170 469 171 444 c 1,17,-1
 168 434 l 1,18,19
 63 319 63 319 69 147 c 2,20,-1
 70 119 l 2,21,22
 76 -41 76 -41 185 -131 c 0,23,24
 283 -212 283 -212 434 -213 c 0,25,26
 555 -214 555 -214 654 -146 c 0,27,28
 765 -70 765 -70 766 47 c 0,29,30
 767 107 767 107 736 160 c 0,31,32
 701 222 701 222 645 223 c 0,33,34
 576 224 576 224 537 148 c 1,35,-1
 537 -2 l 1,36,-1
 482 -2 l 1,37,-1
 482 428 l 1,38,-1
 342 428 l 1,39,-1
 342 -2 l 1,40,-1
 289 -2 l 1,41,-1
 289 482 l 1,42,-1
 676 482 l 1,43,-1
 676 428 l 1,44,-1
 537 428 l 1,45,-1
 537 215 l 1,46,47
 543 235 543 235 585 259 c 0,48,49
 603 269 603 269 617 271 c 2,50,-1
 650 275 l 1,51,52
 723 275 723 275 777 206 c 1,53,54
 819 139 819 139 820 47 c 0,0,1
EndSplineSet
EndChar

StartChar: u0BEC
Encoding: 3052 3052 170
Width: 996
GlyphClass: 2
Flags: W
LayerCount: 2
Fore
SplineSet
931 238 m 1,0,-1
 833 238 l 1,1,-1
 833 -2 l 1,2,-1
 778 -2 l 1,3,-1
 778 238 l 1,4,-1
 639 238 l 1,5,-1
 639 -2 l 1,6,-1
 585 -2 l 1,7,-1
 585 45 l 2,8,9
 585 109 585 109 578 143 c 1,10,11
 579 185 579 185 552 209.5 c 128,-1,12
 525 234 525 234 482 234 c 2,13,-1
 396 234 l 1,14,-1
 396 143 l 2,15,16
 396 73 396 73 343 34 c 0,17,18
 296 -1 296 -1 223 -2 c 0,19,20
 141 -3 141 -3 81 47 c 0,21,22
 17 100 17 100 16 180 c 0,23,24
 16 219 16 219 39 252 c 0,25,26
 65 289 65 289 102 289 c 2,27,-1
 125 289 l 1,28,-1
 125 482 l 1,29,-1
 555 482 l 1,30,-1
 555 428 l 1,31,-1
 396 428 l 1,32,-1
 396 289 l 1,33,-1
 506 289 l 2,34,35
 547 289 547 289 585 254 c 1,36,-1
 585 292 l 1,37,-1
 931 292 l 1,38,-1
 931 238 l 1,0,-1
342 289 m 1,39,-1
 342 428 l 1,40,-1
 180 428 l 1,41,-1
 180 289 l 1,42,-1
 342 289 l 1,39,-1
342 168 m 2,43,-1
 342 234 l 1,44,-1
 125 234 l 2,45,46
 111 234 111 234 90 212 c 0,47,48
 76 192 76 192 76 168 c 0,49,50
 75 122 75 122 127 86 c 0,51,52
 175 53 175 53 223 53 c 0,53,54
 342 53 342 53 342 168 c 2,43,-1
EndSplineSet
EndChar

StartChar: u0BED
Encoding: 3053 3053 171
Width: 744
GlyphClass: 2
Flags: W
LayerCount: 2
Fore
SplineSet
715 416 m 1,0,-1
 535 416 l 1,1,-1
 535 -2 l 1,2,-1
 475 -2 l 1,3,-1
 475 416 l 1,4,-1
 268 416 l 2,5,6
 197 416 197 416 134 362 c 0,7,8
 127 356 127 356 90 302 c 1,9,-1
 78 269 l 1,10,-1
 74 234 l 1,11,12
 119 297 119 297 213 299 c 0,13,14
 280 300 280 300 322 260.5 c 128,-1,15
 364 221 364 221 365 154 c 0,16,17
 366 85 366 85 315 38 c 0,18,19
 272 -1 272 -1 221 -2 c 0,20,21
 127 -3 127 -3 69 67 c 0,22,23
 15 133 15 133 14 229 c 0,24,25
 13 333 13 333 88 405 c 128,-1,26
 163 477 163 477 268 477 c 2,27,-1
 715 477 l 1,28,-1
 715 416 l 1,0,-1
311 143 m 0,29,30
 311 174 311 174 281 206.5 c 128,-1,31
 251 239 251 239 221 240 c 0,32,33
 182 241 182 241 150 211.5 c 128,-1,34
 118 182 118 182 117 143 c 0,35,36
 116 110 116 110 145 78 c 1,37,38
 172 57 172 57 211 56 c 0,39,40
 252 55 252 55 281.5 79 c 128,-1,41
 311 103 311 103 311 143 c 0,29,30
EndSplineSet
EndChar

StartChar: u0BEE
Encoding: 3054 3054 172
Width: 1018
GlyphClass: 2
Flags: W
LayerCount: 2
Fore
SplineSet
961 -160 m 1,0,-1
 908 -160 l 1,1,-1
 908 70 l 1,2,-1
 747 70 l 1,3,4
 692 -26 692 -26 585 -79 c 0,5,6
 487 -128 487 -128 369 -129 c 0,7,8
 261 -130 261 -130 148 -78 c 0,9,10
 13 -16 13 -16 12 82 c 0,11,12
 11 131 11 131 90 131 c 2,13,-1
 710 131 l 1,14,15
 726 180 726 180 727 234 c 0,16,17
 729 307 729 307 676.5 368.5 c 128,-1,18
 624 430 624 430 552 431 c 0,19,20
 540 431 540 431 502 422 c 0,21,22
 489 422 489 422 460 395 c 0,23,24
 434 372 434 372 424 356 c 1,25,26
 421 342 421 342 415 313 c 1,27,28
 415 287 415 287 431 270 c 0,29,30
 471 226 471 226 489 218 c 0,31,32
 494 216 494 216 513 203 c 0,33,34
 529 191 529 191 535 191 c 0,35,36
 538 191 538 191 541 194 c 1,37,38
 540 180 540 180 547 167 c 0,39,40
 549 164 549 164 558 152 c 0,41,42
 557 150 557 150 555 149 c 0,43,44
 547 142 547 142 537 142 c 0,45,46
 526 142 526 142 509 150 c 2,47,-1
 475 166 l 2,48,49
 443 179 443 179 385 239 c 1,50,51
 358 276 358 276 357 324 c 0,52,53
 356 399 356 399 428 444 c 0,54,55
 487 481 487 481 557 482 c 0,56,57
 659 484 659 484 723 405 c 0,58,59
 782 334 782 334 787 229 c 1,60,-1
 784 178 l 2,61,62
 783 168 783 168 780 156 c 2,63,-1
 773 131 l 1,64,-1
 908 131 l 1,65,-1
 908 471 l 1,66,-1
 961 471 l 1,67,-1
 961 -160 l 1,0,-1
680 70 m 1,68,-1
 72 70 l 1,69,70
 93 4 93 4 189 -38 c 0,71,72
 271 -74 271 -74 363 -74 c 0,73,74
 458 -74 458 -74 540 -40 c 0,75,76
 633 -2 633 -2 680 70 c 1,68,-1
EndSplineSet
EndChar

StartChar: u0BEF
Encoding: 3055 3055 173
Width: 964
GlyphClass: 2
Flags: W
LayerCount: 2
Fore
SplineSet
908 -2 m 1,0,-1
 764 -2 l 1,1,-1
 764 51 l 1,2,3
 831 79 831 79 832 193 c 0,4,5
 832 246 832 246 780 283 c 0,6,7
 734 316 734 316 678 317 c 0,8,9
 618 318 618 318 584 279 c 1,10,11
 636 279 636 279 679 231 c 1,12,13
 709 189 709 189 710 128 c 0,14,15
 711 70 711 70 680 32.5 c 128,-1,16
 649 -5 649 -5 592 -6 c 0,17,18
 517 -7 517 -7 480 43 c 1,19,-1
 469 63 l 2,20,21
 465 73 465 73 457 92 c 0,22,23
 450 120 450 120 449 158 c 0,24,25
 448 198 448 198 466 234 c 1,26,-1
 393 234 l 1,27,-1
 393 143 l 2,28,29
 393 73 393 73 338 34 c 0,30,31
 290 -1 290 -1 217 -2 c 0,32,33
 136 -3 136 -3 76 47 c 0,34,35
 12 100 12 100 12 180 c 0,36,37
 12 222 12 222 34 253 c 0,38,39
 59 289 59 289 98 289 c 2,40,-1
 121 289 l 1,41,-1
 121 482 l 1,42,-1
 551 482 l 1,43,-1
 551 428 l 1,44,-1
 393 428 l 1,45,-1
 393 289 l 1,46,-1
 499 289 l 1,47,48
 569 374 569 374 689 375 c 0,49,50
 770 376 770 376 831.5 310.5 c 128,-1,51
 893 245 893 245 893 163 c 0,52,53
 893 113 893 113 857 53 c 1,54,-1
 902 53 l 1,55,-1
 908 -2 l 1,0,-1
648 141 m 1,56,57
 639 235 639 235 549 236 c 0,58,59
 539 236 539 236 520 211 c 1,60,61
 508 187 508 187 508 152 c 0,62,63
 508 54 508 54 588 53 c 0,64,65
 648 52 648 52 648 141 c 1,56,57
338 289 m 1,66,-1
 338 428 l 1,67,-1
 176 428 l 1,68,-1
 176 289 l 1,69,-1
 338 289 l 1,66,-1
338 168 m 2,70,-1
 338 234 l 1,71,-1
 121 234 l 2,72,73
 100 234 100 234 85 213 c 1,74,-1
 77 195 l 1,75,76
 77 183 77 183 72 168 c 1,77,78
 72 123 72 123 123 87 c 0,79,80
 170 53 170 53 217 53 c 0,81,82
 338 53 338 53 338 168 c 2,70,-1
EndSplineSet
EndChar

StartChar: u0BF0
Encoding: 3056 3056 174
Width: 819
GlyphClass: 2
Flags: W
LayerCount: 2
Fore
SplineSet
763 261 m 0,0,1
 763 181 763 181 735 113 c 0,2,3
 704 36 704 36 643 -2 c 0,4,5
 545 -63 545 -63 425 -62 c 256,6,7
 305 -61 305 -61 267 0 c 0,8,9
 256 18 256 18 239 66 c 1,10,11
 217 36 217 36 176.5 15.5 c 128,-1,12
 136 -5 136 -5 99 -5 c 0,13,14
 14 -6 14 -6 14 70 c 2,15,-1
 14 482 l 1,16,-1
 68 482 l 1,17,-1
 68 102 l 2,18,19
 68 53 68 53 111 52 c 0,20,21
 152 51 152 51 186 87 c 0,22,23
 216 119 216 119 227 162 c 1,24,-1
 227 482 l 1,25,-1
 285 483 l 1,26,27
 283 425 283 425 285 299 c 0,28,29
 284 264 284 264 288 175 c 1,30,31
 296 93 296 93 311 55 c 0,32,33
 331 7 331 7 379 0 c 0,34,35
 414 -5 414 -5 446 -5 c 0,36,37
 612 -5 612 -5 671 121 c 0,38,39
 702 188 702 188 702 265 c 0,40,41
 702 439 702 439 548 539 c 0,42,43
 477 585 477 585 324 593 c 1,44,-1
 322 647 l 1,45,46
 500 630 500 630 582 581 c 0,47,48
 643 544 643 544 675 506 c 0,49,50
 763 405 763 405 763 261 c 0,0,1
EndSplineSet
EndChar

StartChar: u0BF1
Encoding: 3057 3057 175
Width: 738
GlyphClass: 2
Flags: W
LayerCount: 2
Fore
SplineSet
696 428 m 1,0,-1
 558 428 l 1,1,-1
 558 4 l 1,2,-1
 503 6 l 1,3,-1
 503 428 l 1,4,-1
 364 428 l 1,5,-1
 364 -2 l 1,6,-1
 310 -2 l 1,7,-1
 310 408 l 1,8,9
 265 419 265 419 222 419 c 0,10,11
 132 419 132 419 102 360 c 0,12,13
 82 320 82 320 82 218 c 256,14,15
 82 116 82 116 104 -2 c 1,16,-1
 50 -2 l 1,17,18
 29 121 29 121 28 223 c 0,19,20
 27 394 27 394 85 436 c 0,21,22
 128 467 128 467 228 467 c 0,23,24
 270 467 270 467 310 462 c 1,25,-1
 310 482 l 1,26,-1
 696 482 l 1,27,-1
 696 428 l 1,0,-1
EndSplineSet
EndChar

StartChar: u0BF2
Encoding: 3058 3058 176
Width: 841
GlyphClass: 2
Flags: W
LayerCount: 2
Fore
SplineSet
803 24 m 0,0,1
 803 -34 803 -34 771 -68 c 0,2,3
 725 -116 725 -116 651 -144 c 0,4,5
 583 -170 583 -170 512 -170 c 0,6,7
 476 -170 476 -170 403.5 -161.5 c 128,-1,8
 331 -153 331 -153 295 -153 c 0,9,10
 233 -153 233 -153 215 -184 c 1,11,12
 200 -225 200 -225 199 -226 c 0,13,14
 186 -252 186 -252 168 -254 c 0,15,16
 131 -258 131 -258 110 -217 c 0,17,18
 96 -190 96 -190 96 -181 c 0,19,20
 96 -162 96 -162 132 -120 c 0,21,22
 151 -98 151 -98 236 -98 c 0,23,24
 284 -98 284 -98 381 -105 c 128,-1,25
 478 -112 478 -112 526 -112 c 0,26,27
 606 -112 606 -112 636 -95 c 2,28,-1
 717 -49 l 1,29,30
 748 -26 748 -26 748 18 c 0,31,32
 748 59 748 59 713 83 c 0,33,34
 682 104 682 104 639 105 c 0,35,36
 610 106 610 106 574 83 c 1,37,-1
 574 -2 l 1,38,-1
 514 -2 l 1,39,-1
 514 234 l 1,40,-1
 398 234 l 1,41,-1
 398 143 l 2,42,43
 398 73 398 73 345 34 c 0,44,45
 298 -1 298 -1 225 -2 c 0,46,47
 143 -3 143 -3 83 47 c 0,48,49
 19 100 19 100 18 180 c 0,50,51
 18 222 18 222 39 254 c 0,52,53
 64 289 64 289 104 289 c 2,54,-1
 127 289 l 1,55,-1
 127 482 l 1,56,-1
 557 482 l 1,57,-1
 557 428 l 1,58,-1
 398 428 l 1,59,-1
 398 289 l 1,60,-1
 629 289 l 1,61,-1
 629 234 l 1,62,-1
 574 234 l 1,63,-1
 574 144 l 1,64,65
 613 162 613 162 648 162 c 0,66,67
 710 162 710 162 755 125 c 0,68,69
 803 85 803 85 803 24 c 0,0,1
346 289 m 1,70,-1
 346 428 l 1,71,-1
 182 428 l 1,72,-1
 182 289 l 1,73,-1
 346 289 l 1,70,-1
346 168 m 2,74,-1
 346 234 l 1,75,-1
 127 234 l 2,76,77
 106 234 106 234 91 213 c 1,78,-1
 83 195 l 1,79,80
 83 183 83 183 78 168 c 1,81,82
 78 123 78 123 130 86 c 0,83,84
 177 53 177 53 225 53 c 0,85,86
 346 53 346 53 346 168 c 2,74,-1
EndSplineSet
EndChar

StartChar: u0BF3
Encoding: 3059 3059 177
Width: 697
GlyphClass: 2
Flags: W
LayerCount: 2
Fore
SplineSet
641 -2 m 1,0,-1
 322 -2 l 1,1,-1
 322 51 l 1,2,3
 391 80 391 80 391 193 c 0,4,5
 391 246 391 246 339 283 c 0,6,7
 292 317 292 317 237 317 c 0,8,9
 177 317 177 317 143 279 c 1,10,11
 194 279 194 279 238 231 c 1,12,13
 269 188 269 188 269 128 c 0,14,15
 269 70 269 70 238 32 c 128,-1,16
 207 -6 207 -6 150 -6 c 0,17,18
 80 -6 80 -6 38 43 c 0,19,20
 28 55 28 55 15 92 c 1,21,-1
 10 123 l 1,22,-1
 8 158 l 2,23,24
 3 248 3 248 87 318 c 0,25,26
 155 375 155 375 248 375 c 0,27,28
 330 375 330 375 391 310 c 128,-1,29
 452 245 452 245 452 163 c 0,30,31
 452 113 452 113 416 53 c 1,32,-1
 641 53 l 1,33,-1
 641 -2 l 1,0,-1
207 141 m 1,34,35
 196 236 196 236 107 236 c 0,36,37
 85 236 85 236 74 203 c 0,38,39
 66 178 66 178 66 151 c 0,40,41
 66 119 66 119 84 84 c 1,42,43
 106 53 106 53 146 53 c 0,44,45
 207 53 207 53 207 141 c 1,34,35
EndSplineSet
EndChar

StartChar: u0BF4
Encoding: 3060 3060 178
Width: 881
GlyphClass: 2
Flags: W
LayerCount: 2
Fore
SplineSet
854 785 m 1,0,1
 862 771 862 771 840 758 c 2,2,-1
 799 735 l 1,3,4
 843 698 843 698 843 636 c 0,5,6
 843 593 843 593 811.5 561.5 c 128,-1,7
 780 530 780 530 737 530 c 0,8,9
 695 530 695 530 664 565 c 0,10,11
 658 572 658 572 650 601 c 1,12,-1
 645 649 l 1,13,-1
 646 664 l 1,14,-1
 656 687 l 2,15,16
 664 707 664 707 687 728 c 1,17,-1
 652 732 l 1,18,-1
 602 735 l 1,19,-1
 565 734 l 2,20,21
 545 733 545 733 532 720 c 1,22,23
 542 717 542 717 552 710 c 2,24,-1
 572 685 l 1,25,26
 610 655 610 655 610 616 c 2,27,-1
 610 594 l 1,28,-1
 605 570 l 2,29,30
 605 559 605 559 589 545 c 2,31,-1
 559 518 l 2,32,33
 541 506 541 506 518 506 c 0,34,35
 486 506 486 506 458 528.5 c 128,-1,36
 430 551 430 551 430 583 c 2,37,-1
 429 594 l 1,38,-1
 428 611 l 2,39,40
 424 672 424 672 464 720 c 1,41,42
 401 702 401 702 379 671 c 0,43,44
 377 669 377 669 362 616 c 1,45,-1
 360 596 l 1,46,47
 360 533 360 533 443 480 c 1,48,49
 526 468 526 468 589 375 c 0,50,51
 645 293 645 293 645 193 c 0,52,53
 645 113 645 113 615 62 c 0,54,55
 578 -2 578 -2 504 -2 c 2,56,-1
 14 -2 l 1,57,-1
 14 482 l 1,58,-1
 68 482 l 1,59,-1
 68 53 l 1,60,-1
 273 53 l 1,61,-1
 273 355 l 2,62,63
 273 448 273 448 372 477 c 1,64,65
 351 494 351 494 338 530 c 128,-1,66
 325 566 325 566 327 595 c 2,67,-1
 330 632 l 1,68,-1
 334 650 l 1,69,-1
 341 668 l 2,70,71
 354 702 354 702 384 720 c 1,72,-1
 433 740 l 1,73,-1
 467 753 l 1,74,-1
 522 763 l 1,75,-1
 562 768 l 1,76,-1
 606 770 l 2,77,78
 639 772 639 772 687 764 c 2,79,-1
 744 755 l 1,80,-1
 793 784 l 2,81,82
 801 789 801 789 828 795 c 1,83,-1
 843 794 l 1,84,-1
 848 790 l 1,85,-1
 854 785 l 1,0,1
794 636 m 0,86,87
 794 657 794 657 773.5 675.5 c 128,-1,88
 753 694 753 694 730 694 c 0,89,90
 683 694 683 694 683 638 c 0,91,92
 683 614 683 614 698 597 c 128,-1,93
 713 580 713 580 737 580 c 0,94,95
 755 580 755 580 778 598 c 1,96,-1
 788 613 l 2,97,98
 794 622 794 622 794 636 c 0,86,87
565 605 m 0,99,100
 565 628 565 628 551 649 c 2,101,-1
 530 681 l 2,102,103
 514 705 514 705 494 705 c 0,104,105
 485 705 485 705 472 679 c 1,106,107
 462 646 462 646 462 621 c 2,108,-1
 462 610 l 1,109,-1
 464 598 l 1,110,111
 464 545 464 545 518 545 c 0,112,113
 539 545 539 545 552 562 c 1,114,115
 565 588 565 588 565 605 c 0,99,100
592 189 m 0,116,117
 592 272 592 272 549 344 c 0,118,119
 499 428 499 428 422 428 c 0,120,121
 369 428 369 428 348.5 408.5 c 128,-1,122
 328 389 328 389 328 336 c 2,123,-1
 328 53 l 1,124,-1
 504 53 l 2,125,126
 548 53 548 53 573 102 c 0,127,128
 592 141 592 141 592 189 c 0,116,117
EndSplineSet
EndChar

StartChar: u0BF5
Encoding: 3061 3061 179
Width: 1465
GlyphClass: 2
Flags: W
LayerCount: 2
Fore
SplineSet
1442 563 m 0,0,1
 1442 542 1442 542 1438 532 c 2,2,-1
 1423 493 l 2,3,4
 1411 462 1411 462 1386 438 c 0,5,6
 1357 409 1357 409 1328 409 c 0,7,8
 1291 409 1291 409 1246 456 c 2,9,-1
 1156 549 l 2,10,11
 1108 599 1108 599 1051 605 c 2,12,-1
 909 621 l 2,13,14
 776 636 776 636 673 636 c 0,15,16
 511 636 511 636 397 595 c 0,17,18
 263 546 263 546 172 434 c 0,19,20
 142 396 142 396 105 303 c 0,21,22
 68 207 68 207 68 162 c 0,23,24
 68 -20 68 -20 249 -125 c 0,25,26
 401 -213 401 -213 596 -213 c 0,27,28
 822 -213 822 -213 1029 -150 c 0,29,30
 1255 -81 1255 -81 1255 21 c 0,31,32
 1255 78 1255 78 1222 124 c 0,33,34
 1186 175 1186 175 1131 175 c 0,35,36
 1114 175 1114 175 1110 173 c 0,37,38
 1078 173 1078 173 1036 131 c 1,39,-1
 1036 -2 l 1,40,-1
 983 -2 l 1,41,-1
 983 428 l 1,42,-1
 877 428 l 1,43,-1
 876 -2 l 1,44,-1
 477 -2 l 1,45,-1
 477 47 l 1,46,47
 535 68 535 68 569.5 119.5 c 128,-1,48
 604 171 604 171 604 234 c 0,49,50
 604 315 604 315 545.5 371.5 c 128,-1,51
 487 428 487 428 405 428 c 0,52,53
 341 428 341 428 283 387 c 0,54,55
 221 344 221 344 212 283 c 1,56,-1
 234 291 l 1,57,-1
 254 297 l 2,58,59
 274 303 274 303 296 303 c 0,60,61
 361 303 361 303 403.5 255.5 c 128,-1,62
 446 208 446 208 446 143 c 0,63,64
 446 80 446 80 403 39 c 128,-1,65
 360 -2 360 -2 296 -2 c 0,66,67
 217 -2 217 -2 170 56 c 0,68,69
 126 110 126 110 126 191 c 0,70,71
 126 310 126 310 206.5 396 c 128,-1,72
 287 482 287 482 405 482 c 0,73,74
 504 482 504 482 584.5 410 c 128,-1,75
 665 338 665 338 665 240 c 0,76,77
 665 189 665 189 654 149 c 0,78,79
 651 138 651 138 643 125 c 0,80,81
 621 79 621 79 587 53 c 1,82,-1
 820 53 l 1,83,-1
 823 482 l 1,84,-1
 1182 482 l 1,85,-1
 1182 428 l 1,86,-1
 1036 428 l 1,87,-1
 1036 209 l 1,88,89
 1088 235 1088 235 1133 235 c 0,90,91
 1213 235 1213 235 1263 166 c 0,92,93
 1309 103 1309 103 1309 21 c 0,94,95
 1309 -78 1309 -78 1174 -150 c 0,96,97
 1113 -182 1113 -182 1042 -208 c 0,98,99
 941 -245 941 -245 877 -253 c 2,100,-1
 817 -261 l 1,101,-1
 752 -265 l 1,102,-1
 664 -268 l 1,103,-1
 596 -268 l 2,104,105
 367 -268 367 -268 203 -162 c 0,106,107
 14 -40 14 -40 14 168 c 0,108,109
 14 237 14 237 36 308 c 0,110,111
 59 383 59 383 98 436 c 1,112,113
 255 699 255 699 690 699 c 0,114,115
 829 699 829 699 958 679 c 2,116,-1
 1055 664 l 2,117,118
 1120 654 1120 654 1165 626 c 0,119,120
 1206 601 1206 601 1251 547 c 2,121,-1
 1284 508 l 1,122,123
 1306 489 1306 489 1327 489 c 256,124,125
 1348 489 1348 489 1363 558 c 0,126,127
 1378 624 1378 624 1400 620 c 0,128,129
 1442 612 1442 612 1442 563 c 0,0,1
388 145 m 0,130,131
 388 188 388 188 360.5 217 c 128,-1,132
 333 246 333 246 290 246 c 0,133,134
 250 246 250 246 225.5 219.5 c 128,-1,135
 201 193 201 193 201 152 c 0,136,137
 201 108 201 108 226.5 80.5 c 128,-1,138
 252 53 252 53 296 53 c 0,139,140
 334 53 334 53 364 80 c 1,141,142
 388 107 388 107 388 145 c 0,130,131
EndSplineSet
EndChar

StartChar: u0BF6
Encoding: 3062 3062 180
Width: 697
GlyphClass: 2
Flags: W
LayerCount: 2
Fore
SplineSet
647 -82 m 1,0,-1
 288 -82 l 1,1,-1
 288 -142 l 1,2,-1
 285 -196 l 2,3,4
 283 -239 283 -239 255.5 -263 c 128,-1,5
 228 -287 228 -287 184 -287 c 0,6,7
 152 -287 152 -287 135 -281 c 0,8,9
 126 -278 126 -278 106 -267 c 0,10,11
 69 -247 69 -247 43 -210 c 0,12,13
 14 -170 14 -170 16 -131 c 2,14,-1
 17 -108 l 2,15,16
 17 -102 17 -102 27 -78 c 0,17,18
 47 -28 47 -28 140 -30 c 2,19,-1
 189 -31 l 1,20,-1
 238 -33 l 1,21,-1
 239 -12 l 1,22,-1
 238 -22 l 1,23,-1
 237 -2 l 1,24,-1
 237 53 l 1,25,26
 219 29 219 29 180 11 c 0,27,28
 135 -5 135 -5 109 -5 c 0,29,30
 24 -5 24 -5 24 70 c 2,31,-1
 24 482 l 1,32,-1
 78 482 l 1,33,-1
 78 102 l 2,34,35
 78 52 78 52 121 52 c 0,36,37
 162 52 162 52 196 88 c 0,38,39
 225 118 225 118 237 162 c 1,40,-1
 237 482 l 1,41,-1
 289 482 l 1,42,-1
 289 -27 l 1,43,-1
 592 -27 l 1,44,-1
 592 482 l 1,45,-1
 647 482 l 1,46,-1
 647 -82 l 1,0,-1
234 -82 m 1,47,-1
 187 -74 l 1,48,-1
 142 -71 l 2,49,50
 84 -67 84 -67 72 -97 c 0,51,52
 66 -112 66 -112 66 -130 c 0,53,54
 66 -187 66 -187 128 -222 c 1,55,-1
 158 -234 l 1,56,-1
 180 -238 l 1,57,58
 207 -238 207 -238 230 -196 c 1,59,-1
 234 -82 l 1,47,-1
EndSplineSet
EndChar

StartChar: u0BF7
Encoding: 3063 3063 181
Width: 1200
GlyphClass: 2
Flags: W
LayerCount: 2
Fore
SplineSet
1173 1 m 1,0,-1
 711 1 l 2,1,2
 630 1 630 1 630 59 c 0,3,4
 630 86 630 86 652 103 c 128,-1,5
 674 120 674 120 702 120 c 2,6,-1
 791 120 l 2,7,8
 844 120 844 120 880 173 c 0,9,10
 889 186 889 186 889 200 c 0,11,12
 889 248 889 248 859 275 c 128,-1,13
 829 302 829 302 781 302 c 0,14,15
 744 302 744 302 715 283 c 1,16,17
 741 283 741 283 755 263 c 2,18,-1
 766 242 l 1,19,-1
 770 217 l 1,20,21
 770 188 770 188 751 170.5 c 128,-1,22
 732 153 732 153 702 153 c 0,23,24
 677 153 677 153 650 171 c 0,25,26
 630 189 630 189 630 221 c 0,27,28
 630 254 630 254 651 286 c 1,29,-1
 637 292 l 1,30,-1
 596 297 l 1,31,32
 578 294 578 294 558 279 c 0,33,34
 543 264 543 264 537 245 c 1,35,-1
 537 -2 l 1,36,-1
 477 -2 l 1,37,-1
 477 416 l 1,38,-1
 270 416 l 2,39,40
 195 416 195 416 135.5 362 c 128,-1,41
 76 308 76 308 76 234 c 1,42,43
 121 299 121 299 215 299 c 0,44,45
 282 299 282 299 324.5 259.5 c 128,-1,46
 367 220 367 220 367 154 c 0,47,48
 367 93 367 93 326 47 c 0,49,50
 283 -2 283 -2 223 -2 c 0,51,52
 129 -2 129 -2 71 66 c 0,53,54
 15 131 15 131 15 226 c 0,55,56
 15 329 15 329 91 403 c 128,-1,57
 167 477 167 477 270 477 c 2,58,-1
 717 477 l 1,59,-1
 717 416 l 1,60,-1
 537 416 l 1,61,-1
 537 306 l 1,62,63
 542 318 542 318 564 329 c 1,64,-1
 589 334 l 1,65,-1
 611 336 l 1,66,-1
 628 335 l 2,67,68
 652 334 652 334 685 314 c 1,69,70
 738 339 738 339 783 339 c 0,71,72
 843 339 843 339 885 301.5 c 128,-1,73
 927 264 927 264 927 204 c 0,74,75
 927 151 927 151 880 115 c 0,76,77
 837 81 837 81 783 81 c 2,78,-1
 702 81 l 2,79,80
 665 81 665 81 665 59 c 0,81,82
 665 39 665 39 702 39 c 2,83,-1
 1173 39 l 1,84,-1
 1173 1 l 1,0,-1
735 221 m 1,85,86
 735 243 735 243 721 251 c 1,87,-1
 702 255 l 1,88,89
 665 255 665 255 665 215 c 0,90,91
 665 183 665 183 698 183 c 0,92,93
 713 183 713 183 724 193 c 0,94,95
 729 199 729 199 735 221 c 1,85,86
313 143 m 0,96,97
 313 174 313 174 283 207 c 128,-1,98
 253 240 253 240 223 240 c 0,99,100
 183 240 183 240 151 211 c 128,-1,101
 119 182 119 182 119 143 c 0,102,103
 119 102 119 102 145 79 c 128,-1,104
 171 56 171 56 213 56 c 0,105,106
 254 56 254 56 283.5 79.5 c 128,-1,107
 313 103 313 103 313 143 c 0,96,97
EndSplineSet
EndChar

StartChar: u0BF8
Encoding: 3064 3064 182
Width: 1430
GlyphClass: 2
Flags: W
LayerCount: 2
Fore
SplineSet
1386 0 m 1,0,-1
 1248 0 l 1,1,-1
 1248 -208 l 1,2,-1
 1182 -208 l 1,3,-1
 1182 0 l 1,4,-1
 806 0 l 1,5,-1
 824 21 l 1,6,-1
 845 56 l 1,7,-1
 862 96 l 1,8,9
 875 145 875 145 875 189 c 0,10,11
 875 246 875 246 856 278.5 c 128,-1,12
 837 311 837 311 787 335 c 1,13,-1
 756 342 l 1,14,-1
 784 300 l 1,15,16
 803 262 803 262 803 214 c 0,17,18
 803 131 803 131 759 66 c 0,19,20
 710 -8 710 -8 630 -8 c 0,21,22
 558 -8 558 -8 521 50 c 0,23,24
 489 99 489 99 489 175 c 0,25,26
 489 252 489 252 583 341 c 0,27,28
 591 349 591 349 622 358 c 0,29,30
 661 369 661 369 684 380 c 1,31,-1
 647 433 l 2,32,33
 606 491 606 491 534 530 c 0,34,35
 471 562 471 562 376 562 c 0,36,37
 243 562 243 562 175.5 482.5 c 128,-1,38
 108 403 108 403 108 284 c 2,39,-1
 108 207 l 2,40,41
 108 167 108 167 126 134 c 2,42,-1
 143 103 l 1,43,-1
 141 119 l 1,44,-1
 140 130 l 1,45,-1
 140 139 l 2,46,47
 140 208 140 208 173 252 c 0,48,49
 209 301 209 301 277 301 c 0,50,51
 341 301 341 301 380 255 c 0,52,53
 416 213 416 213 416 147 c 0,54,55
 416 72 416 72 371 32 c 128,-1,56
 326 -8 326 -8 250 -8 c 0,57,58
 154 -8 154 -8 94 83 c 0,59,60
 42 162 42 162 42 263 c 0,61,62
 42 432 42 432 131 524 c 128,-1,63
 220 616 220 616 388 616 c 0,64,65
 480 616 480 616 568 570.5 c 128,-1,66
 656 525 656 525 704 449 c 2,67,-1
 741 391 l 1,68,-1
 793 383 l 2,69,70
 859 373 859 373 900.5 320.5 c 128,-1,71
 942 268 942 268 942 200 c 0,72,73
 942 163 942 163 921 106 c 2,74,-1
 900 49 l 1,75,-1
 1109 49 l 1,76,-1
 1080 68 l 1,77,78
 1029 108 1029 108 1005 194 c 1,79,-1
 1000 222 l 1,80,-1
 998 252 l 2,81,82
 994 314 994 314 1030.5 355.5 c 128,-1,83
 1067 397 1067 397 1128 397 c 0,84,85
 1180 397 1180 397 1214 365.5 c 128,-1,86
 1248 334 1248 334 1248 282 c 2,87,-1
 1248 49 l 1,88,-1
 1386 49 l 1,89,-1
 1386 0 l 1,0,-1
1187 153 m 0,90,91
 1194 349 1194 349 1129 349 c 0,92,93
 1098 349 1098 349 1079 322 c 0,94,95
 1061 289 1061 289 1064 239 c 2,96,-1
 1067 192 l 2,97,98
 1070 142 1070 142 1151 74 c 1,99,-1
 1182 56 l 1,100,101
 1182 14 1182 14 1187 153 c 0,90,91
732 208 m 0,102,103
 732 238 732 238 720 274 c 2,104,-1
 708 310 l 1,105,-1
 696 339 l 1,106,107
 647 306 647 306 624 285 c 0,108,109
 556 223 556 223 556 174 c 0,110,111
 556 41 556 41 630 41 c 0,112,113
 682 41 682 41 710 102 c 0,114,115
 732 150 732 150 732 208 c 0,102,103
348 147 m 0,116,117
 348 201 348 201 325.5 225.5 c 128,-1,118
 303 250 303 250 251 250 c 0,119,120
 185 250 185 250 185 145 c 256,121,122
 185 40 185 40 265 40 c 0,123,124
 348 40 348 40 348 147 c 0,116,117
EndSplineSet
EndChar

